<svg xmlns="http://www.w3.org/2000/svg" xmlns:xlink="http://www.w3.org/1999/xlink" width="1920" zoomAndPan="magnify" viewBox="0 0 1440 2015.999918" height="2688" preserveAspectRatio="xMidYMid meet" version="1.0"><defs><g/><linearGradient x1="1" gradientTransform="matrix(0, 2021.999918, -2021.999918, 0, 1731.482659, -6)" y1="0.5" x2="0.00296736" gradientUnits="userSpaceOnUse" y2="0.5" id="cb3e421348"><stop stop-opacity="1" stop-color="rgb(7.499695%, 17.999268%, 20.799255%)" offset="0"/><stop stop-opacity="1" stop-color="rgb(7.737732%, 18.202209%, 20.99762%)" offset="0.00390625"/><stop stop-opacity="1" stop-color="rgb(7.975769%, 18.405151%, 21.195984%)" offset="0.0078125"/><stop stop-opacity="1" stop-color="rgb(8.213806%, 18.608093%, 21.394348%)" offset="0.0117187"/><stop stop-opacity="1" stop-color="rgb(8.451843%, 18.812561%, 21.594238%)" offset="0.015625"/><stop stop-opacity="1" stop-color="rgb(8.688354%, 19.015503%, 21.792603%)" offset="0.0195312"/><stop stop-opacity="1" stop-color="rgb(8.926392%, 19.218445%, 21.990967%)" offset="0.0234375"/><stop stop-opacity="1" stop-color="rgb(9.164429%, 19.421387%, 22.189331%)" offset="0.0273438"/><stop stop-opacity="1" stop-color="rgb(9.402466%, 19.625854%, 22.387695%)" offset="0.03125"/><stop stop-opacity="1" stop-color="rgb(9.640503%, 19.828796%, 22.58606%)" offset="0.0351562"/><stop stop-opacity="1" stop-color="rgb(9.87854%, 20.031738%, 22.78595%)" offset="0.0390625"/><stop stop-opacity="1" stop-color="rgb(10.116577%, 20.23468%, 22.984314%)" offset="0.0429687"/><stop stop-opacity="1" stop-color="rgb(10.354614%, 20.439148%, 23.182678%)" offset="0.046875"/><stop stop-opacity="1" stop-color="rgb(10.592651%, 20.64209%, 23.381042%)" offset="0.0507812"/><stop stop-opacity="1" stop-color="rgb(10.830688%, 20.845032%, 23.579407%)" offset="0.0546875"/><stop stop-opacity="1" stop-color="rgb(11.068726%, 21.047974%, 23.777771%)" offset="0.0585938"/><stop stop-opacity="1" stop-color="rgb(11.306763%, 21.252441%, 23.977661%)" offset="0.0625"/><stop stop-opacity="1" stop-color="rgb(11.5448%, 21.455383%, 24.176025%)" offset="0.0664062"/><stop stop-opacity="1" stop-color="rgb(11.782837%, 21.658325%, 24.37439%)" offset="0.0703125"/><stop stop-opacity="1" stop-color="rgb(12.020874%, 21.861267%, 24.572754%)" offset="0.0742187"/><stop stop-opacity="1" stop-color="rgb(12.258911%, 22.065735%, 24.771118%)" offset="0.078125"/><stop stop-opacity="1" stop-color="rgb(12.496948%, 22.268677%, 24.969482%)" offset="0.0820312"/><stop stop-opacity="1" stop-color="rgb(12.734985%, 22.471619%, 25.169373%)" offset="0.0859375"/><stop stop-opacity="1" stop-color="rgb(12.973022%, 22.674561%, 25.367737%)" offset="0.0898437"/><stop stop-opacity="1" stop-color="rgb(13.21106%, 22.879028%, 25.566101%)" offset="0.09375"/><stop stop-opacity="1" stop-color="rgb(13.447571%, 23.08197%, 25.764465%)" offset="0.0976562"/><stop stop-opacity="1" stop-color="rgb(13.685608%, 23.284912%, 25.96283%)" offset="0.101562"/><stop stop-opacity="1" stop-color="rgb(13.923645%, 23.487854%, 26.161194%)" offset="0.105469"/><stop stop-opacity="1" stop-color="rgb(14.161682%, 23.692322%, 26.361084%)" offset="0.109375"/><stop stop-opacity="1" stop-color="rgb(14.399719%, 23.895264%, 26.559448%)" offset="0.113281"/><stop stop-opacity="1" stop-color="rgb(14.637756%, 24.098206%, 26.757812%)" offset="0.117188"/><stop stop-opacity="1" stop-color="rgb(14.875793%, 24.301147%, 26.956177%)" offset="0.121094"/><stop stop-opacity="1" stop-color="rgb(15.113831%, 24.505615%, 27.156067%)" offset="0.125"/><stop stop-opacity="1" stop-color="rgb(15.351868%, 24.708557%, 27.354431%)" offset="0.128906"/><stop stop-opacity="1" stop-color="rgb(15.589905%, 24.911499%, 27.552795%)" offset="0.132812"/><stop stop-opacity="1" stop-color="rgb(15.827942%, 25.114441%, 27.75116%)" offset="0.136719"/><stop stop-opacity="1" stop-color="rgb(16.065979%, 25.317383%, 27.949524%)" offset="0.140625"/><stop stop-opacity="1" stop-color="rgb(16.304016%, 25.520325%, 28.147888%)" offset="0.144531"/><stop stop-opacity="1" stop-color="rgb(16.542053%, 25.724792%, 28.347778%)" offset="0.148437"/><stop stop-opacity="1" stop-color="rgb(16.78009%, 25.927734%, 28.546143%)" offset="0.152344"/><stop stop-opacity="1" stop-color="rgb(17.018127%, 26.130676%, 28.744507%)" offset="0.15625"/><stop stop-opacity="1" stop-color="rgb(17.256165%, 26.333618%, 28.942871%)" offset="0.160156"/><stop stop-opacity="1" stop-color="rgb(17.494202%, 26.538086%, 29.141235%)" offset="0.164062"/><stop stop-opacity="1" stop-color="rgb(17.732239%, 26.741028%, 29.3396%)" offset="0.167969"/><stop stop-opacity="1" stop-color="rgb(17.970276%, 26.94397%, 29.53949%)" offset="0.171875"/><stop stop-opacity="1" stop-color="rgb(18.206787%, 27.146912%, 29.737854%)" offset="0.175781"/><stop stop-opacity="1" stop-color="rgb(18.444824%, 27.351379%, 29.936218%)" offset="0.179687"/><stop stop-opacity="1" stop-color="rgb(18.682861%, 27.554321%, 30.134583%)" offset="0.183594"/><stop stop-opacity="1" stop-color="rgb(18.920898%, 27.757263%, 30.332947%)" offset="0.1875"/><stop stop-opacity="1" stop-color="rgb(19.158936%, 27.960205%, 30.531311%)" offset="0.191406"/><stop stop-opacity="1" stop-color="rgb(19.396973%, 28.164673%, 30.731201%)" offset="0.195312"/><stop stop-opacity="1" stop-color="rgb(19.63501%, 28.367615%, 30.929565%)" offset="0.199219"/><stop stop-opacity="1" stop-color="rgb(19.873047%, 28.570557%, 31.12793%)" offset="0.203125"/><stop stop-opacity="1" stop-color="rgb(20.111084%, 28.773499%, 31.326294%)" offset="0.207031"/><stop stop-opacity="1" stop-color="rgb(20.349121%, 28.977966%, 31.524658%)" offset="0.210938"/><stop stop-opacity="1" stop-color="rgb(20.587158%, 29.180908%, 31.723022%)" offset="0.214844"/><stop stop-opacity="1" stop-color="rgb(20.825195%, 29.38385%, 31.922913%)" offset="0.21875"/><stop stop-opacity="1" stop-color="rgb(21.063232%, 29.586792%, 32.121277%)" offset="0.222656"/><stop stop-opacity="1" stop-color="rgb(21.30127%, 29.79126%, 32.319641%)" offset="0.226562"/><stop stop-opacity="1" stop-color="rgb(21.539307%, 29.994202%, 32.518005%)" offset="0.230469"/><stop stop-opacity="1" stop-color="rgb(21.777344%, 30.197144%, 32.71637%)" offset="0.234375"/><stop stop-opacity="1" stop-color="rgb(22.015381%, 30.400085%, 32.914734%)" offset="0.238281"/><stop stop-opacity="1" stop-color="rgb(22.253418%, 30.604553%, 33.114624%)" offset="0.242188"/><stop stop-opacity="1" stop-color="rgb(22.491455%, 30.807495%, 33.312988%)" offset="0.246094"/><stop stop-opacity="1" stop-color="rgb(22.729492%, 31.010437%, 33.511353%)" offset="0.25"/><stop stop-opacity="1" stop-color="rgb(22.967529%, 31.213379%, 33.709717%)" offset="0.253906"/><stop stop-opacity="1" stop-color="rgb(23.205566%, 31.417847%, 33.908081%)" offset="0.257812"/><stop stop-opacity="1" stop-color="rgb(23.442078%, 31.620789%, 34.106445%)" offset="0.261719"/><stop stop-opacity="1" stop-color="rgb(23.680115%, 31.82373%, 34.306335%)" offset="0.265625"/><stop stop-opacity="1" stop-color="rgb(23.918152%, 32.026672%, 34.5047%)" offset="0.269531"/><stop stop-opacity="1" stop-color="rgb(24.156189%, 32.229614%, 34.703064%)" offset="0.273437"/><stop stop-opacity="1" stop-color="rgb(24.394226%, 32.432556%, 34.901428%)" offset="0.277344"/><stop stop-opacity="1" stop-color="rgb(24.632263%, 32.637024%, 35.099792%)" offset="0.28125"/><stop stop-opacity="1" stop-color="rgb(24.8703%, 32.839966%, 35.298157%)" offset="0.285156"/><stop stop-opacity="1" stop-color="rgb(25.108337%, 33.042908%, 35.498047%)" offset="0.289062"/><stop stop-opacity="1" stop-color="rgb(25.346375%, 33.24585%, 35.696411%)" offset="0.292969"/><stop stop-opacity="1" stop-color="rgb(25.584412%, 33.450317%, 35.894775%)" offset="0.296875"/><stop stop-opacity="1" stop-color="rgb(25.822449%, 33.653259%, 36.09314%)" offset="0.300781"/><stop stop-opacity="1" stop-color="rgb(26.060486%, 33.856201%, 36.291504%)" offset="0.304687"/><stop stop-opacity="1" stop-color="rgb(26.298523%, 34.059143%, 36.489868%)" offset="0.308594"/><stop stop-opacity="1" stop-color="rgb(26.53656%, 34.263611%, 36.689758%)" offset="0.3125"/><stop stop-opacity="1" stop-color="rgb(26.774597%, 34.466553%, 36.888123%)" offset="0.316406"/><stop stop-opacity="1" stop-color="rgb(27.012634%, 34.669495%, 37.086487%)" offset="0.320312"/><stop stop-opacity="1" stop-color="rgb(27.250671%, 34.872437%, 37.284851%)" offset="0.324219"/><stop stop-opacity="1" stop-color="rgb(27.488708%, 35.076904%, 37.483215%)" offset="0.328125"/><stop stop-opacity="1" stop-color="rgb(27.726746%, 35.279846%, 37.68158%)" offset="0.332031"/><stop stop-opacity="1" stop-color="rgb(27.964783%, 35.482788%, 37.88147%)" offset="0.335937"/><stop stop-opacity="1" stop-color="rgb(28.201294%, 35.68573%, 38.079834%)" offset="0.339844"/><stop stop-opacity="1" stop-color="rgb(28.439331%, 35.890198%, 38.278198%)" offset="0.34375"/><stop stop-opacity="1" stop-color="rgb(28.677368%, 36.09314%, 38.476562%)" offset="0.347656"/><stop stop-opacity="1" stop-color="rgb(28.915405%, 36.296082%, 38.676453%)" offset="0.351562"/><stop stop-opacity="1" stop-color="rgb(29.153442%, 36.499023%, 38.874817%)" offset="0.355469"/><stop stop-opacity="1" stop-color="rgb(29.391479%, 36.703491%, 39.073181%)" offset="0.359375"/><stop stop-opacity="1" stop-color="rgb(29.629517%, 36.906433%, 39.271545%)" offset="0.363281"/><stop stop-opacity="1" stop-color="rgb(29.867554%, 37.109375%, 39.46991%)" offset="0.367187"/><stop stop-opacity="1" stop-color="rgb(30.105591%, 37.312317%, 39.668274%)" offset="0.371094"/><stop stop-opacity="1" stop-color="rgb(30.343628%, 37.516785%, 39.868164%)" offset="0.375"/><stop stop-opacity="1" stop-color="rgb(30.581665%, 37.719727%, 40.066528%)" offset="0.378906"/><stop stop-opacity="1" stop-color="rgb(30.819702%, 37.922668%, 40.264893%)" offset="0.382812"/><stop stop-opacity="1" stop-color="rgb(31.057739%, 38.12561%, 40.463257%)" offset="0.386719"/><stop stop-opacity="1" stop-color="rgb(31.295776%, 38.330078%, 40.661621%)" offset="0.390625"/><stop stop-opacity="1" stop-color="rgb(31.533813%, 38.53302%, 40.859985%)" offset="0.394531"/><stop stop-opacity="1" stop-color="rgb(31.771851%, 38.735962%, 41.059875%)" offset="0.398438"/><stop stop-opacity="1" stop-color="rgb(32.009888%, 38.938904%, 41.25824%)" offset="0.402344"/><stop stop-opacity="1" stop-color="rgb(32.247925%, 39.141846%, 41.456604%)" offset="0.40625"/><stop stop-opacity="1" stop-color="rgb(32.485962%, 39.344788%, 41.654968%)" offset="0.410156"/><stop stop-opacity="1" stop-color="rgb(32.723999%, 39.549255%, 41.853333%)" offset="0.414062"/><stop stop-opacity="1" stop-color="rgb(32.962036%, 39.752197%, 42.051697%)" offset="0.417969"/><stop stop-opacity="1" stop-color="rgb(33.200073%, 39.955139%, 42.251587%)" offset="0.421875"/><stop stop-opacity="1" stop-color="rgb(33.436584%, 40.158081%, 42.449951%)" offset="0.425781"/><stop stop-opacity="1" stop-color="rgb(33.674622%, 40.362549%, 42.648315%)" offset="0.429688"/><stop stop-opacity="1" stop-color="rgb(33.912659%, 40.565491%, 42.84668%)" offset="0.433594"/><stop stop-opacity="1" stop-color="rgb(34.150696%, 40.768433%, 43.045044%)" offset="0.4375"/><stop stop-opacity="1" stop-color="rgb(34.388733%, 40.971375%, 43.243408%)" offset="0.441406"/><stop stop-opacity="1" stop-color="rgb(34.62677%, 41.175842%, 43.443298%)" offset="0.445312"/><stop stop-opacity="1" stop-color="rgb(34.864807%, 41.378784%, 43.641663%)" offset="0.449219"/><stop stop-opacity="1" stop-color="rgb(35.102844%, 41.581726%, 43.840027%)" offset="0.453125"/><stop stop-opacity="1" stop-color="rgb(35.340881%, 41.784668%, 44.038391%)" offset="0.457031"/><stop stop-opacity="1" stop-color="rgb(35.578918%, 41.989136%, 44.236755%)" offset="0.460938"/><stop stop-opacity="1" stop-color="rgb(35.816956%, 42.192078%, 44.43512%)" offset="0.464844"/><stop stop-opacity="1" stop-color="rgb(36.054993%, 42.39502%, 44.63501%)" offset="0.46875"/><stop stop-opacity="1" stop-color="rgb(36.29303%, 42.597961%, 44.833374%)" offset="0.472656"/><stop stop-opacity="1" stop-color="rgb(36.531067%, 42.802429%, 45.031738%)" offset="0.476562"/><stop stop-opacity="1" stop-color="rgb(36.769104%, 43.005371%, 45.230103%)" offset="0.480469"/><stop stop-opacity="1" stop-color="rgb(37.007141%, 43.208313%, 45.428467%)" offset="0.484375"/><stop stop-opacity="1" stop-color="rgb(37.245178%, 43.411255%, 45.626831%)" offset="0.488281"/><stop stop-opacity="1" stop-color="rgb(37.483215%, 43.615723%, 45.826721%)" offset="0.492188"/><stop stop-opacity="1" stop-color="rgb(37.721252%, 43.818665%, 46.025085%)" offset="0.496094"/><stop stop-opacity="1" stop-color="rgb(37.95929%, 44.021606%, 46.22345%)" offset="0.5"/><stop stop-opacity="1" stop-color="rgb(38.195801%, 44.224548%, 46.421814%)" offset="0.503906"/><stop stop-opacity="1" stop-color="rgb(38.433838%, 44.429016%, 46.620178%)" offset="0.507812"/><stop stop-opacity="1" stop-color="rgb(38.671875%, 44.631958%, 46.818542%)" offset="0.511719"/><stop stop-opacity="1" stop-color="rgb(38.909912%, 44.8349%, 47.018433%)" offset="0.515625"/><stop stop-opacity="1" stop-color="rgb(39.147949%, 45.037842%, 47.216797%)" offset="0.519531"/><stop stop-opacity="1" stop-color="rgb(39.385986%, 45.24231%, 47.415161%)" offset="0.523437"/><stop stop-opacity="1" stop-color="rgb(39.624023%, 45.445251%, 47.613525%)" offset="0.527344"/><stop stop-opacity="1" stop-color="rgb(39.862061%, 45.648193%, 47.81189%)" offset="0.53125"/><stop stop-opacity="1" stop-color="rgb(40.100098%, 45.851135%, 48.010254%)" offset="0.535156"/><stop stop-opacity="1" stop-color="rgb(40.338135%, 46.054077%, 48.210144%)" offset="0.539062"/><stop stop-opacity="1" stop-color="rgb(40.576172%, 46.257019%, 48.408508%)" offset="0.542969"/><stop stop-opacity="1" stop-color="rgb(40.814209%, 46.461487%, 48.606873%)" offset="0.546875"/><stop stop-opacity="1" stop-color="rgb(41.052246%, 46.664429%, 48.805237%)" offset="0.550781"/><stop stop-opacity="1" stop-color="rgb(41.290283%, 46.867371%, 49.003601%)" offset="0.554687"/><stop stop-opacity="1" stop-color="rgb(41.52832%, 47.070312%, 49.201965%)" offset="0.558594"/><stop stop-opacity="1" stop-color="rgb(41.766357%, 47.27478%, 49.401855%)" offset="0.5625"/><stop stop-opacity="1" stop-color="rgb(42.004395%, 47.477722%, 49.60022%)" offset="0.566406"/><stop stop-opacity="1" stop-color="rgb(42.242432%, 47.680664%, 49.798584%)" offset="0.570312"/><stop stop-opacity="1" stop-color="rgb(42.480469%, 47.883606%, 49.996948%)" offset="0.574219"/><stop stop-opacity="1" stop-color="rgb(42.718506%, 48.088074%, 50.196838%)" offset="0.578125"/><stop stop-opacity="1" stop-color="rgb(42.955017%, 48.291016%, 50.395203%)" offset="0.582031"/><stop stop-opacity="1" stop-color="rgb(43.193054%, 48.493958%, 50.593567%)" offset="0.585937"/><stop stop-opacity="1" stop-color="rgb(43.431091%, 48.696899%, 50.791931%)" offset="0.589844"/><stop stop-opacity="1" stop-color="rgb(43.669128%, 48.901367%, 50.990295%)" offset="0.59375"/><stop stop-opacity="1" stop-color="rgb(43.907166%, 49.104309%, 51.18866%)" offset="0.597656"/><stop stop-opacity="1" stop-color="rgb(44.145203%, 49.307251%, 51.38855%)" offset="0.601562"/><stop stop-opacity="1" stop-color="rgb(44.38324%, 49.510193%, 51.586914%)" offset="0.605469"/><stop stop-opacity="1" stop-color="rgb(44.621277%, 49.714661%, 51.785278%)" offset="0.609375"/><stop stop-opacity="1" stop-color="rgb(44.859314%, 49.917603%, 51.983643%)" offset="0.613281"/><stop stop-opacity="1" stop-color="rgb(45.097351%, 50.120544%, 52.182007%)" offset="0.617187"/><stop stop-opacity="1" stop-color="rgb(45.335388%, 50.323486%, 52.380371%)" offset="0.621094"/><stop stop-opacity="1" stop-color="rgb(45.573425%, 50.527954%, 52.580261%)" offset="0.625"/><stop stop-opacity="1" stop-color="rgb(45.811462%, 50.730896%, 52.778625%)" offset="0.628906"/><stop stop-opacity="1" stop-color="rgb(46.0495%, 50.933838%, 52.97699%)" offset="0.632812"/><stop stop-opacity="1" stop-color="rgb(46.287537%, 51.13678%, 53.175354%)" offset="0.636719"/><stop stop-opacity="1" stop-color="rgb(46.525574%, 51.341248%, 53.373718%)" offset="0.640625"/><stop stop-opacity="1" stop-color="rgb(46.763611%, 51.544189%, 53.572083%)" offset="0.644531"/><stop stop-opacity="1" stop-color="rgb(47.001648%, 51.747131%, 53.771973%)" offset="0.648437"/><stop stop-opacity="1" stop-color="rgb(47.239685%, 51.950073%, 53.970337%)" offset="0.652344"/><stop stop-opacity="1" stop-color="rgb(47.477722%, 52.154541%, 54.168701%)" offset="0.65625"/><stop stop-opacity="1" stop-color="rgb(47.715759%, 52.357483%, 54.367065%)" offset="0.660156"/><stop stop-opacity="1" stop-color="rgb(47.953796%, 52.560425%, 54.56543%)" offset="0.664062"/><stop stop-opacity="1" stop-color="rgb(48.190308%, 52.763367%, 54.763794%)" offset="0.667969"/><stop stop-opacity="1" stop-color="rgb(48.428345%, 52.966309%, 54.963684%)" offset="0.671875"/><stop stop-opacity="1" stop-color="rgb(48.666382%, 53.16925%, 55.162048%)" offset="0.675781"/><stop stop-opacity="1" stop-color="rgb(48.904419%, 53.373718%, 55.360413%)" offset="0.679687"/><stop stop-opacity="1" stop-color="rgb(49.142456%, 53.57666%, 55.558777%)" offset="0.683594"/><stop stop-opacity="1" stop-color="rgb(49.380493%, 53.779602%, 55.757141%)" offset="0.6875"/><stop stop-opacity="1" stop-color="rgb(49.61853%, 53.982544%, 55.955505%)" offset="0.691406"/><stop stop-opacity="1" stop-color="rgb(49.856567%, 54.187012%, 56.155396%)" offset="0.695312"/><stop stop-opacity="1" stop-color="rgb(50.094604%, 54.389954%, 56.35376%)" offset="0.699219"/><stop stop-opacity="1" stop-color="rgb(50.332642%, 54.592896%, 56.552124%)" offset="0.703125"/><stop stop-opacity="1" stop-color="rgb(50.570679%, 54.795837%, 56.750488%)" offset="0.707031"/><stop stop-opacity="1" stop-color="rgb(50.808716%, 55.000305%, 56.948853%)" offset="0.710937"/><stop stop-opacity="1" stop-color="rgb(51.046753%, 55.203247%, 57.147217%)" offset="0.714844"/><stop stop-opacity="1" stop-color="rgb(51.28479%, 55.406189%, 57.347107%)" offset="0.71875"/><stop stop-opacity="1" stop-color="rgb(51.522827%, 55.609131%, 57.545471%)" offset="0.722656"/><stop stop-opacity="1" stop-color="rgb(51.760864%, 55.813599%, 57.743835%)" offset="0.726562"/><stop stop-opacity="1" stop-color="rgb(51.998901%, 56.016541%, 57.9422%)" offset="0.730469"/><stop stop-opacity="1" stop-color="rgb(52.236938%, 56.219482%, 58.140564%)" offset="0.734375"/><stop stop-opacity="1" stop-color="rgb(52.474976%, 56.422424%, 58.338928%)" offset="0.738281"/><stop stop-opacity="1" stop-color="rgb(52.713013%, 56.626892%, 58.538818%)" offset="0.742187"/><stop stop-opacity="1" stop-color="rgb(52.949524%, 56.829834%, 58.737183%)" offset="0.746094"/><stop stop-opacity="1" stop-color="rgb(53.187561%, 57.032776%, 58.935547%)" offset="0.75"/><stop stop-opacity="1" stop-color="rgb(53.425598%, 57.235718%, 59.133911%)" offset="0.753906"/><stop stop-opacity="1" stop-color="rgb(53.663635%, 57.440186%, 59.332275%)" offset="0.757812"/><stop stop-opacity="1" stop-color="rgb(53.901672%, 57.643127%, 59.53064%)" offset="0.761719"/><stop stop-opacity="1" stop-color="rgb(54.139709%, 57.846069%, 59.73053%)" offset="0.765625"/><stop stop-opacity="1" stop-color="rgb(54.377747%, 58.049011%, 59.928894%)" offset="0.769531"/><stop stop-opacity="1" stop-color="rgb(54.615784%, 58.253479%, 60.127258%)" offset="0.773438"/><stop stop-opacity="1" stop-color="rgb(54.853821%, 58.456421%, 60.325623%)" offset="0.777344"/><stop stop-opacity="1" stop-color="rgb(55.091858%, 58.659363%, 60.525513%)" offset="0.78125"/><stop stop-opacity="1" stop-color="rgb(55.329895%, 58.862305%, 60.723877%)" offset="0.785156"/><stop stop-opacity="1" stop-color="rgb(55.567932%, 59.066772%, 60.922241%)" offset="0.789062"/><stop stop-opacity="1" stop-color="rgb(55.805969%, 59.269714%, 61.120605%)" offset="0.792969"/><stop stop-opacity="1" stop-color="rgb(56.044006%, 59.472656%, 61.31897%)" offset="0.796875"/><stop stop-opacity="1" stop-color="rgb(56.282043%, 59.675598%, 61.517334%)" offset="0.800781"/><stop stop-opacity="1" stop-color="rgb(56.520081%, 59.87854%, 61.717224%)" offset="0.804688"/><stop stop-opacity="1" stop-color="rgb(56.758118%, 60.081482%, 61.915588%)" offset="0.808594"/><stop stop-opacity="1" stop-color="rgb(56.996155%, 60.28595%, 62.113953%)" offset="0.8125"/><stop stop-opacity="1" stop-color="rgb(57.234192%, 60.488892%, 62.312317%)" offset="0.816406"/><stop stop-opacity="1" stop-color="rgb(57.472229%, 60.691833%, 62.510681%)" offset="0.820312"/><stop stop-opacity="1" stop-color="rgb(57.70874%, 60.894775%, 62.709045%)" offset="0.824219"/><stop stop-opacity="1" stop-color="rgb(57.946777%, 61.099243%, 62.908936%)" offset="0.828125"/><stop stop-opacity="1" stop-color="rgb(58.184814%, 61.302185%, 63.1073%)" offset="0.832031"/><stop stop-opacity="1" stop-color="rgb(58.422852%, 61.505127%, 63.305664%)" offset="0.835938"/><stop stop-opacity="1" stop-color="rgb(58.660889%, 61.708069%, 63.504028%)" offset="0.839844"/><stop stop-opacity="1" stop-color="rgb(58.898926%, 61.912537%, 63.702393%)" offset="0.84375"/><stop stop-opacity="1" stop-color="rgb(59.136963%, 62.115479%, 63.900757%)" offset="0.847656"/><stop stop-opacity="1" stop-color="rgb(59.375%, 62.31842%, 64.100647%)" offset="0.851562"/><stop stop-opacity="1" stop-color="rgb(59.613037%, 62.521362%, 64.299011%)" offset="0.855469"/><stop stop-opacity="1" stop-color="rgb(59.851074%, 62.72583%, 64.497375%)" offset="0.859375"/><stop stop-opacity="1" stop-color="rgb(60.089111%, 62.928772%, 64.69574%)" offset="0.863281"/><stop stop-opacity="1" stop-color="rgb(60.327148%, 63.131714%, 64.894104%)" offset="0.867188"/><stop stop-opacity="1" stop-color="rgb(60.565186%, 63.334656%, 65.092468%)" offset="0.871094"/><stop stop-opacity="1" stop-color="rgb(60.803223%, 63.539124%, 65.292358%)" offset="0.875"/><stop stop-opacity="1" stop-color="rgb(61.04126%, 63.742065%, 65.490723%)" offset="0.878906"/><stop stop-opacity="1" stop-color="rgb(61.279297%, 63.945007%, 65.689087%)" offset="0.882812"/><stop stop-opacity="1" stop-color="rgb(61.517334%, 64.147949%, 65.887451%)" offset="0.886719"/><stop stop-opacity="1" stop-color="rgb(61.755371%, 64.352417%, 66.085815%)" offset="0.890625"/><stop stop-opacity="1" stop-color="rgb(61.993408%, 64.555359%, 66.28418%)" offset="0.894531"/><stop stop-opacity="1" stop-color="rgb(62.231445%, 64.758301%, 66.48407%)" offset="0.898438"/><stop stop-opacity="1" stop-color="rgb(62.469482%, 64.961243%, 66.682434%)" offset="0.902344"/><stop stop-opacity="1" stop-color="rgb(62.70752%, 65.16571%, 66.880798%)" offset="0.90625"/><stop stop-opacity="1" stop-color="rgb(62.944031%, 65.368652%, 67.079163%)" offset="0.910156"/><stop stop-opacity="1" stop-color="rgb(63.182068%, 65.571594%, 67.277527%)" offset="0.914062"/><stop stop-opacity="1" stop-color="rgb(63.420105%, 65.774536%, 67.475891%)" offset="0.917969"/><stop stop-opacity="1" stop-color="rgb(63.658142%, 65.979004%, 67.675781%)" offset="0.921875"/><stop stop-opacity="1" stop-color="rgb(63.896179%, 66.181946%, 67.874146%)" offset="0.925781"/><stop stop-opacity="1" stop-color="rgb(64.134216%, 66.384888%, 68.07251%)" offset="0.929688"/><stop stop-opacity="1" stop-color="rgb(64.372253%, 66.58783%, 68.270874%)" offset="0.933594"/><stop stop-opacity="1" stop-color="rgb(64.610291%, 66.790771%, 68.469238%)" offset="0.9375"/><stop stop-opacity="1" stop-color="rgb(64.848328%, 66.993713%, 68.667603%)" offset="0.941406"/><stop stop-opacity="1" stop-color="rgb(65.086365%, 67.198181%, 68.867493%)" offset="0.945312"/><stop stop-opacity="1" stop-color="rgb(65.324402%, 67.401123%, 69.065857%)" offset="0.949219"/><stop stop-opacity="1" stop-color="rgb(65.562439%, 67.604065%, 69.264221%)" offset="0.953125"/><stop stop-opacity="1" stop-color="rgb(65.800476%, 67.807007%, 69.462585%)" offset="0.957031"/><stop stop-opacity="1" stop-color="rgb(66.038513%, 68.011475%, 69.66095%)" offset="0.960938"/><stop stop-opacity="1" stop-color="rgb(66.27655%, 68.214417%, 69.859314%)" offset="0.964844"/><stop stop-opacity="1" stop-color="rgb(66.514587%, 68.417358%, 70.059204%)" offset="0.96875"/><stop stop-opacity="1" stop-color="rgb(66.752625%, 68.6203%, 70.257568%)" offset="0.972656"/><stop stop-opacity="1" stop-color="rgb(66.990662%, 68.824768%, 70.455933%)" offset="0.976562"/><stop stop-opacity="1" stop-color="rgb(67.228699%, 69.02771%, 70.654297%)" offset="0.980469"/><stop stop-opacity="1" stop-color="rgb(67.466736%, 69.230652%, 70.852661%)" offset="0.984375"/><stop stop-opacity="1" stop-color="rgb(67.703247%, 69.433594%, 71.051025%)" offset="0.988281"/><stop stop-opacity="1" stop-color="rgb(67.941284%, 69.638062%, 71.250916%)" offset="0.992188"/><stop stop-opacity="1" stop-color="rgb(68.179321%, 69.841003%, 71.44928%)" offset="0.996094"/><stop stop-opacity="1" stop-color="rgb(68.417358%, 70.043945%, 71.647644%)" offset="1"/></linearGradient><clipPath id="a795de2b26"><path d="M 287.886719 575.886719 L 1152.113281 575.886719 L 1152.113281 1440.109375 L 287.886719 1440.109375 Z M 287.886719 575.886719 " clip-rule="nonzero"/></clipPath><clipPath id="729d243e5b"><path d="M 355.386719 575.886719 L 1084.613281 575.886719 C 1102.511719 575.886719 1119.683594 583 1132.339844 595.660156 C 1145 608.316406 1152.113281 625.488281 1152.113281 643.386719 L 1152.113281 1372.609375 C 1152.113281 1390.511719 1145 1407.683594 1132.339844 1420.339844 C 1119.683594 1433 1102.511719 1440.109375 1084.613281 1440.109375 L 355.386719 1440.109375 C 337.488281 1440.109375 320.316406 1433 307.660156 1420.339844 C 295 1407.683594 287.886719 1390.511719 287.886719 1372.609375 L 287.886719 643.386719 C 287.886719 625.488281 295 608.316406 307.660156 595.660156 C 320.316406 583 337.488281 575.886719 355.386719 575.886719 Z M 355.386719 575.886719 " clip-rule="nonzero"/></clipPath><clipPath id="53cd423b91"><path d="M 287.886719 575.886719 L 1151.886719 575.886719 L 1151.886719 1439.886719 L 287.886719 1439.886719 Z M 287.886719 575.886719 " clip-rule="nonzero"/></clipPath><clipPath id="669d2afe2b"><path d="M 355.386719 575.886719 L 1084.609375 575.886719 C 1102.511719 575.886719 1119.683594 583 1132.339844 595.660156 C 1145 608.316406 1152.109375 625.488281 1152.109375 643.386719 L 1152.109375 1372.609375 C 1152.109375 1390.511719 1145 1407.683594 1132.339844 1420.339844 C 1119.683594 1433 1102.511719 1440.109375 1084.609375 1440.109375 L 355.386719 1440.109375 C 337.488281 1440.109375 320.316406 1433 307.660156 1420.339844 C 295 1407.683594 287.886719 1390.511719 287.886719 1372.609375 L 287.886719 643.386719 C 287.886719 625.488281 295 608.316406 307.660156 595.660156 C 320.316406 583 337.488281 575.886719 355.386719 575.886719 Z M 355.386719 575.886719 " clip-rule="nonzero"/></clipPath><clipPath id="cf7f485cc7"><path d="M 720 938 L 1024.488281 938 L 1024.488281 1243 L 720 1243 Z M 720 938 " clip-rule="nonzero"/></clipPath><clipPath id="18b6d592e2"><path d="M 415.488281 748.066406 L 920 748.066406 L 920 1261.816406 L 415.488281 1261.816406 Z M 415.488281 748.066406 " clip-rule="nonzero"/></clipPath><clipPath id="0ff6cda9cd"><path d="M 288.371094 0 L 1152.59375 0 L 1152.59375 298.957031 L 288.371094 298.957031 Z M 288.371094 0 " clip-rule="nonzero"/></clipPath><clipPath id="2163e8528e"><path d="M 355.871094 -223.980469 L 1085.09375 -223.980469 C 1122.375 -223.980469 1152.59375 -193.761719 1152.59375 -156.480469 L 1152.59375 231.457031 C 1152.59375 268.734375 1122.375 298.957031 1085.09375 298.957031 L 355.871094 298.957031 C 318.59375 298.957031 288.371094 268.734375 288.371094 231.457031 L 288.371094 -156.480469 C 288.371094 -193.761719 318.59375 -223.980469 355.871094 -223.980469 Z M 355.871094 -223.980469 " clip-rule="nonzero"/></clipPath><clipPath id="fb33abf2b2"><path d="M 288.371094 1716.859375 L 1152.59375 1716.859375 L 1152.59375 2016 L 288.371094 2016 Z M 288.371094 1716.859375 " clip-rule="nonzero"/></clipPath><clipPath id="9859eeaee0"><path d="M 355.871094 1716.859375 L 1085.09375 1716.859375 C 1122.375 1716.859375 1152.59375 1747.082031 1152.59375 1784.359375 L 1152.59375 2172.296875 C 1152.59375 2209.578125 1122.375 2239.796875 1085.09375 2239.796875 L 355.871094 2239.796875 C 318.59375 2239.796875 288.371094 2209.578125 288.371094 2172.296875 L 288.371094 1784.359375 C 288.371094 1747.082031 318.59375 1716.859375 355.871094 1716.859375 Z M 355.871094 1716.859375 " clip-rule="nonzero"/></clipPath></defs><rect x="-144" width="1728" fill="#ffffff" y="-201.599992" height="2419.199902" fill-opacity="1"/><rect x="-144" width="1728" fill="#afb3b7" y="-201.599992" height="2419.199902" fill-opacity="1"/><rect x="-144" fill="url(#cb3e421348)" width="1728" y="-201.599992" height="2419.199902"/><g clip-path="url(#a795de2b26)"><g clip-path="url(#729d243e5b)"><path fill="#f5f5fa" d="M 287.886719 575.886719 L 1152.113281 575.886719 L 1152.113281 1440.109375 L 287.886719 1440.109375 Z M 287.886719 575.886719 " fill-opacity="1" fill-rule="nonzero"/></g></g><g clip-path="url(#53cd423b91)"><g clip-path="url(#669d2afe2b)"><path stroke-linecap="butt" transform="matrix(0.75, 0, 0, 0.75, 287.888619, 575.888497)" fill="none" stroke-linejoin="miter" d="M 89.997474 -0.00237044 L 1062.294429 -0.00237044 C 1086.164222 -0.00237044 1109.060057 9.482005 1125.935059 26.362215 C 1142.815269 43.237216 1152.294436 66.133052 1152.294436 89.997637 L 1152.294436 1062.294592 C 1152.294436 1086.164386 1142.815269 1109.060221 1125.935059 1125.935222 C 1109.060057 1142.815432 1086.164222 1152.294599 1062.294429 1152.294599 L 89.997474 1152.294599 C 66.132888 1152.294599 43.237053 1142.815432 26.362052 1125.935222 C 9.481842 1109.060221 -0.00253391 1086.164386 -0.00253391 1062.294592 L -0.00253391 89.997637 C -0.00253391 66.133052 9.481842 43.237216 26.362052 26.362215 C 43.237053 9.482005 66.132888 -0.00237044 89.997474 -0.00237044 Z M 89.997474 -0.00237044 " stroke="#0d1f23" stroke-width="100" stroke-opacity="1" stroke-miterlimit="4"/></g></g><g clip-path="url(#cf7f485cc7)"><path fill="#0d1f23" d="M 887.566406 954.839844 C 890.183594 954.839844 891.492188 956.015625 891.867188 958.648438 C 893.207031 967.691406 894.550781 976.742188 895.816406 985.816406 C 896 987.144531 896.527344 987.714844 897.859375 988.03125 C 907.730469 990.394531 917.066406 994.207031 925.800781 999.414062 C 926.511719 999.835938 928.132812 999.78125 928.808594 999.289062 C 935.957031 993.746094 943.191406 988.269531 950.378906 982.816406 C 952.597656 981.136719 954.628906 981.21875 956.625 983.164062 C 963.738281 990.113281 970.828125 997.089844 977.953125 1004.101562 C 980.203125 1006.269531 980.332031 1007.890625 978.492188 1010.394531 C 973.078125 1017.808594 967.714844 1025.203125 962.277344 1032.5625 C 961.621094 1033.457031 961.609375 1034.03125 962.175781 1034.9375 C 968.046875 1044.347656 972.367188 1054.421875 974.898438 1065.246094 C 975.214844 1066.621094 975.984375 1066.875 977.148438 1067.042969 C 986.183594 1068.371094 995.238281 1069.691406 1004.296875 1071.015625 C 1006.828125 1071.390625 1008.039062 1072.71875 1008.039062 1075.234375 C 1008.042969 1085.488281 1008.042969 1095.78125 1008.039062 1106.042969 C 1008.039062 1108.546875 1006.847656 1109.886719 1004.316406 1110.265625 C 995.316406 1111.585938 986.320312 1112.910156 977.292969 1114.175781 C 975.882812 1114.363281 975.203125 1114.859375 974.851562 1116.339844 C 972.46875 1126.332031 968.535156 1135.714844 963.257812 1144.515625 C 962.71875 1145.425781 962.699219 1146.015625 963.355469 1146.875 C 968.972656 1154.144531 974.492188 1161.441406 980.019531 1168.714844 C 981.921875 1171.179688 981.839844 1172.84375 979.65625 1175.058594 C 972.71875 1182.144531 965.8125 1189.203125 958.851562 1196.277344 C 956.765625 1198.394531 954.792969 1198.597656 952.394531 1196.835938 C 944.980469 1191.414062 937.597656 1186.046875 930.21875 1180.609375 C 929.742188 1180.261719 928.519531 1180.207031 928.011719 1180.539062 C 918.5625 1186.4375 908.445312 1190.75 897.601562 1193.308594 C 896.242188 1193.632812 895.996094 1194.332031 895.828125 1195.429688 C 894.519531 1204.546875 893.203125 1213.65625 891.863281 1222.761719 C 891.488281 1225.253906 890.132812 1226.433594 887.574219 1226.433594 C 877.347656 1226.433594 867.171875 1226.433594 856.929688 1226.433594 C 854.316406 1226.433594 853.007812 1225.261719 852.617188 1222.617188 C 851.292969 1213.574219 849.972656 1204.53125 848.695312 1195.453125 C 848.503906 1194.132812 847.980469 1193.5625 846.664062 1193.230469 C 836.765625 1190.878906 827.4375 1187.066406 818.722656 1181.851562 C 818.019531 1181.433594 816.351562 1181.46875 815.699219 1181.976562 C 808.546875 1187.523438 801.324219 1192.996094 794.121094 1198.453125 C 791.90625 1200.136719 789.890625 1200.050781 787.882812 1198.109375 C 780.765625 1191.152344 773.644531 1184.1875 766.546875 1177.203125 C 764.300781 1175 764.167969 1173.378906 766.023438 1170.859375 C 771.421875 1163.453125 776.785156 1156.03125 782.222656 1148.707031 C 782.878906 1147.8125 782.902344 1147.226562 782.335938 1146.332031 C 776.453125 1136.917969 772.140625 1126.835938 769.589844 1116.027344 C 769.261719 1114.652344 768.535156 1114.355469 767.34375 1114.21875 C 758.308594 1112.898438 749.265625 1111.578125 740.199219 1110.253906 C 737.578125 1109.878906 736.453125 1108.542969 736.453125 1105.863281 C 736.453125 1095.683594 736.453125 1085.570312 736.453125 1075.402344 C 736.453125 1072.71875 737.621094 1071.386719 740.191406 1071.011719 C 749.230469 1069.6875 758.265625 1068.367188 767.34375 1067.039062 C 768.496094 1066.886719 769.257812 1066.644531 769.589844 1065.25 C 771.949219 1055.136719 775.921875 1045.660156 781.222656 1036.75 C 781.734375 1035.851562 781.800781 1035.253906 781.136719 1034.402344 C 775.515625 1027.128906 770.019531 1019.855469 764.453125 1012.558594 C 762.5625 1010.089844 762.652344 1008.429688 764.835938 1006.21875 C 771.839844 999.066406 778.824219 991.871094 785.851562 984.777344 C 787.761719 982.878906 789.796875 982.828125 791.949219 984.363281 C 799.371094 989.730469 806.753906 995.132812 814.109375 1000.578125 C 814.652344 1000.984375 816.039062 1001.035156 816.613281 1000.65625 C 825.957031 994.808594 836.023438 990.570312 846.773438 988 C 848.039062 987.691406 848.496094 987.101562 848.6875 985.835938 C 849.964844 976.71875 851.292969 967.640625 852.613281 958.511719 C 852.988281 956.015625 854.351562 954.839844 856.921875 954.839844 C 867.148438 954.839844 877.328125 954.839844 887.566406 954.839844 M 872.246094 1155.476562 C 908.070312 1155.476562 937.101562 1126.445312 937.101562 1090.636719 C 937.101562 1054.828125 908.070312 1025.796875 872.246094 1025.796875 C 836.457031 1025.796875 807.40625 1054.828125 807.40625 1090.636719 C 807.40625 1126.445312 836.457031 1155.476562 872.246094 1155.476562 M 887.566406 938.382812 L 856.929688 938.382812 C 846.210938 938.382812 837.933594 945.472656 836.34375 956.046875 C 835.449219 962.238281 834.523438 968.425781 833.660156 974.621094 C 827.761719 976.554688 822 978.964844 816.425781 981.832031 C 811.769531 978.417969 806.863281 974.84375 801.609375 971.027344 C 792.996094 964.777344 781.789062 965.613281 774.257812 973.105469 C 769.339844 978.074219 753.074219 994.695312 753.074219 994.695312 C 745.234375 1002.671875 744.558594 1013.617188 751.390625 1022.550781 C 751.390625 1022.550781 760.269531 1034.238281 762.378906 1036.992188 C 759.964844 1041.890625 757.910156 1046.917969 756.230469 1052.023438 C 750.082031 1052.925781 743.949219 1053.824219 737.789062 1054.722656 C 727.167969 1056.261719 720 1064.570312 720 1075.40625 L 720 1105.867188 C 720 1116.730469 727.183594 1125.03125 737.894531 1126.558594 C 743.960938 1127.449219 750.09375 1128.34375 756.226562 1129.234375 C 758.15625 1135.105469 760.578125 1140.847656 763.460938 1146.433594 C 760.992188 1149.796875 752.710938 1161.183594 752.710938 1161.183594 C 746.003906 1170.269531 746.863281 1180.949219 755.007812 1188.953125 C 762.117188 1195.945312 769.246094 1202.914062 776.375 1209.890625 C 784.226562 1217.449219 795.539062 1218.179688 804.175781 1211.488281 C 804.175781 1211.488281 814.339844 1203.785156 818.605469 1200.519531 C 823.480469 1202.929688 828.511719 1204.984375 833.65625 1206.65625 C 834.269531 1211 836.324219 1224.988281 836.324219 1224.988281 C 837.921875 1235.734375 846.207031 1242.894531 856.929688 1242.894531 L 887.574219 1242.894531 C 898.273438 1242.894531 906.539062 1235.796875 908.140625 1225.222656 C 909.050781 1219.011719 909.953125 1212.835938 910.84375 1206.660156 C 916.71875 1204.730469 922.460938 1202.316406 928.046875 1199.441406 C 930.777344 1201.433594 942.65625 1210.117188 942.667969 1210.128906 C 951.667969 1216.703125 962.957031 1215.714844 970.683594 1207.726562 C 977.542969 1200.730469 984.472656 1193.671875 991.410156 1186.582031 C 999.265625 1178.636719 999.949219 1167.683594 993.101562 1158.726562 C 993.101562 1158.726562 984.347656 1147.214844 982.113281 1144.28125 C 984.535156 1139.386719 986.574219 1134.363281 988.273438 1129.238281 C 994.410156 1128.363281 1000.574219 1127.457031 1006.714844 1126.554688 C 1017.339844 1125 1024.488281 1116.757812 1024.488281 1106.046875 C 1024.492188 1095.789062 1024.492188 1085.5 1024.488281 1075.230469 C 1024.488281 1064.535156 1017.332031 1056.292969 1006.667969 1054.734375 C 1000.535156 1053.839844 994.386719 1052.941406 988.25 1052.039062 C 986.324219 1046.15625 983.90625 1040.414062 981.027344 1034.839844 C 983.421875 1031.566406 991.777344 1020.105469 991.777344 1020.105469 C 998.441406 1011.066406 997.523438 1000.109375 989.363281 992.25 C 982.359375 985.355469 975.242188 978.375 968.113281 971.398438 C 960.324219 963.820312 948.984375 963.148438 940.363281 969.746094 C 936.761719 972.503906 926.183594 980.90625 925.878906 980.753906 C 920.996094 978.359375 915.980469 976.308594 910.832031 974.625 C 909.953125 968.496094 909.054688 962.375 908.140625 956.25 C 906.628906 945.585938 898.34375 938.382812 887.566406 938.382812 Z M 872.246094 1139.007812 C 845.578125 1139.007812 823.882812 1117.308594 823.882812 1090.636719 C 823.882812 1063.964844 845.578125 1042.269531 872.246094 1042.269531 C 898.933594 1042.269531 920.636719 1063.964844 920.636719 1090.636719 C 920.636719 1117.308594 898.933594 1139.007812 872.246094 1139.007812 Z M 872.246094 1139.007812 " fill-opacity="1" fill-rule="nonzero"/></g><g clip-path="url(#18b6d592e2)"><path fill="#0d1f23" d="M 763.457031 1223.84375 C 753.007812 1228.617188 724.347656 1236.648438 724.347656 1236.648438 L 731.914062 1227.09375 C 736.75 1220.984375 741.347656 1214.039062 745.734375 1206.507812 C 744.382812 1205.179688 735.492188 1195.363281 733.457031 1191.402344 C 720.238281 1216.683594 704.460938 1233.25 687.15625 1239.414062 L 681.855469 1241.300781 L 681.855469 1115.621094 C 681.855469 1115.621094 697.09375 1116.691406 702.570312 1117.382812 C 701.53125 1113.75 700.96875 1097.242188 700.96875 1097.242188 C 695.875 1096.675781 681.867188 1095.769531 681.867188 1095.769531 L 681.84375 1014.421875 L 728.03125 1014.421875 C 727.207031 1008.050781 727.996094 1001.597656 730.324219 995.535156 L 681.847656 995.535156 L 681.847656 895.460938 L 685.617188 895.277344 C 708.398438 894.128906 730.882812 889.957031 752.449219 882.890625 L 756.53125 881.558594 L 757.542969 885.734375 C 762.632812 906.792969 766.328125 929.796875 768.523438 953.609375 C 774.347656 950.03125 780.851562 947.964844 787.566406 947.699219 L 787.78125 947.695312 C 785.210938 923.257812 781 899.621094 775.28125 877.839844 L 774.425781 874.589844 L 777.496094 873.210938 C 798.160156 863.945312 817.546875 851.925781 835.117188 837.488281 L 837.910156 835.199219 L 840.453125 837.753906 C 863.933594 861.351562 881.929688 889.34375 893.667969 919.820312 C 904.421875 921.371094 913.59375 926.984375 919.660156 935.316406 C 889.917969 830.382812 795.0625 752.328125 682.355469 748.285156 L 662.957031 748.238281 C 528.96875 753.261719 420.519531 861.644531 415.730469 995.007812 L 415.65625 1014.429688 C 417.964844 1075.613281 442.070312 1133.992188 483.542969 1179.148438 C 530.394531 1229.910156 593.921875 1259.226562 662.417969 1261.671875 L 664.285156 1261.921875 L 681.945312 1261.714844 C 718.980469 1260.386719 754.566406 1251.152344 786.898438 1235.007812 C 778.324219 1234.050781 770.140625 1230.171875 763.457031 1223.84375 Z M 736.113281 776.585938 C 765.96875 784.917969 794.667969 799.484375 819.101562 818.722656 L 823.066406 821.832031 L 819.105469 824.953125 C 804.789062 836.25 789.175781 845.886719 772.691406 853.582031 L 768.695312 855.453125 L 767.253906 851.269531 C 757.808594 823.847656 745.585938 800.195312 731.921875 782.863281 L 724.378906 773.308594 Z M 681.847656 768.65625 L 687.167969 770.570312 C 712.035156 779.558594 734.320312 810.851562 749.921875 858.675781 L 751.148438 862.421875 L 747.402344 863.679688 C 727.605469 870.277344 706.960938 874.21875 686.046875 875.402344 L 681.855469 875.640625 L 681.855469 768.65625 Z M 657.664062 770.566406 L 662.984375 768.648438 L 662.984375 875.640625 L 658.792969 875.402344 C 637.882812 874.21875 617.238281 870.277344 597.429688 863.671875 L 593.683594 862.414062 L 594.914062 858.664062 C 610.53125 810.824219 632.824219 779.539062 657.664062 770.566406 Z M 525.746094 818.722656 C 553.941406 796.515625 586.167969 782.890625 620.496094 773.3125 C 601.664062 797.164062 587.527344 822.449219 577.59375 851.277344 L 576.152344 855.457031 L 572.152344 853.589844 C 555.660156 845.878906 540.039062 836.246094 525.742188 824.960938 L 521.785156 821.839844 Z M 435.746094 991.355469 C 439.019531 933.492188 463.394531 878.949219 504.378906 837.769531 L 506.925781 835.203125 L 509.710938 837.492188 C 527.261719 851.894531 546.648438 863.917969 567.34375 873.203125 L 570.414062 874.585938 L 569.558594 877.84375 C 562.183594 904.882812 558.105469 932.707031 555.914062 960.617188 C 555.71875 963.097656 554.085938 995.546875 554.15625 995.546875 L 435.507812 995.546875 Z M 497.140625 1164.664062 L 494.484375 1161.644531 C 460.710938 1123.316406 440.089844 1074.488281 436.089844 1023.660156 C 435.960938 1021.980469 435.507812 1014.425781 435.507812 1014.425781 L 554.15625 1014.425781 L 554.25 1018.300781 C 555.042969 1052.230469 558.847656 1084.914062 565.5625 1115.421875 L 566.246094 1118.523438 L 563.371094 1119.871094 C 540.335938 1130.671875 519.0625 1144.828125 500.125 1161.964844 Z M 608.730469 1233.382812 C 573.996094 1223.691406 541.386719 1205.832031 514.417969 1181.722656 L 511.105469 1178.757812 L 514.417969 1175.804688 C 530.285156 1161.621094 547.933594 1149.636719 566.882812 1140.210938 L 571.132812 1138.097656 L 572.464844 1142.652344 C 582.597656 1177.265625 596.585938 1206.46875 612.917969 1227.105469 L 620.488281 1236.667969 Z M 662.988281 1241.316406 L 657.6875 1239.417969 C 629.53125 1229.375 605.429688 1191.980469 589.828125 1134.128906 L 588.871094 1130.589844 L 592.320312 1129.355469 C 613.644531 1121.691406 636.015625 1117.152344 658.800781 1115.859375 L 662.992188 1115.621094 L 662.992188 1241.316406 Z M 662.988281 1095.769531 L 659.222656 1095.960938 C 635.054688 1097.199219 611.300781 1101.792969 588.617188 1109.644531 L 584.300781 1111.140625 L 583.421875 1106.65625 C 577.941406 1078.851562 574.800781 1049.179688 574.09375 1018.484375 L 573.992188 1014.421875 L 662.984375 1014.421875 L 662.984375 1095.769531 Z M 573.992188 995.539062 C 573.53125 995.539062 577.261719 925.597656 587.273438 885.757812 L 588.285156 881.574219 L 592.363281 882.914062 C 613.941406 889.957031 636.425781 894.121094 659.203125 895.28125 L 662.96875 895.476562 L 662.988281 995.539062 Z M 573.992188 995.539062 " fill-opacity="1" fill-rule="nonzero"/></g><path stroke-linecap="butt" transform="matrix(0.75, 0, 0, 0.75, -0.965174, -0.0124236)" fill="none" stroke-linejoin="miter" d="M 0.000439761 50.000944 L 1921.287056 50.000944 " stroke="#0d1f23" stroke-width="100" stroke-opacity="1" stroke-miterlimit="4"/><path stroke-linecap="butt" transform="matrix(0.75, 0, 0, 0.75, 0.0000292857, 1940.99984)" fill="none" stroke-linejoin="miter" d="M -0.0000390476 50.000217 L 1921.286577 50.000217 " stroke="#0d1f23" stroke-width="100" stroke-opacity="1" stroke-miterlimit="4"/><g clip-path="url(#0ff6cda9cd)"><g clip-path="url(#2163e8528e)"><path fill="#0d1f23" d="M 288.371094 -223.980469 L 1152.59375 -223.980469 L 1152.59375 298.957031 L 288.371094 298.957031 Z M 288.371094 -223.980469 " fill-opacity="1" fill-rule="nonzero"/></g></g><g clip-path="url(#fb33abf2b2)"><g clip-path="url(#9859eeaee0)"><path fill="#0d1f23" d="M 288.371094 1716.859375 L 1152.59375 1716.859375 L 1152.59375 2239.796875 L 288.371094 2239.796875 Z M 288.371094 1716.859375 " fill-opacity="1" fill-rule="nonzero"/></g></g><g fill="#f5f5fa" fill-opacity="1"><g transform="translate(482.868494, 119.237568)"><g><path d="M 93.171875 0 L 66.703125 0 L 66.703125 -25.4375 L 33.484375 -25.4375 L 33.484375 0 L 7.03125 0 L 7.03125 -63.0625 L 33.484375 -63.0625 L 33.484375 -37.578125 L 66.703125 -37.578125 L 66.703125 -63.0625 L 93.171875 -63.0625 Z M 93.171875 0 "/></g></g><g transform="translate(583.063798, 119.237568)"><g><path d="M 47.6875 1.359375 C 32.09375 1.359375 20.617188 -1.847656 13.265625 -8.265625 C 6.765625 -13.941406 3.515625 -21.691406 3.515625 -31.515625 C 3.515625 -41.296875 6.765625 -49.03125 13.265625 -54.71875 C 20.617188 -61.132812 32.09375 -64.34375 47.6875 -64.34375 C 63.269531 -64.34375 74.738281 -61.132812 82.09375 -54.71875 C 88.59375 -49.03125 91.84375 -41.296875 91.84375 -31.515625 C 91.84375 -21.691406 88.59375 -13.941406 82.09375 -8.265625 C 74.738281 -1.847656 63.269531 1.359375 47.6875 1.359375 Z M 47.6875 -15.5625 C 54.070312 -15.5625 58.757812 -17.390625 61.75 -21.046875 C 64.144531 -24.003906 65.34375 -27.492188 65.34375 -31.515625 C 65.34375 -35.523438 64.144531 -38.992188 61.75 -41.921875 C 58.757812 -45.617188 54.070312 -47.46875 47.6875 -47.46875 C 41.289062 -47.46875 36.585938 -45.617188 33.578125 -41.921875 C 31.171875 -38.992188 29.96875 -35.523438 29.96875 -31.515625 C 29.96875 -27.492188 31.171875 -24.003906 33.578125 -21.046875 C 36.585938 -17.390625 41.289062 -15.5625 47.6875 -15.5625 Z M 47.6875 -15.5625 "/></g></g><g transform="translate(678.425118, 119.237568)"><g><path d="M 60.5625 0 L 35.984375 0 L 0.65625 -63.015625 L 27.46875 -63.015625 L 48.296875 -17.96875 L 69.078125 -63.015625 L 95.890625 -63.015625 Z M 60.5625 0 "/></g></g><g transform="translate(774.972962, 119.237568)"><g><path d="M 82.96875 0 L 7.03125 0 L 7.03125 -63.0625 L 79.5 -63.0625 L 79.5 -47.46875 L 33.484375 -47.46875 L 33.484375 -37.578125 L 72.375 -37.578125 L 72.375 -25.4375 L 33.484375 -25.4375 L 33.484375 -15.59375 L 82.96875 -15.59375 Z M 82.96875 0 "/></g></g><g transform="translate(861.45733, 119.237568)"><g><path d="M 93.125 0 L 68.109375 0 C 66.972656 -1.582031 66.171875 -3.601562 65.703125 -6.0625 C 65.285156 -7.96875 64.664062 -9.835938 63.84375 -11.671875 C 63.03125 -13.503906 61.617188 -15.023438 59.609375 -16.234375 C 57.609375 -17.453125 54.628906 -18.101562 50.671875 -18.1875 L 33.484375 -18.1875 L 33.484375 0 L 7.03125 0 L 7.03125 -63.0625 L 50.046875 -63.0625 C 60.335938 -63.0625 68.640625 -62.289062 74.953125 -60.75 C 81.265625 -59.21875 85.867188 -56.800781 88.765625 -53.5 C 91.671875 -50.207031 93.125 -45.910156 93.125 -40.609375 C 93.125 -36.179688 92.117188 -32.457031 90.109375 -29.4375 C 88.097656 -26.425781 84.925781 -24.039062 80.59375 -22.28125 C 84.78125 -20.550781 87.492188 -18.476562 88.734375 -16.0625 C 89.984375 -13.644531 90.757812 -10.988281 91.0625 -8.09375 C 91.351562 -5.507812 92.039062 -2.8125 93.125 0 Z M 33.484375 -33.75 L 48.609375 -33.796875 C 52.828125 -33.796875 56.148438 -33.984375 58.578125 -34.359375 C 61.015625 -34.742188 62.8125 -35.265625 63.96875 -35.921875 C 65.125 -36.585938 65.863281 -37.320312 66.1875 -38.125 C 66.507812 -38.925781 66.671875 -39.753906 66.671875 -40.609375 C 66.671875 -41.453125 66.507812 -42.285156 66.1875 -43.109375 C 65.863281 -43.929688 65.125 -44.671875 63.96875 -45.328125 C 62.8125 -45.984375 61.015625 -46.503906 58.578125 -46.890625 C 56.148438 -47.273438 52.828125 -47.46875 48.609375 -47.46875 L 33.484375 -47.46875 Z M 33.484375 -33.75 "/></g></g></g><g fill="#f5f5fa" fill-opacity="1"><g transform="translate(535.567708, 245.237558)"><g><path d="M 93.171875 0 L 66.703125 0 L 66.703125 -25.4375 L 33.484375 -25.4375 L 33.484375 0 L 7.03125 0 L 7.03125 -63.0625 L 33.484375 -63.0625 L 33.484375 -37.578125 L 66.703125 -37.578125 L 66.703125 -63.0625 L 93.171875 -63.0625 Z M 93.171875 0 "/></g></g><g transform="translate(635.763012, 245.237558)"><g><path d="M 82.96875 0 L 7.03125 0 L 7.03125 -63.0625 L 79.5 -63.0625 L 79.5 -47.46875 L 33.484375 -47.46875 L 33.484375 -37.578125 L 72.375 -37.578125 L 72.375 -25.4375 L 33.484375 -25.4375 L 33.484375 -15.59375 L 82.96875 -15.59375 Z M 82.96875 0 "/></g></g><g transform="translate(722.24738, 245.237558)"><g><path d="M 93.125 0 L 68.109375 0 C 66.972656 -1.582031 66.171875 -3.601562 65.703125 -6.0625 C 65.285156 -7.96875 64.664062 -9.835938 63.84375 -11.671875 C 63.03125 -13.503906 61.617188 -15.023438 59.609375 -16.234375 C 57.609375 -17.453125 54.628906 -18.101562 50.671875 -18.1875 L 33.484375 -18.1875 L 33.484375 0 L 7.03125 0 L 7.03125 -63.0625 L 50.046875 -63.0625 C 60.335938 -63.0625 68.640625 -62.289062 74.953125 -60.75 C 81.265625 -59.21875 85.867188 -56.800781 88.765625 -53.5 C 91.671875 -50.207031 93.125 -45.910156 93.125 -40.609375 C 93.125 -36.179688 92.117188 -32.457031 90.109375 -29.4375 C 88.097656 -26.425781 84.925781 -24.039062 80.59375 -22.28125 C 84.78125 -20.550781 87.492188 -18.476562 88.734375 -16.0625 C 89.984375 -13.644531 90.757812 -10.988281 91.0625 -8.09375 C 91.351562 -5.507812 92.039062 -2.8125 93.125 0 Z M 33.484375 -33.75 L 48.609375 -33.796875 C 52.828125 -33.796875 56.148438 -33.984375 58.578125 -34.359375 C 61.015625 -34.742188 62.8125 -35.265625 63.96875 -35.921875 C 65.125 -36.585938 65.863281 -37.320312 66.1875 -38.125 C 66.507812 -38.925781 66.671875 -39.753906 66.671875 -40.609375 C 66.671875 -41.453125 66.507812 -42.285156 66.1875 -43.109375 C 65.863281 -43.929688 65.125 -44.671875 63.96875 -45.328125 C 62.8125 -45.984375 61.015625 -46.503906 58.578125 -46.890625 C 56.148438 -47.273438 52.828125 -47.46875 48.609375 -47.46875 L 33.484375 -47.46875 Z M 33.484375 -33.75 "/></g></g><g transform="translate(818.883114, 245.237558)"><g><path d="M 82.96875 0 L 7.03125 0 L 7.03125 -63.0625 L 79.5 -63.0625 L 79.5 -47.46875 L 33.484375 -47.46875 L 33.484375 -37.578125 L 72.375 -37.578125 L 72.375 -25.4375 L 33.484375 -25.4375 L 33.484375 -15.59375 L 82.96875 -15.59375 Z M 82.96875 0 "/></g></g></g><g fill="#f5f5fa" fill-opacity="1"><g transform="translate(958.087222, 1901.079923)"><g><path d="M -93.171875 0 L -66.703125 0 L -66.703125 25.4375 L -33.484375 25.4375 L -33.484375 0 L -7.03125 0 L -7.03125 63.0625 L -33.484375 63.0625 L -33.484375 37.578125 L -66.703125 37.578125 L -66.703125 63.0625 L -93.171875 63.0625 Z M -93.171875 0 "/></g></g><g transform="translate(857.891918, 1901.079923)"><g><path d="M -47.6875 -1.359375 C -32.09375 -1.359375 -20.617188 1.847656 -13.265625 8.265625 C -6.765625 13.941406 -3.515625 21.691406 -3.515625 31.515625 C -3.515625 41.296875 -6.765625 49.03125 -13.265625 54.71875 C -20.617188 61.132812 -32.09375 64.34375 -47.6875 64.34375 C -63.269531 64.34375 -74.738281 61.132812 -82.09375 54.71875 C -88.59375 49.03125 -91.84375 41.296875 -91.84375 31.515625 C -91.84375 21.691406 -88.59375 13.941406 -82.09375 8.265625 C -74.738281 1.847656 -63.269531 -1.359375 -47.6875 -1.359375 Z M -47.6875 15.5625 C -54.070312 15.5625 -58.757812 17.390625 -61.75 21.046875 C -64.144531 24.003906 -65.34375 27.492188 -65.34375 31.515625 C -65.34375 35.523438 -64.144531 38.992188 -61.75 41.921875 C -58.757812 45.617188 -54.070312 47.46875 -47.6875 47.46875 C -41.289062 47.46875 -36.585938 45.617188 -33.578125 41.921875 C -31.171875 38.992188 -29.96875 35.523438 -29.96875 31.515625 C -29.96875 27.492188 -31.171875 24.003906 -33.578125 21.046875 C -36.585938 17.390625 -41.289062 15.5625 -47.6875 15.5625 Z M -47.6875 15.5625 "/></g></g><g transform="translate(762.530598, 1901.079923)"><g><path d="M -60.5625 0 L -35.984375 0 L -0.65625 63.015625 L -27.46875 63.015625 L -48.296875 17.96875 L -69.078125 63.015625 L -95.890625 63.015625 Z M -60.5625 0 "/></g></g><g transform="translate(665.982754, 1901.079923)"><g><path d="M -82.96875 0 L -7.03125 0 L -7.03125 63.0625 L -79.5 63.0625 L -79.5 47.46875 L -33.484375 47.46875 L -33.484375 37.578125 L -72.375 37.578125 L -72.375 25.4375 L -33.484375 25.4375 L -33.484375 15.59375 L -82.96875 15.59375 Z M -82.96875 0 "/></g></g><g transform="translate(579.498386, 1901.079923)"><g><path d="M -93.125 0 L -68.109375 0 C -66.972656 1.582031 -66.171875 3.601562 -65.703125 6.0625 C -65.285156 7.96875 -64.664062 9.835938 -63.84375 11.671875 C -63.03125 13.503906 -61.617188 15.023438 -59.609375 16.234375 C -57.609375 17.453125 -54.628906 18.101562 -50.671875 18.1875 L -33.484375 18.1875 L -33.484375 0 L -7.03125 0 L -7.03125 63.0625 L -50.046875 63.0625 C -60.335938 63.0625 -68.640625 62.289062 -74.953125 60.75 C -81.265625 59.21875 -85.867188 56.800781 -88.765625 53.5 C -91.671875 50.207031 -93.125 45.910156 -93.125 40.609375 C -93.125 36.179688 -92.117188 32.457031 -90.109375 29.4375 C -88.097656 26.425781 -84.925781 24.039062 -80.59375 22.28125 C -84.78125 20.550781 -87.492188 18.476562 -88.734375 16.0625 C -89.984375 13.644531 -90.757812 10.988281 -91.0625 8.09375 C -91.351562 5.507812 -92.039062 2.8125 -93.125 0 Z M -33.484375 33.75 L -48.609375 33.796875 C -52.828125 33.796875 -56.148438 33.984375 -58.578125 34.359375 C -61.015625 34.742188 -62.8125 35.265625 -63.96875 35.921875 C -65.125 36.585938 -65.863281 37.320312 -66.1875 38.125 C -66.507812 38.925781 -66.671875 39.753906 -66.671875 40.609375 C -66.671875 41.453125 -66.507812 42.285156 -66.1875 43.109375 C -65.863281 43.929688 -65.125 44.671875 -63.96875 45.328125 C -62.8125 45.984375 -61.015625 46.503906 -58.578125 46.890625 C -56.148438 47.273438 -52.828125 47.46875 -48.609375 47.46875 L -33.484375 47.46875 Z M -33.484375 33.75 "/></g></g></g><g fill="#f5f5fa" fill-opacity="1"><g transform="translate(905.388008, 1775.079934)"><g><path d="M -93.171875 0 L -66.703125 0 L -66.703125 25.4375 L -33.484375 25.4375 L -33.484375 0 L -7.03125 0 L -7.03125 63.0625 L -33.484375 63.0625 L -33.484375 37.578125 L -66.703125 37.578125 L -66.703125 63.0625 L -93.171875 63.0625 Z M -93.171875 0 "/></g></g><g transform="translate(805.192704, 1775.079934)"><g><path d="M -82.96875 0 L -7.03125 0 L -7.03125 63.0625 L -79.5 63.0625 L -79.5 47.46875 L -33.484375 47.46875 L -33.484375 37.578125 L -72.375 37.578125 L -72.375 25.4375 L -33.484375 25.4375 L -33.484375 15.59375 L -82.96875 15.59375 Z M -82.96875 0 "/></g></g><g transform="translate(718.708336, 1775.079934)"><g><path d="M -93.125 0 L -68.109375 0 C -66.972656 1.582031 -66.171875 3.601562 -65.703125 6.0625 C -65.285156 7.96875 -64.664062 9.835938 -63.84375 11.671875 C -63.03125 13.503906 -61.617188 15.023438 -59.609375 16.234375 C -57.609375 17.453125 -54.628906 18.101562 -50.671875 18.1875 L -33.484375 18.1875 L -33.484375 0 L -7.03125 0 L -7.03125 63.0625 L -50.046875 63.0625 C -60.335938 63.0625 -68.640625 62.289062 -74.953125 60.75 C -81.265625 59.21875 -85.867188 56.800781 -88.765625 53.5 C -91.671875 50.207031 -93.125 45.910156 -93.125 40.609375 C -93.125 36.179688 -92.117188 32.457031 -90.109375 29.4375 C -88.097656 26.425781 -84.925781 24.039062 -80.59375 22.28125 C -84.78125 20.550781 -87.492188 18.476562 -88.734375 16.0625 C -89.984375 13.644531 -90.757812 10.988281 -91.0625 8.09375 C -91.351562 5.507812 -92.039062 2.8125 -93.125 0 Z M -33.484375 33.75 L -48.609375 33.796875 C -52.828125 33.796875 -56.148438 33.984375 -58.578125 34.359375 C -61.015625 34.742188 -62.8125 35.265625 -63.96875 35.921875 C -65.125 36.585938 -65.863281 37.320312 -66.1875 38.125 C -66.507812 38.925781 -66.671875 39.753906 -66.671875 40.609375 C -66.671875 41.453125 -66.507812 42.285156 -66.1875 43.109375 C -65.863281 43.929688 -65.125 44.671875 -63.96875 45.328125 C -62.8125 45.984375 -61.015625 46.503906 -58.578125 46.890625 C -56.148438 47.273438 -52.828125 47.46875 -48.609375 47.46875 L -33.484375 47.46875 Z M -33.484375 33.75 "/></g></g><g transform="translate(622.072602, 1775.079934)"><g><path d="M -82.96875 0 L -7.03125 0 L -7.03125 63.0625 L -79.5 63.0625 L -79.5 47.46875 L -33.484375 47.46875 L -33.484375 37.578125 L -72.375 37.578125 L -72.375 25.4375 L -33.484375 25.4375 L -33.484375 15.59375 L -82.96875 15.59375 Z M -82.96875 0 "/></g></g></g></svg>