<svg xmlns="http://www.w3.org/2000/svg" xmlns:xlink="http://www.w3.org/1999/xlink" width="1920" zoomAndPan="magnify" viewBox="0 0 1440 2015.999918" height="2688" preserveAspectRatio="xMidYMid meet" version="1.0"><defs><g/><linearGradient x1="1" gradientTransform="matrix(0, 2021.999918, -2021.999918, 0, 1731.482659, -6)" y1="0.5" x2="0.00296736" gradientUnits="userSpaceOnUse" y2="0.5" id="d7848898d2"><stop stop-opacity="1" stop-color="rgb(7.499695%, 17.999268%, 20.799255%)" offset="0"/><stop stop-opacity="1" stop-color="rgb(7.737732%, 18.202209%, 20.99762%)" offset="0.00390625"/><stop stop-opacity="1" stop-color="rgb(7.975769%, 18.405151%, 21.195984%)" offset="0.0078125"/><stop stop-opacity="1" stop-color="rgb(8.213806%, 18.608093%, 21.394348%)" offset="0.0117187"/><stop stop-opacity="1" stop-color="rgb(8.451843%, 18.812561%, 21.594238%)" offset="0.015625"/><stop stop-opacity="1" stop-color="rgb(8.688354%, 19.015503%, 21.792603%)" offset="0.0195312"/><stop stop-opacity="1" stop-color="rgb(8.926392%, 19.218445%, 21.990967%)" offset="0.0234375"/><stop stop-opacity="1" stop-color="rgb(9.164429%, 19.421387%, 22.189331%)" offset="0.0273438"/><stop stop-opacity="1" stop-color="rgb(9.402466%, 19.625854%, 22.387695%)" offset="0.03125"/><stop stop-opacity="1" stop-color="rgb(9.640503%, 19.828796%, 22.58606%)" offset="0.0351562"/><stop stop-opacity="1" stop-color="rgb(9.87854%, 20.031738%, 22.78595%)" offset="0.0390625"/><stop stop-opacity="1" stop-color="rgb(10.116577%, 20.23468%, 22.984314%)" offset="0.0429687"/><stop stop-opacity="1" stop-color="rgb(10.354614%, 20.439148%, 23.182678%)" offset="0.046875"/><stop stop-opacity="1" stop-color="rgb(10.592651%, 20.64209%, 23.381042%)" offset="0.0507812"/><stop stop-opacity="1" stop-color="rgb(10.830688%, 20.845032%, 23.579407%)" offset="0.0546875"/><stop stop-opacity="1" stop-color="rgb(11.068726%, 21.047974%, 23.777771%)" offset="0.0585938"/><stop stop-opacity="1" stop-color="rgb(11.306763%, 21.252441%, 23.977661%)" offset="0.0625"/><stop stop-opacity="1" stop-color="rgb(11.5448%, 21.455383%, 24.176025%)" offset="0.0664062"/><stop stop-opacity="1" stop-color="rgb(11.782837%, 21.658325%, 24.37439%)" offset="0.0703125"/><stop stop-opacity="1" stop-color="rgb(12.020874%, 21.861267%, 24.572754%)" offset="0.0742187"/><stop stop-opacity="1" stop-color="rgb(12.258911%, 22.065735%, 24.771118%)" offset="0.078125"/><stop stop-opacity="1" stop-color="rgb(12.496948%, 22.268677%, 24.969482%)" offset="0.0820312"/><stop stop-opacity="1" stop-color="rgb(12.734985%, 22.471619%, 25.169373%)" offset="0.0859375"/><stop stop-opacity="1" stop-color="rgb(12.973022%, 22.674561%, 25.367737%)" offset="0.0898437"/><stop stop-opacity="1" stop-color="rgb(13.21106%, 22.879028%, 25.566101%)" offset="0.09375"/><stop stop-opacity="1" stop-color="rgb(13.447571%, 23.08197%, 25.764465%)" offset="0.0976562"/><stop stop-opacity="1" stop-color="rgb(13.685608%, 23.284912%, 25.96283%)" offset="0.101562"/><stop stop-opacity="1" stop-color="rgb(13.923645%, 23.487854%, 26.161194%)" offset="0.105469"/><stop stop-opacity="1" stop-color="rgb(14.161682%, 23.692322%, 26.361084%)" offset="0.109375"/><stop stop-opacity="1" stop-color="rgb(14.399719%, 23.895264%, 26.559448%)" offset="0.113281"/><stop stop-opacity="1" stop-color="rgb(14.637756%, 24.098206%, 26.757812%)" offset="0.117188"/><stop stop-opacity="1" stop-color="rgb(14.875793%, 24.301147%, 26.956177%)" offset="0.121094"/><stop stop-opacity="1" stop-color="rgb(15.113831%, 24.505615%, 27.156067%)" offset="0.125"/><stop stop-opacity="1" stop-color="rgb(15.351868%, 24.708557%, 27.354431%)" offset="0.128906"/><stop stop-opacity="1" stop-color="rgb(15.589905%, 24.911499%, 27.552795%)" offset="0.132812"/><stop stop-opacity="1" stop-color="rgb(15.827942%, 25.114441%, 27.75116%)" offset="0.136719"/><stop stop-opacity="1" stop-color="rgb(16.065979%, 25.317383%, 27.949524%)" offset="0.140625"/><stop stop-opacity="1" stop-color="rgb(16.304016%, 25.520325%, 28.147888%)" offset="0.144531"/><stop stop-opacity="1" stop-color="rgb(16.542053%, 25.724792%, 28.347778%)" offset="0.148437"/><stop stop-opacity="1" stop-color="rgb(16.78009%, 25.927734%, 28.546143%)" offset="0.152344"/><stop stop-opacity="1" stop-color="rgb(17.018127%, 26.130676%, 28.744507%)" offset="0.15625"/><stop stop-opacity="1" stop-color="rgb(17.256165%, 26.333618%, 28.942871%)" offset="0.160156"/><stop stop-opacity="1" stop-color="rgb(17.494202%, 26.538086%, 29.141235%)" offset="0.164062"/><stop stop-opacity="1" stop-color="rgb(17.732239%, 26.741028%, 29.3396%)" offset="0.167969"/><stop stop-opacity="1" stop-color="rgb(17.970276%, 26.94397%, 29.53949%)" offset="0.171875"/><stop stop-opacity="1" stop-color="rgb(18.206787%, 27.146912%, 29.737854%)" offset="0.175781"/><stop stop-opacity="1" stop-color="rgb(18.444824%, 27.351379%, 29.936218%)" offset="0.179687"/><stop stop-opacity="1" stop-color="rgb(18.682861%, 27.554321%, 30.134583%)" offset="0.183594"/><stop stop-opacity="1" stop-color="rgb(18.920898%, 27.757263%, 30.332947%)" offset="0.1875"/><stop stop-opacity="1" stop-color="rgb(19.158936%, 27.960205%, 30.531311%)" offset="0.191406"/><stop stop-opacity="1" stop-color="rgb(19.396973%, 28.164673%, 30.731201%)" offset="0.195312"/><stop stop-opacity="1" stop-color="rgb(19.63501%, 28.367615%, 30.929565%)" offset="0.199219"/><stop stop-opacity="1" stop-color="rgb(19.873047%, 28.570557%, 31.12793%)" offset="0.203125"/><stop stop-opacity="1" stop-color="rgb(20.111084%, 28.773499%, 31.326294%)" offset="0.207031"/><stop stop-opacity="1" stop-color="rgb(20.349121%, 28.977966%, 31.524658%)" offset="0.210938"/><stop stop-opacity="1" stop-color="rgb(20.587158%, 29.180908%, 31.723022%)" offset="0.214844"/><stop stop-opacity="1" stop-color="rgb(20.825195%, 29.38385%, 31.922913%)" offset="0.21875"/><stop stop-opacity="1" stop-color="rgb(21.063232%, 29.586792%, 32.121277%)" offset="0.222656"/><stop stop-opacity="1" stop-color="rgb(21.30127%, 29.79126%, 32.319641%)" offset="0.226562"/><stop stop-opacity="1" stop-color="rgb(21.539307%, 29.994202%, 32.518005%)" offset="0.230469"/><stop stop-opacity="1" stop-color="rgb(21.777344%, 30.197144%, 32.71637%)" offset="0.234375"/><stop stop-opacity="1" stop-color="rgb(22.015381%, 30.400085%, 32.914734%)" offset="0.238281"/><stop stop-opacity="1" stop-color="rgb(22.253418%, 30.604553%, 33.114624%)" offset="0.242188"/><stop stop-opacity="1" stop-color="rgb(22.491455%, 30.807495%, 33.312988%)" offset="0.246094"/><stop stop-opacity="1" stop-color="rgb(22.729492%, 31.010437%, 33.511353%)" offset="0.25"/><stop stop-opacity="1" stop-color="rgb(22.967529%, 31.213379%, 33.709717%)" offset="0.253906"/><stop stop-opacity="1" stop-color="rgb(23.205566%, 31.417847%, 33.908081%)" offset="0.257812"/><stop stop-opacity="1" stop-color="rgb(23.442078%, 31.620789%, 34.106445%)" offset="0.261719"/><stop stop-opacity="1" stop-color="rgb(23.680115%, 31.82373%, 34.306335%)" offset="0.265625"/><stop stop-opacity="1" stop-color="rgb(23.918152%, 32.026672%, 34.5047%)" offset="0.269531"/><stop stop-opacity="1" stop-color="rgb(24.156189%, 32.229614%, 34.703064%)" offset="0.273437"/><stop stop-opacity="1" stop-color="rgb(24.394226%, 32.432556%, 34.901428%)" offset="0.277344"/><stop stop-opacity="1" stop-color="rgb(24.632263%, 32.637024%, 35.099792%)" offset="0.28125"/><stop stop-opacity="1" stop-color="rgb(24.8703%, 32.839966%, 35.298157%)" offset="0.285156"/><stop stop-opacity="1" stop-color="rgb(25.108337%, 33.042908%, 35.498047%)" offset="0.289062"/><stop stop-opacity="1" stop-color="rgb(25.346375%, 33.24585%, 35.696411%)" offset="0.292969"/><stop stop-opacity="1" stop-color="rgb(25.584412%, 33.450317%, 35.894775%)" offset="0.296875"/><stop stop-opacity="1" stop-color="rgb(25.822449%, 33.653259%, 36.09314%)" offset="0.300781"/><stop stop-opacity="1" stop-color="rgb(26.060486%, 33.856201%, 36.291504%)" offset="0.304687"/><stop stop-opacity="1" stop-color="rgb(26.298523%, 34.059143%, 36.489868%)" offset="0.308594"/><stop stop-opacity="1" stop-color="rgb(26.53656%, 34.263611%, 36.689758%)" offset="0.3125"/><stop stop-opacity="1" stop-color="rgb(26.774597%, 34.466553%, 36.888123%)" offset="0.316406"/><stop stop-opacity="1" stop-color="rgb(27.012634%, 34.669495%, 37.086487%)" offset="0.320312"/><stop stop-opacity="1" stop-color="rgb(27.250671%, 34.872437%, 37.284851%)" offset="0.324219"/><stop stop-opacity="1" stop-color="rgb(27.488708%, 35.076904%, 37.483215%)" offset="0.328125"/><stop stop-opacity="1" stop-color="rgb(27.726746%, 35.279846%, 37.68158%)" offset="0.332031"/><stop stop-opacity="1" stop-color="rgb(27.964783%, 35.482788%, 37.88147%)" offset="0.335937"/><stop stop-opacity="1" stop-color="rgb(28.201294%, 35.68573%, 38.079834%)" offset="0.339844"/><stop stop-opacity="1" stop-color="rgb(28.439331%, 35.890198%, 38.278198%)" offset="0.34375"/><stop stop-opacity="1" stop-color="rgb(28.677368%, 36.09314%, 38.476562%)" offset="0.347656"/><stop stop-opacity="1" stop-color="rgb(28.915405%, 36.296082%, 38.676453%)" offset="0.351562"/><stop stop-opacity="1" stop-color="rgb(29.153442%, 36.499023%, 38.874817%)" offset="0.355469"/><stop stop-opacity="1" stop-color="rgb(29.391479%, 36.703491%, 39.073181%)" offset="0.359375"/><stop stop-opacity="1" stop-color="rgb(29.629517%, 36.906433%, 39.271545%)" offset="0.363281"/><stop stop-opacity="1" stop-color="rgb(29.867554%, 37.109375%, 39.46991%)" offset="0.367187"/><stop stop-opacity="1" stop-color="rgb(30.105591%, 37.312317%, 39.668274%)" offset="0.371094"/><stop stop-opacity="1" stop-color="rgb(30.343628%, 37.516785%, 39.868164%)" offset="0.375"/><stop stop-opacity="1" stop-color="rgb(30.581665%, 37.719727%, 40.066528%)" offset="0.378906"/><stop stop-opacity="1" stop-color="rgb(30.819702%, 37.922668%, 40.264893%)" offset="0.382812"/><stop stop-opacity="1" stop-color="rgb(31.057739%, 38.12561%, 40.463257%)" offset="0.386719"/><stop stop-opacity="1" stop-color="rgb(31.295776%, 38.330078%, 40.661621%)" offset="0.390625"/><stop stop-opacity="1" stop-color="rgb(31.533813%, 38.53302%, 40.859985%)" offset="0.394531"/><stop stop-opacity="1" stop-color="rgb(31.771851%, 38.735962%, 41.059875%)" offset="0.398438"/><stop stop-opacity="1" stop-color="rgb(32.009888%, 38.938904%, 41.25824%)" offset="0.402344"/><stop stop-opacity="1" stop-color="rgb(32.247925%, 39.141846%, 41.456604%)" offset="0.40625"/><stop stop-opacity="1" stop-color="rgb(32.485962%, 39.344788%, 41.654968%)" offset="0.410156"/><stop stop-opacity="1" stop-color="rgb(32.723999%, 39.549255%, 41.853333%)" offset="0.414062"/><stop stop-opacity="1" stop-color="rgb(32.962036%, 39.752197%, 42.051697%)" offset="0.417969"/><stop stop-opacity="1" stop-color="rgb(33.200073%, 39.955139%, 42.251587%)" offset="0.421875"/><stop stop-opacity="1" stop-color="rgb(33.436584%, 40.158081%, 42.449951%)" offset="0.425781"/><stop stop-opacity="1" stop-color="rgb(33.674622%, 40.362549%, 42.648315%)" offset="0.429688"/><stop stop-opacity="1" stop-color="rgb(33.912659%, 40.565491%, 42.84668%)" offset="0.433594"/><stop stop-opacity="1" stop-color="rgb(34.150696%, 40.768433%, 43.045044%)" offset="0.4375"/><stop stop-opacity="1" stop-color="rgb(34.388733%, 40.971375%, 43.243408%)" offset="0.441406"/><stop stop-opacity="1" stop-color="rgb(34.62677%, 41.175842%, 43.443298%)" offset="0.445312"/><stop stop-opacity="1" stop-color="rgb(34.864807%, 41.378784%, 43.641663%)" offset="0.449219"/><stop stop-opacity="1" stop-color="rgb(35.102844%, 41.581726%, 43.840027%)" offset="0.453125"/><stop stop-opacity="1" stop-color="rgb(35.340881%, 41.784668%, 44.038391%)" offset="0.457031"/><stop stop-opacity="1" stop-color="rgb(35.578918%, 41.989136%, 44.236755%)" offset="0.460938"/><stop stop-opacity="1" stop-color="rgb(35.816956%, 42.192078%, 44.43512%)" offset="0.464844"/><stop stop-opacity="1" stop-color="rgb(36.054993%, 42.39502%, 44.63501%)" offset="0.46875"/><stop stop-opacity="1" stop-color="rgb(36.29303%, 42.597961%, 44.833374%)" offset="0.472656"/><stop stop-opacity="1" stop-color="rgb(36.531067%, 42.802429%, 45.031738%)" offset="0.476562"/><stop stop-opacity="1" stop-color="rgb(36.769104%, 43.005371%, 45.230103%)" offset="0.480469"/><stop stop-opacity="1" stop-color="rgb(37.007141%, 43.208313%, 45.428467%)" offset="0.484375"/><stop stop-opacity="1" stop-color="rgb(37.245178%, 43.411255%, 45.626831%)" offset="0.488281"/><stop stop-opacity="1" stop-color="rgb(37.483215%, 43.615723%, 45.826721%)" offset="0.492188"/><stop stop-opacity="1" stop-color="rgb(37.721252%, 43.818665%, 46.025085%)" offset="0.496094"/><stop stop-opacity="1" stop-color="rgb(37.95929%, 44.021606%, 46.22345%)" offset="0.5"/><stop stop-opacity="1" stop-color="rgb(38.195801%, 44.224548%, 46.421814%)" offset="0.503906"/><stop stop-opacity="1" stop-color="rgb(38.433838%, 44.429016%, 46.620178%)" offset="0.507812"/><stop stop-opacity="1" stop-color="rgb(38.671875%, 44.631958%, 46.818542%)" offset="0.511719"/><stop stop-opacity="1" stop-color="rgb(38.909912%, 44.8349%, 47.018433%)" offset="0.515625"/><stop stop-opacity="1" stop-color="rgb(39.147949%, 45.037842%, 47.216797%)" offset="0.519531"/><stop stop-opacity="1" stop-color="rgb(39.385986%, 45.24231%, 47.415161%)" offset="0.523437"/><stop stop-opacity="1" stop-color="rgb(39.624023%, 45.445251%, 47.613525%)" offset="0.527344"/><stop stop-opacity="1" stop-color="rgb(39.862061%, 45.648193%, 47.81189%)" offset="0.53125"/><stop stop-opacity="1" stop-color="rgb(40.100098%, 45.851135%, 48.010254%)" offset="0.535156"/><stop stop-opacity="1" stop-color="rgb(40.338135%, 46.054077%, 48.210144%)" offset="0.539062"/><stop stop-opacity="1" stop-color="rgb(40.576172%, 46.257019%, 48.408508%)" offset="0.542969"/><stop stop-opacity="1" stop-color="rgb(40.814209%, 46.461487%, 48.606873%)" offset="0.546875"/><stop stop-opacity="1" stop-color="rgb(41.052246%, 46.664429%, 48.805237%)" offset="0.550781"/><stop stop-opacity="1" stop-color="rgb(41.290283%, 46.867371%, 49.003601%)" offset="0.554687"/><stop stop-opacity="1" stop-color="rgb(41.52832%, 47.070312%, 49.201965%)" offset="0.558594"/><stop stop-opacity="1" stop-color="rgb(41.766357%, 47.27478%, 49.401855%)" offset="0.5625"/><stop stop-opacity="1" stop-color="rgb(42.004395%, 47.477722%, 49.60022%)" offset="0.566406"/><stop stop-opacity="1" stop-color="rgb(42.242432%, 47.680664%, 49.798584%)" offset="0.570312"/><stop stop-opacity="1" stop-color="rgb(42.480469%, 47.883606%, 49.996948%)" offset="0.574219"/><stop stop-opacity="1" stop-color="rgb(42.718506%, 48.088074%, 50.196838%)" offset="0.578125"/><stop stop-opacity="1" stop-color="rgb(42.955017%, 48.291016%, 50.395203%)" offset="0.582031"/><stop stop-opacity="1" stop-color="rgb(43.193054%, 48.493958%, 50.593567%)" offset="0.585937"/><stop stop-opacity="1" stop-color="rgb(43.431091%, 48.696899%, 50.791931%)" offset="0.589844"/><stop stop-opacity="1" stop-color="rgb(43.669128%, 48.901367%, 50.990295%)" offset="0.59375"/><stop stop-opacity="1" stop-color="rgb(43.907166%, 49.104309%, 51.18866%)" offset="0.597656"/><stop stop-opacity="1" stop-color="rgb(44.145203%, 49.307251%, 51.38855%)" offset="0.601562"/><stop stop-opacity="1" stop-color="rgb(44.38324%, 49.510193%, 51.586914%)" offset="0.605469"/><stop stop-opacity="1" stop-color="rgb(44.621277%, 49.714661%, 51.785278%)" offset="0.609375"/><stop stop-opacity="1" stop-color="rgb(44.859314%, 49.917603%, 51.983643%)" offset="0.613281"/><stop stop-opacity="1" stop-color="rgb(45.097351%, 50.120544%, 52.182007%)" offset="0.617187"/><stop stop-opacity="1" stop-color="rgb(45.335388%, 50.323486%, 52.380371%)" offset="0.621094"/><stop stop-opacity="1" stop-color="rgb(45.573425%, 50.527954%, 52.580261%)" offset="0.625"/><stop stop-opacity="1" stop-color="rgb(45.811462%, 50.730896%, 52.778625%)" offset="0.628906"/><stop stop-opacity="1" stop-color="rgb(46.0495%, 50.933838%, 52.97699%)" offset="0.632812"/><stop stop-opacity="1" stop-color="rgb(46.287537%, 51.13678%, 53.175354%)" offset="0.636719"/><stop stop-opacity="1" stop-color="rgb(46.525574%, 51.341248%, 53.373718%)" offset="0.640625"/><stop stop-opacity="1" stop-color="rgb(46.763611%, 51.544189%, 53.572083%)" offset="0.644531"/><stop stop-opacity="1" stop-color="rgb(47.001648%, 51.747131%, 53.771973%)" offset="0.648437"/><stop stop-opacity="1" stop-color="rgb(47.239685%, 51.950073%, 53.970337%)" offset="0.652344"/><stop stop-opacity="1" stop-color="rgb(47.477722%, 52.154541%, 54.168701%)" offset="0.65625"/><stop stop-opacity="1" stop-color="rgb(47.715759%, 52.357483%, 54.367065%)" offset="0.660156"/><stop stop-opacity="1" stop-color="rgb(47.953796%, 52.560425%, 54.56543%)" offset="0.664062"/><stop stop-opacity="1" stop-color="rgb(48.190308%, 52.763367%, 54.763794%)" offset="0.667969"/><stop stop-opacity="1" stop-color="rgb(48.428345%, 52.966309%, 54.963684%)" offset="0.671875"/><stop stop-opacity="1" stop-color="rgb(48.666382%, 53.16925%, 55.162048%)" offset="0.675781"/><stop stop-opacity="1" stop-color="rgb(48.904419%, 53.373718%, 55.360413%)" offset="0.679687"/><stop stop-opacity="1" stop-color="rgb(49.142456%, 53.57666%, 55.558777%)" offset="0.683594"/><stop stop-opacity="1" stop-color="rgb(49.380493%, 53.779602%, 55.757141%)" offset="0.6875"/><stop stop-opacity="1" stop-color="rgb(49.61853%, 53.982544%, 55.955505%)" offset="0.691406"/><stop stop-opacity="1" stop-color="rgb(49.856567%, 54.187012%, 56.155396%)" offset="0.695312"/><stop stop-opacity="1" stop-color="rgb(50.094604%, 54.389954%, 56.35376%)" offset="0.699219"/><stop stop-opacity="1" stop-color="rgb(50.332642%, 54.592896%, 56.552124%)" offset="0.703125"/><stop stop-opacity="1" stop-color="rgb(50.570679%, 54.795837%, 56.750488%)" offset="0.707031"/><stop stop-opacity="1" stop-color="rgb(50.808716%, 55.000305%, 56.948853%)" offset="0.710937"/><stop stop-opacity="1" stop-color="rgb(51.046753%, 55.203247%, 57.147217%)" offset="0.714844"/><stop stop-opacity="1" stop-color="rgb(51.28479%, 55.406189%, 57.347107%)" offset="0.71875"/><stop stop-opacity="1" stop-color="rgb(51.522827%, 55.609131%, 57.545471%)" offset="0.722656"/><stop stop-opacity="1" stop-color="rgb(51.760864%, 55.813599%, 57.743835%)" offset="0.726562"/><stop stop-opacity="1" stop-color="rgb(51.998901%, 56.016541%, 57.9422%)" offset="0.730469"/><stop stop-opacity="1" stop-color="rgb(52.236938%, 56.219482%, 58.140564%)" offset="0.734375"/><stop stop-opacity="1" stop-color="rgb(52.474976%, 56.422424%, 58.338928%)" offset="0.738281"/><stop stop-opacity="1" stop-color="rgb(52.713013%, 56.626892%, 58.538818%)" offset="0.742187"/><stop stop-opacity="1" stop-color="rgb(52.949524%, 56.829834%, 58.737183%)" offset="0.746094"/><stop stop-opacity="1" stop-color="rgb(53.187561%, 57.032776%, 58.935547%)" offset="0.75"/><stop stop-opacity="1" stop-color="rgb(53.425598%, 57.235718%, 59.133911%)" offset="0.753906"/><stop stop-opacity="1" stop-color="rgb(53.663635%, 57.440186%, 59.332275%)" offset="0.757812"/><stop stop-opacity="1" stop-color="rgb(53.901672%, 57.643127%, 59.53064%)" offset="0.761719"/><stop stop-opacity="1" stop-color="rgb(54.139709%, 57.846069%, 59.73053%)" offset="0.765625"/><stop stop-opacity="1" stop-color="rgb(54.377747%, 58.049011%, 59.928894%)" offset="0.769531"/><stop stop-opacity="1" stop-color="rgb(54.615784%, 58.253479%, 60.127258%)" offset="0.773438"/><stop stop-opacity="1" stop-color="rgb(54.853821%, 58.456421%, 60.325623%)" offset="0.777344"/><stop stop-opacity="1" stop-color="rgb(55.091858%, 58.659363%, 60.525513%)" offset="0.78125"/><stop stop-opacity="1" stop-color="rgb(55.329895%, 58.862305%, 60.723877%)" offset="0.785156"/><stop stop-opacity="1" stop-color="rgb(55.567932%, 59.066772%, 60.922241%)" offset="0.789062"/><stop stop-opacity="1" stop-color="rgb(55.805969%, 59.269714%, 61.120605%)" offset="0.792969"/><stop stop-opacity="1" stop-color="rgb(56.044006%, 59.472656%, 61.31897%)" offset="0.796875"/><stop stop-opacity="1" stop-color="rgb(56.282043%, 59.675598%, 61.517334%)" offset="0.800781"/><stop stop-opacity="1" stop-color="rgb(56.520081%, 59.87854%, 61.717224%)" offset="0.804688"/><stop stop-opacity="1" stop-color="rgb(56.758118%, 60.081482%, 61.915588%)" offset="0.808594"/><stop stop-opacity="1" stop-color="rgb(56.996155%, 60.28595%, 62.113953%)" offset="0.8125"/><stop stop-opacity="1" stop-color="rgb(57.234192%, 60.488892%, 62.312317%)" offset="0.816406"/><stop stop-opacity="1" stop-color="rgb(57.472229%, 60.691833%, 62.510681%)" offset="0.820312"/><stop stop-opacity="1" stop-color="rgb(57.70874%, 60.894775%, 62.709045%)" offset="0.824219"/><stop stop-opacity="1" stop-color="rgb(57.946777%, 61.099243%, 62.908936%)" offset="0.828125"/><stop stop-opacity="1" stop-color="rgb(58.184814%, 61.302185%, 63.1073%)" offset="0.832031"/><stop stop-opacity="1" stop-color="rgb(58.422852%, 61.505127%, 63.305664%)" offset="0.835938"/><stop stop-opacity="1" stop-color="rgb(58.660889%, 61.708069%, 63.504028%)" offset="0.839844"/><stop stop-opacity="1" stop-color="rgb(58.898926%, 61.912537%, 63.702393%)" offset="0.84375"/><stop stop-opacity="1" stop-color="rgb(59.136963%, 62.115479%, 63.900757%)" offset="0.847656"/><stop stop-opacity="1" stop-color="rgb(59.375%, 62.31842%, 64.100647%)" offset="0.851562"/><stop stop-opacity="1" stop-color="rgb(59.613037%, 62.521362%, 64.299011%)" offset="0.855469"/><stop stop-opacity="1" stop-color="rgb(59.851074%, 62.72583%, 64.497375%)" offset="0.859375"/><stop stop-opacity="1" stop-color="rgb(60.089111%, 62.928772%, 64.69574%)" offset="0.863281"/><stop stop-opacity="1" stop-color="rgb(60.327148%, 63.131714%, 64.894104%)" offset="0.867188"/><stop stop-opacity="1" stop-color="rgb(60.565186%, 63.334656%, 65.092468%)" offset="0.871094"/><stop stop-opacity="1" stop-color="rgb(60.803223%, 63.539124%, 65.292358%)" offset="0.875"/><stop stop-opacity="1" stop-color="rgb(61.04126%, 63.742065%, 65.490723%)" offset="0.878906"/><stop stop-opacity="1" stop-color="rgb(61.279297%, 63.945007%, 65.689087%)" offset="0.882812"/><stop stop-opacity="1" stop-color="rgb(61.517334%, 64.147949%, 65.887451%)" offset="0.886719"/><stop stop-opacity="1" stop-color="rgb(61.755371%, 64.352417%, 66.085815%)" offset="0.890625"/><stop stop-opacity="1" stop-color="rgb(61.993408%, 64.555359%, 66.28418%)" offset="0.894531"/><stop stop-opacity="1" stop-color="rgb(62.231445%, 64.758301%, 66.48407%)" offset="0.898438"/><stop stop-opacity="1" stop-color="rgb(62.469482%, 64.961243%, 66.682434%)" offset="0.902344"/><stop stop-opacity="1" stop-color="rgb(62.70752%, 65.16571%, 66.880798%)" offset="0.90625"/><stop stop-opacity="1" stop-color="rgb(62.944031%, 65.368652%, 67.079163%)" offset="0.910156"/><stop stop-opacity="1" stop-color="rgb(63.182068%, 65.571594%, 67.277527%)" offset="0.914062"/><stop stop-opacity="1" stop-color="rgb(63.420105%, 65.774536%, 67.475891%)" offset="0.917969"/><stop stop-opacity="1" stop-color="rgb(63.658142%, 65.979004%, 67.675781%)" offset="0.921875"/><stop stop-opacity="1" stop-color="rgb(63.896179%, 66.181946%, 67.874146%)" offset="0.925781"/><stop stop-opacity="1" stop-color="rgb(64.134216%, 66.384888%, 68.07251%)" offset="0.929688"/><stop stop-opacity="1" stop-color="rgb(64.372253%, 66.58783%, 68.270874%)" offset="0.933594"/><stop stop-opacity="1" stop-color="rgb(64.610291%, 66.790771%, 68.469238%)" offset="0.9375"/><stop stop-opacity="1" stop-color="rgb(64.848328%, 66.993713%, 68.667603%)" offset="0.941406"/><stop stop-opacity="1" stop-color="rgb(65.086365%, 67.198181%, 68.867493%)" offset="0.945312"/><stop stop-opacity="1" stop-color="rgb(65.324402%, 67.401123%, 69.065857%)" offset="0.949219"/><stop stop-opacity="1" stop-color="rgb(65.562439%, 67.604065%, 69.264221%)" offset="0.953125"/><stop stop-opacity="1" stop-color="rgb(65.800476%, 67.807007%, 69.462585%)" offset="0.957031"/><stop stop-opacity="1" stop-color="rgb(66.038513%, 68.011475%, 69.66095%)" offset="0.960938"/><stop stop-opacity="1" stop-color="rgb(66.27655%, 68.214417%, 69.859314%)" offset="0.964844"/><stop stop-opacity="1" stop-color="rgb(66.514587%, 68.417358%, 70.059204%)" offset="0.96875"/><stop stop-opacity="1" stop-color="rgb(66.752625%, 68.6203%, 70.257568%)" offset="0.972656"/><stop stop-opacity="1" stop-color="rgb(66.990662%, 68.824768%, 70.455933%)" offset="0.976562"/><stop stop-opacity="1" stop-color="rgb(67.228699%, 69.02771%, 70.654297%)" offset="0.980469"/><stop stop-opacity="1" stop-color="rgb(67.466736%, 69.230652%, 70.852661%)" offset="0.984375"/><stop stop-opacity="1" stop-color="rgb(67.703247%, 69.433594%, 71.051025%)" offset="0.988281"/><stop stop-opacity="1" stop-color="rgb(67.941284%, 69.638062%, 71.250916%)" offset="0.992188"/><stop stop-opacity="1" stop-color="rgb(68.179321%, 69.841003%, 71.44928%)" offset="0.996094"/><stop stop-opacity="1" stop-color="rgb(68.417358%, 70.043945%, 71.647644%)" offset="1"/></linearGradient><clipPath id="8b20987d76"><path d="M 287.886719 575.886719 L 1152.113281 575.886719 L 1152.113281 1440.109375 L 287.886719 1440.109375 Z M 287.886719 575.886719 " clip-rule="nonzero"/></clipPath><clipPath id="fff5e19acf"><path d="M 355.386719 575.886719 L 1084.613281 575.886719 C 1102.511719 575.886719 1119.683594 583 1132.339844 595.660156 C 1145 608.316406 1152.113281 625.484375 1152.113281 643.386719 L 1152.113281 1372.609375 C 1152.113281 1390.511719 1145 1407.683594 1132.339844 1420.339844 C 1119.683594 1433 1102.511719 1440.109375 1084.613281 1440.109375 L 355.386719 1440.109375 C 337.488281 1440.109375 320.316406 1433 307.660156 1420.339844 C 295 1407.683594 287.886719 1390.511719 287.886719 1372.609375 L 287.886719 643.386719 C 287.886719 625.484375 295 608.316406 307.660156 595.660156 C 320.316406 583 337.488281 575.886719 355.386719 575.886719 Z M 355.386719 575.886719 " clip-rule="nonzero"/></clipPath><clipPath id="7f087f47a6"><path d="M 287.886719 575.886719 L 1151.886719 575.886719 L 1151.886719 1439.886719 L 287.886719 1439.886719 Z M 287.886719 575.886719 " clip-rule="nonzero"/></clipPath><clipPath id="700793d4c2"><path d="M 355.386719 575.886719 L 1084.609375 575.886719 C 1102.511719 575.886719 1119.683594 583 1132.339844 595.660156 C 1145 608.316406 1152.109375 625.484375 1152.109375 643.386719 L 1152.109375 1372.609375 C 1152.109375 1390.511719 1145 1407.683594 1132.339844 1420.339844 C 1119.683594 1433 1102.511719 1440.109375 1084.609375 1440.109375 L 355.386719 1440.109375 C 337.488281 1440.109375 320.316406 1433 307.660156 1420.339844 C 295 1407.683594 287.886719 1390.511719 287.886719 1372.609375 L 287.886719 643.386719 C 287.886719 625.484375 295 608.316406 307.660156 595.660156 C 320.316406 583 337.488281 575.886719 355.386719 575.886719 Z M 355.386719 575.886719 " clip-rule="nonzero"/></clipPath><clipPath id="958bc39f3d"><path d="M 288.371094 0 L 1152.59375 0 L 1152.59375 298.957031 L 288.371094 298.957031 Z M 288.371094 0 " clip-rule="nonzero"/></clipPath><clipPath id="8e65cd13d3"><path d="M 355.871094 -223.980469 L 1085.09375 -223.980469 C 1122.375 -223.980469 1152.59375 -193.761719 1152.59375 -156.480469 L 1152.59375 231.457031 C 1152.59375 268.734375 1122.375 298.957031 1085.09375 298.957031 L 355.871094 298.957031 C 318.59375 298.957031 288.371094 268.734375 288.371094 231.457031 L 288.371094 -156.480469 C 288.371094 -193.761719 318.59375 -223.980469 355.871094 -223.980469 Z M 355.871094 -223.980469 " clip-rule="nonzero"/></clipPath><clipPath id="d5754ec26e"><path d="M 288.371094 1716.863281 L 1152.59375 1716.863281 L 1152.59375 2016 L 288.371094 2016 Z M 288.371094 1716.863281 " clip-rule="nonzero"/></clipPath><clipPath id="aec828c989"><path d="M 355.871094 1716.863281 L 1085.09375 1716.863281 C 1122.375 1716.863281 1152.59375 1747.082031 1152.59375 1784.363281 L 1152.59375 2172.296875 C 1152.59375 2209.578125 1122.375 2239.796875 1085.09375 2239.796875 L 355.871094 2239.796875 C 318.59375 2239.796875 288.371094 2209.578125 288.371094 2172.296875 L 288.371094 1784.363281 C 288.371094 1747.082031 318.59375 1716.863281 355.871094 1716.863281 Z M 355.871094 1716.863281 " clip-rule="nonzero"/></clipPath><clipPath id="e1c695d7b7"><path d="M 457.433594 757.445312 L 945 757.445312 L 945 1220 L 457.433594 1220 Z M 457.433594 757.445312 " clip-rule="nonzero"/></clipPath></defs><rect x="-144" width="1728" fill="#ffffff" y="-201.599992" height="2419.199902" fill-opacity="1"/><rect x="-144" width="1728" fill="#f5f5fa" y="-201.599992" height="2419.199902" fill-opacity="1"/><rect x="-144" fill="url(#d7848898d2)" width="1728" y="-201.599992" height="2419.199902"/><g clip-path="url(#8b20987d76)"><g clip-path="url(#fff5e19acf)"><path fill="#f5f5fa" d="M 287.886719 575.886719 L 1152.113281 575.886719 L 1152.113281 1440.109375 L 287.886719 1440.109375 Z M 287.886719 575.886719 " fill-opacity="1" fill-rule="nonzero"/></g></g><g clip-path="url(#7f087f47a6)"><g clip-path="url(#700793d4c2)"><path stroke-linecap="butt" transform="matrix(0.75, 0, 0, 0.75, 287.888619, 575.888401)" fill="none" stroke-linejoin="miter" d="M 89.997474 -0.00224244 L 1062.294429 -0.00224244 C 1086.164222 -0.00224244 1109.060057 9.482133 1125.935059 26.362343 C 1142.815269 43.237344 1152.294436 66.127971 1152.294436 89.997765 L 1152.294436 1062.29472 C 1152.294436 1086.164514 1142.815269 1109.060349 1125.935059 1125.93535 C 1109.060057 1142.81556 1086.164222 1152.294727 1062.294429 1152.294727 L 89.997474 1152.294727 C 66.132888 1152.294727 43.237053 1142.81556 26.362052 1125.93535 C 9.481842 1109.060349 -0.00253391 1086.164514 -0.00253391 1062.29472 L -0.00253391 89.997765 C -0.00253391 66.127971 9.481842 43.237344 26.362052 26.362343 C 43.237053 9.482133 66.132888 -0.00224244 89.997474 -0.00224244 Z M 89.997474 -0.00224244 " stroke="#0d1f23" stroke-width="100" stroke-opacity="1" stroke-miterlimit="4"/></g></g><path stroke-linecap="butt" transform="matrix(0.75, 0, 0, 0.75, -0.965174, -0.0126562)" fill="none" stroke-linejoin="miter" d="M 0.000439761 50.001254 L 1921.287056 50.001254 " stroke="#0d1f23" stroke-width="100" stroke-opacity="1" stroke-miterlimit="4"/><path stroke-linecap="butt" transform="matrix(0.75, 0, 0, 0.75, 0.0000292857, 1940.99984)" fill="none" stroke-linejoin="miter" d="M -0.0000390476 50.000217 L 1921.286577 50.000217 " stroke="#0d1f23" stroke-width="100" stroke-opacity="1" stroke-miterlimit="4"/><g clip-path="url(#958bc39f3d)"><g clip-path="url(#8e65cd13d3)"><path fill="#0d1f23" d="M 288.371094 -223.980469 L 1152.59375 -223.980469 L 1152.59375 298.957031 L 288.371094 298.957031 Z M 288.371094 -223.980469 " fill-opacity="1" fill-rule="nonzero"/></g></g><g clip-path="url(#d5754ec26e)"><g clip-path="url(#aec828c989)"><path fill="#0d1f23" d="M 288.371094 1716.863281 L 1152.59375 1716.863281 L 1152.59375 2239.796875 L 288.371094 2239.796875 Z M 288.371094 1716.863281 " fill-opacity="1" fill-rule="nonzero"/></g></g><g clip-path="url(#e1c695d7b7)"><path fill="#0d1f23" d="M 722.355469 1194.816406 L 569.898438 1194.816406 L 569.898438 782.441406 L 832.320312 782.441406 L 832.320312 954.390625 C 832.320312 955.210938 832.398438 956.023438 832.558594 956.828125 C 832.71875 957.632812 832.957031 958.414062 833.269531 959.171875 C 833.585938 959.929688 833.96875 960.652344 834.425781 961.332031 C 834.882812 962.015625 835.398438 962.644531 835.980469 963.226562 C 836.558594 963.808594 837.191406 964.324219 837.875 964.78125 C 838.554688 965.238281 839.277344 965.621094 840.035156 965.933594 C 840.792969 966.25 841.574219 966.488281 842.378906 966.648438 C 843.183594 966.808594 843.996094 966.886719 844.816406 966.886719 C 845.636719 966.886719 846.449219 966.808594 847.253906 966.648438 C 848.058594 966.488281 848.839844 966.25 849.597656 965.933594 C 850.355469 965.621094 851.078125 965.238281 851.757812 964.78125 C 852.441406 964.324219 853.070312 963.808594 853.652344 963.226562 C 854.234375 962.644531 854.75 962.015625 855.207031 961.332031 C 855.664062 960.652344 856.046875 959.929688 856.359375 959.171875 C 856.675781 958.414062 856.914062 957.632812 857.074219 956.828125 C 857.230469 956.023438 857.3125 955.210938 857.3125 954.390625 L 857.3125 869.917969 L 919.792969 869.917969 L 919.792969 899.78125 C 919.792969 900.601562 919.875 901.414062 920.035156 902.21875 C 920.195312 903.023438 920.429688 903.804688 920.746094 904.5625 C 921.058594 905.324219 921.445312 906.042969 921.898438 906.726562 C 922.355469 907.40625 922.875 908.039062 923.453125 908.617188 C 924.035156 909.199219 924.664062 909.714844 925.347656 910.171875 C 926.03125 910.628906 926.75 911.011719 927.507812 911.328125 C 928.265625 911.640625 929.046875 911.878906 929.851562 912.039062 C 930.65625 912.199219 931.46875 912.277344 932.289062 912.277344 C 933.109375 912.277344 933.921875 912.199219 934.726562 912.039062 C 935.53125 911.878906 936.3125 911.640625 937.070312 911.328125 C 937.828125 911.011719 938.550781 910.628906 939.230469 910.171875 C 939.914062 909.714844 940.546875 909.199219 941.125 908.617188 C 941.707031 908.039062 942.222656 907.40625 942.679688 906.726562 C 943.136719 906.042969 943.519531 905.324219 943.835938 904.5625 C 944.148438 903.804688 944.386719 903.023438 944.546875 902.21875 C 944.707031 901.414062 944.785156 900.601562 944.785156 899.78125 L 944.785156 819.929688 C 944.785156 817.886719 944.679688 815.84375 944.476562 813.808594 C 944.277344 811.773438 943.972656 809.753906 943.574219 807.746094 C 943.171875 805.742188 942.675781 803.757812 942.078125 801.800781 C 941.484375 799.84375 940.792969 797.921875 940.011719 796.03125 C 939.226562 794.144531 938.351562 792.296875 937.386719 790.492188 C 936.421875 788.6875 935.371094 786.9375 934.234375 785.238281 C 933.097656 783.535156 931.878906 781.894531 930.582031 780.3125 C 929.28125 778.734375 927.910156 777.21875 926.464844 775.773438 C 925.015625 774.328125 923.503906 772.953125 921.921875 771.65625 C 920.339844 770.359375 918.699219 769.140625 917 768.003906 C 915.300781 766.867188 913.546875 765.816406 911.742188 764.851562 C 909.941406 763.886719 908.09375 763.011719 906.203125 762.226562 C 904.3125 761.441406 902.390625 760.753906 900.433594 760.15625 C 898.476562 759.5625 896.496094 759.0625 894.488281 758.664062 C 892.484375 758.261719 890.460938 757.960938 888.425781 757.757812 C 886.390625 757.554688 884.351562 757.453125 882.304688 757.449219 L 519.914062 757.449219 C 517.871094 757.453125 515.828125 757.554688 513.792969 757.757812 C 511.757812 757.960938 509.738281 758.261719 507.730469 758.664062 C 505.726562 759.0625 503.742188 759.5625 501.785156 760.15625 C 499.828125 760.753906 497.90625 761.441406 496.015625 762.226562 C 494.128906 763.011719 492.28125 763.886719 490.476562 764.851562 C 488.671875 765.816406 486.921875 766.867188 485.21875 768.003906 C 483.519531 769.140625 481.878906 770.359375 480.296875 771.65625 C 478.714844 772.953125 477.203125 774.328125 475.757812 775.773438 C 474.308594 777.21875 472.9375 778.734375 471.640625 780.3125 C 470.339844 781.894531 469.125 783.535156 467.988281 785.238281 C 466.851562 786.9375 465.800781 788.6875 464.835938 790.492188 C 463.867188 792.296875 462.996094 794.144531 462.210938 796.03125 C 461.425781 797.921875 460.738281 799.84375 460.140625 801.800781 C 459.546875 803.757812 459.046875 805.742188 458.648438 807.746094 C 458.246094 809.753906 457.945312 811.773438 457.742188 813.808594 C 457.539062 815.84375 457.4375 817.886719 457.433594 819.929688 L 457.433594 1157.328125 C 457.4375 1159.375 457.539062 1161.414062 457.742188 1163.449219 C 457.945312 1165.484375 458.246094 1167.507812 458.648438 1169.511719 C 459.046875 1171.519531 459.546875 1173.5 460.140625 1175.457031 C 460.738281 1177.414062 461.425781 1179.339844 462.210938 1181.226562 C 462.996094 1183.117188 463.867188 1184.964844 464.835938 1186.765625 C 465.800781 1188.570312 466.851562 1190.324219 467.988281 1192.023438 C 469.125 1193.722656 470.339844 1195.363281 471.640625 1196.945312 C 472.9375 1198.527344 474.308594 1200.042969 475.757812 1201.488281 C 477.203125 1202.933594 478.714844 1204.304688 480.296875 1205.605469 C 481.878906 1206.902344 483.519531 1208.121094 485.21875 1209.257812 C 486.921875 1210.394531 488.671875 1211.445312 490.476562 1212.410156 C 492.28125 1213.375 494.128906 1214.25 496.015625 1215.035156 C 497.90625 1215.816406 499.828125 1216.507812 501.785156 1217.101562 C 503.742188 1217.699219 505.726562 1218.195312 507.730469 1218.597656 C 509.738281 1218.996094 511.757812 1219.300781 513.792969 1219.503906 C 515.828125 1219.703125 517.871094 1219.808594 519.914062 1219.808594 L 722.355469 1219.808594 C 723.175781 1219.808594 723.988281 1219.730469 724.792969 1219.570312 C 725.597656 1219.410156 726.378906 1219.171875 727.136719 1218.859375 C 727.894531 1218.542969 728.613281 1218.160156 729.296875 1217.703125 C 729.976562 1217.246094 730.609375 1216.730469 731.191406 1216.148438 C 731.769531 1215.570312 732.289062 1214.9375 732.742188 1214.257812 C 733.199219 1213.574219 733.585938 1212.855469 733.898438 1212.09375 C 734.210938 1211.335938 734.449219 1210.554688 734.609375 1209.75 C 734.769531 1208.945312 734.851562 1208.132812 734.851562 1207.3125 C 734.851562 1206.492188 734.769531 1205.679688 734.609375 1204.875 C 734.449219 1204.070312 734.210938 1203.289062 733.898438 1202.53125 C 733.585938 1201.773438 733.199219 1201.054688 732.742188 1200.371094 C 732.289062 1199.6875 731.769531 1199.058594 731.191406 1198.476562 C 730.609375 1197.898438 729.976562 1197.378906 729.296875 1196.921875 C 728.613281 1196.46875 727.894531 1196.082031 727.136719 1195.769531 C 726.378906 1195.453125 725.597656 1195.21875 724.792969 1195.058594 C 723.988281 1194.898438 723.175781 1194.816406 722.355469 1194.816406 Z M 882.304688 782.441406 C 883.53125 782.441406 884.757812 782.503906 885.980469 782.625 C 887.203125 782.742188 888.414062 782.921875 889.617188 783.164062 C 890.824219 783.402344 892.011719 783.699219 893.1875 784.058594 C 894.363281 784.414062 895.515625 784.828125 896.652344 785.296875 C 897.785156 785.765625 898.894531 786.289062 899.976562 786.871094 C 901.058594 787.449219 902.113281 788.078125 903.132812 788.761719 C 904.152344 789.441406 905.136719 790.171875 906.085938 790.953125 C 907.035156 791.730469 907.945312 792.554688 908.8125 793.421875 C 909.679688 794.292969 910.503906 795.199219 911.285156 796.148438 C 912.0625 797.097656 912.792969 798.082031 913.476562 799.105469 C 914.15625 800.125 914.789062 801.175781 915.367188 802.257812 C 915.945312 803.34375 916.46875 804.449219 916.941406 805.585938 C 917.410156 806.71875 917.824219 807.875 918.179688 809.050781 C 918.535156 810.222656 918.832031 811.414062 919.074219 812.617188 C 919.3125 813.820312 919.492188 815.035156 919.613281 816.257812 C 919.734375 817.480469 919.792969 818.703125 919.792969 819.929688 L 919.792969 844.925781 L 857.3125 844.925781 L 857.3125 782.441406 Z M 482.425781 957.390625 L 544.90625 957.390625 L 544.90625 1019.871094 L 482.425781 1019.871094 Z M 544.90625 932.398438 L 482.425781 932.398438 L 482.425781 869.917969 L 544.90625 869.917969 Z M 482.425781 1044.863281 L 544.90625 1044.863281 L 544.90625 1107.34375 L 482.425781 1107.34375 Z M 482.425781 819.929688 C 482.425781 818.703125 482.488281 817.480469 482.605469 816.257812 C 482.726562 815.035156 482.90625 813.820312 483.148438 812.617188 C 483.386719 811.414062 483.683594 810.222656 484.039062 809.050781 C 484.398438 807.875 484.808594 806.71875 485.28125 805.585938 C 485.75 804.449219 486.273438 803.34375 486.851562 802.257812 C 487.433594 801.175781 488.0625 800.125 488.746094 799.105469 C 489.425781 798.082031 490.15625 797.097656 490.9375 796.148438 C 491.714844 795.199219 492.539062 794.292969 493.40625 793.421875 C 494.273438 792.554688 495.183594 791.730469 496.132812 790.953125 C 497.082031 790.171875 498.066406 789.441406 499.085938 788.761719 C 500.109375 788.078125 501.160156 787.449219 502.242188 786.871094 C 503.324219 786.289062 504.433594 785.765625 505.570312 785.296875 C 506.703125 784.828125 507.859375 784.414062 509.03125 784.058594 C 510.207031 783.699219 511.398438 783.402344 512.601562 783.164062 C 513.804688 782.921875 515.019531 782.742188 516.242188 782.625 C 517.460938 782.503906 518.6875 782.441406 519.914062 782.441406 L 544.90625 782.441406 L 544.90625 844.925781 L 482.425781 844.925781 Z M 519.914062 1194.816406 C 518.6875 1194.816406 517.460938 1194.757812 516.242188 1194.636719 C 515.019531 1194.515625 513.804688 1194.335938 512.601562 1194.097656 C 511.398438 1193.855469 510.207031 1193.558594 509.03125 1193.203125 C 507.859375 1192.847656 506.703125 1192.433594 505.570312 1191.964844 C 504.433594 1191.492188 503.324219 1190.96875 502.242188 1190.390625 C 501.160156 1189.8125 500.109375 1189.179688 499.085938 1188.5 C 498.066406 1187.816406 497.082031 1187.085938 496.132812 1186.308594 C 495.183594 1185.527344 494.273438 1184.707031 493.40625 1183.835938 C 492.539062 1182.96875 491.714844 1182.058594 490.9375 1181.109375 C 490.15625 1180.164062 489.425781 1179.175781 488.746094 1178.15625 C 488.0625 1177.136719 487.433594 1176.082031 486.851562 1175 C 486.273438 1173.917969 485.75 1172.808594 485.28125 1171.675781 C 484.808594 1170.539062 484.398438 1169.386719 484.039062 1168.210938 C 483.683594 1167.035156 483.386719 1165.847656 483.148438 1164.640625 C 482.90625 1163.4375 482.726562 1162.226562 482.605469 1161.003906 C 482.488281 1159.78125 482.425781 1158.554688 482.425781 1157.328125 L 482.425781 1132.335938 L 544.90625 1132.335938 L 544.90625 1194.816406 Z M 519.914062 1194.816406 " fill-opacity="1" fill-rule="nonzero"/></g><path fill="#0d1f23" d="M 932.289062 1140.207031 C 931.46875 1140.207031 930.65625 1140.289062 929.851562 1140.449219 C 929.046875 1140.609375 928.265625 1140.847656 927.507812 1141.160156 C 926.75 1141.472656 926.03125 1141.859375 925.347656 1142.316406 C 924.664062 1142.769531 924.035156 1143.289062 923.453125 1143.867188 C 922.875 1144.449219 922.355469 1145.082031 921.898438 1145.761719 C 921.445312 1146.445312 921.058594 1147.164062 920.746094 1147.921875 C 920.429688 1148.679688 920.195312 1149.460938 920.035156 1150.265625 C 919.875 1151.070312 919.792969 1151.882812 919.792969 1152.707031 L 919.792969 1157.328125 C 919.804688 1159.054688 919.695312 1160.773438 919.464844 1162.484375 C 919.234375 1164.199219 918.886719 1165.882812 918.417969 1167.546875 C 917.953125 1169.210938 917.371094 1170.832031 916.679688 1172.414062 C 915.984375 1173.996094 915.1875 1175.519531 914.277344 1176.988281 C 913.371094 1178.457031 912.367188 1179.859375 911.261719 1181.1875 C 910.160156 1182.515625 908.96875 1183.761719 907.691406 1184.921875 C 906.417969 1186.085938 905.0625 1187.152344 903.636719 1188.125 C 902.210938 1189.097656 900.722656 1189.964844 899.175781 1190.730469 C 898.492188 1190.984375 897.835938 1191.296875 897.207031 1191.667969 C 896.578125 1192.039062 895.984375 1192.460938 895.429688 1192.933594 C 894.875 1193.40625 894.363281 1193.925781 893.898438 1194.488281 C 893.433594 1195.050781 893.023438 1195.648438 892.664062 1196.285156 C 892.304688 1196.917969 892.003906 1197.582031 891.757812 1198.269531 C 891.515625 1198.957031 891.332031 1199.660156 891.214844 1200.378906 C 891.09375 1201.097656 891.035156 1201.824219 891.042969 1202.554688 C 891.050781 1203.28125 891.117188 1204.007812 891.253906 1204.722656 C 891.386719 1205.441406 891.582031 1206.140625 891.835938 1206.824219 C 892.09375 1207.507812 892.40625 1208.164062 892.777344 1208.792969 C 893.148438 1209.421875 893.570312 1210.011719 894.042969 1210.566406 C 894.519531 1211.121094 895.039062 1211.628906 895.601562 1212.09375 C 896.164062 1212.558594 896.765625 1212.96875 897.402344 1213.324219 C 898.035156 1213.683594 898.699219 1213.984375 899.386719 1214.226562 C 900.074219 1214.46875 900.777344 1214.648438 901.5 1214.769531 C 902.21875 1214.886719 902.945312 1214.945312 903.671875 1214.9375 C 905.535156 1214.929688 907.308594 1214.535156 908.996094 1213.75 C 911.667969 1212.507812 914.238281 1211.085938 916.707031 1209.476562 C 919.175781 1207.871094 921.519531 1206.09375 923.734375 1204.152344 C 925.949219 1202.207031 928.015625 1200.117188 929.929688 1197.878906 C 931.847656 1195.644531 933.59375 1193.28125 935.171875 1190.792969 C 936.75 1188.304688 938.144531 1185.714844 939.351562 1183.027344 C 940.558594 1180.34375 941.570312 1177.582031 942.382812 1174.75 C 943.199219 1171.917969 943.804688 1169.042969 944.207031 1166.125 C 944.609375 1163.207031 944.804688 1160.273438 944.785156 1157.328125 L 944.785156 1152.707031 C 944.785156 1151.882812 944.707031 1151.070312 944.546875 1150.265625 C 944.386719 1149.460938 944.148438 1148.679688 943.835938 1147.921875 C 943.519531 1147.164062 943.136719 1146.445312 942.679688 1145.761719 C 942.222656 1145.082031 941.707031 1144.449219 941.125 1143.867188 C 940.546875 1143.289062 939.914062 1142.769531 939.230469 1142.316406 C 938.550781 1141.859375 937.828125 1141.472656 937.070312 1141.160156 C 936.3125 1140.847656 935.53125 1140.609375 934.726562 1140.449219 C 933.921875 1140.289062 933.109375 1140.207031 932.289062 1140.207031 Z M 932.289062 1140.207031 " fill-opacity="1" fill-rule="nonzero"/><path fill="#0d1f23" d="M 676.117188 901.496094 C 674.699219 900.675781 673.230469 899.953125 671.71875 899.324219 C 670.203125 898.699219 668.65625 898.171875 667.074219 897.75 C 665.492188 897.324219 663.886719 897.003906 662.261719 896.792969 C 660.636719 896.578125 659.007812 896.472656 657.367188 896.472656 C 655.730469 896.472656 654.097656 896.578125 652.472656 896.792969 C 650.847656 897.007812 649.246094 897.328125 647.660156 897.75 C 646.078125 898.175781 644.53125 898.703125 643.015625 899.328125 C 641.503906 899.957031 640.039062 900.679688 638.617188 901.5 C 637.199219 902.320312 635.839844 903.230469 634.542969 904.226562 C 633.242188 905.226562 632.011719 906.304688 630.855469 907.460938 C 629.695312 908.621094 628.617188 909.851562 627.621094 911.152344 C 626.625 912.453125 625.71875 913.8125 624.898438 915.230469 C 624.078125 916.652344 623.355469 918.117188 622.730469 919.632812 C 622.105469 921.144531 621.578125 922.695312 621.15625 924.277344 C 620.734375 925.859375 620.414062 927.464844 620.203125 929.089844 C 619.988281 930.714844 619.882812 932.34375 619.886719 933.984375 L 619.886719 1055.820312 C 619.878906 1057.464844 619.980469 1059.097656 620.1875 1060.722656 C 620.394531 1062.351562 620.710938 1063.957031 621.128906 1065.546875 C 621.546875 1067.132812 622.070312 1068.683594 622.695312 1070.199219 C 623.316406 1071.71875 624.039062 1073.1875 624.855469 1074.609375 C 625.671875 1076.035156 626.578125 1077.398438 627.574219 1078.699219 C 628.574219 1080.003906 629.648438 1081.238281 630.808594 1082.398438 C 631.96875 1083.558594 633.199219 1084.640625 634.5 1085.640625 C 635.800781 1086.640625 637.160156 1087.550781 638.582031 1088.371094 C 640 1089.191406 641.46875 1089.917969 642.984375 1090.542969 C 644.5 1091.171875 646.050781 1091.699219 647.636719 1092.121094 C 649.222656 1092.546875 650.828125 1092.863281 652.457031 1093.074219 C 654.082031 1093.289062 655.714844 1093.394531 657.355469 1093.390625 C 658.996094 1093.386719 660.632812 1093.277344 662.257812 1093.058594 C 663.882812 1092.84375 665.488281 1092.519531 667.074219 1092.089844 C 668.65625 1091.660156 670.207031 1091.132812 671.71875 1090.5 C 673.234375 1089.867188 674.699219 1089.136719 676.117188 1088.3125 L 781.625 1027.367188 C 783.042969 1026.550781 784.40625 1025.640625 785.707031 1024.644531 C 787.011719 1023.648438 788.242188 1022.570312 789.402344 1021.414062 C 790.5625 1020.253906 791.644531 1019.023438 792.644531 1017.722656 C 793.644531 1016.421875 794.554688 1015.0625 795.375 1013.644531 C 796.195312 1012.222656 796.921875 1010.757812 797.546875 1009.242188 C 798.175781 1007.726562 798.703125 1006.175781 799.128906 1004.59375 C 799.554688 1003.007812 799.875 1001.402344 800.085938 999.777344 C 800.300781 998.152344 800.410156 996.519531 800.410156 994.878906 C 800.410156 993.238281 800.300781 991.605469 800.085938 989.980469 C 799.875 988.351562 799.554688 986.746094 799.128906 985.164062 C 798.703125 983.578125 798.175781 982.03125 797.546875 980.515625 C 796.921875 979 796.195312 977.53125 795.375 976.113281 C 794.554688 974.691406 793.644531 973.332031 792.644531 972.03125 C 791.644531 970.730469 790.5625 969.503906 789.402344 968.34375 C 788.242188 967.1875 787.011719 966.109375 785.707031 965.109375 C 784.40625 964.113281 783.042969 963.207031 781.625 962.386719 Z M 769.125 1005.699219 L 663.621094 1066.605469 C 663.148438 1066.878906 662.660156 1067.121094 662.15625 1067.328125 C 661.652344 1067.539062 661.136719 1067.714844 660.609375 1067.855469 C 660.082031 1067.996094 659.546875 1068.101562 659.007812 1068.171875 C 658.464844 1068.246094 657.921875 1068.28125 657.375 1068.28125 C 656.832031 1068.28125 656.289062 1068.246094 655.746094 1068.175781 C 655.207031 1068.101562 654.671875 1067.996094 654.144531 1067.855469 C 653.617188 1067.714844 653.101562 1067.539062 652.597656 1067.332031 C 652.09375 1067.121094 651.605469 1066.882812 651.128906 1066.609375 C 650.65625 1066.335938 650.203125 1066.035156 649.773438 1065.703125 C 649.339844 1065.371094 648.929688 1065.011719 648.542969 1064.625 C 648.15625 1064.242188 647.796875 1063.832031 647.464844 1063.398438 C 647.132812 1062.964844 646.828125 1062.511719 646.554688 1062.039062 C 646.28125 1061.566406 646.042969 1061.082031 645.832031 1060.574219 C 645.625 1060.070312 645.449219 1059.554688 645.304688 1059.03125 C 645.164062 1058.503906 645.058594 1057.96875 644.984375 1057.425781 C 644.914062 1056.886719 644.878906 1056.34375 644.878906 1055.796875 L 644.878906 933.960938 C 644.867188 932.859375 645 931.78125 645.28125 930.714844 C 645.558594 929.652344 645.972656 928.644531 646.523438 927.695312 C 647.070312 926.742188 647.738281 925.878906 648.519531 925.105469 C 649.300781 924.335938 650.167969 923.675781 651.125 923.136719 C 653.058594 922.027344 655.144531 921.457031 657.375 921.425781 C 659.617188 921.421875 661.699219 921.996094 663.621094 923.148438 L 769.125 984.054688 C 769.601562 984.328125 770.054688 984.632812 770.484375 984.964844 C 770.917969 985.296875 771.328125 985.65625 771.714844 986.042969 C 772.101562 986.429688 772.460938 986.839844 772.792969 987.269531 C 773.125 987.703125 773.425781 988.15625 773.699219 988.628906 C 773.972656 989.101562 774.214844 989.59375 774.421875 990.097656 C 774.632812 990.601562 774.808594 991.117188 774.949219 991.644531 C 775.089844 992.171875 775.195312 992.707031 775.265625 993.246094 C 775.339844 993.789062 775.375 994.332031 775.375 994.878906 C 775.375 995.425781 775.339844 995.96875 775.265625 996.507812 C 775.195312 997.050781 775.089844 997.585938 774.949219 998.113281 C 774.808594 998.640625 774.632812 999.15625 774.421875 999.660156 C 774.214844 1000.164062 773.972656 1000.652344 773.699219 1001.125 C 773.425781 1001.597656 773.125 1002.050781 772.792969 1002.484375 C 772.460938 1002.917969 772.101562 1003.328125 771.714844 1003.714844 C 771.328125 1004.101562 770.917969 1004.460938 770.484375 1004.792969 C 770.054688 1005.125 769.601562 1005.425781 769.125 1005.699219 Z M 769.125 1005.699219 " fill-opacity="1" fill-rule="nonzero"/><path fill="#0d1f23" d="M 981.425781 977.972656 C 981.003906 976.386719 980.429688 974.855469 979.703125 973.382812 C 978.980469 971.910156 978.117188 970.523438 977.117188 969.222656 C 976.117188 967.921875 975 966.730469 973.765625 965.648438 C 972.53125 964.566406 971.203125 963.617188 969.777344 962.800781 L 926.492188 937.808594 C 925.78125 937.398438 925.054688 937.023438 924.308594 936.6875 C 923.566406 936.347656 922.804688 936.046875 922.03125 935.785156 C 921.253906 935.523438 920.46875 935.296875 919.671875 935.109375 C 918.875 934.925781 918.070312 934.777344 917.257812 934.671875 C 916.449219 934.566406 915.632812 934.496094 914.816406 934.46875 C 913.996094 934.441406 913.179688 934.457031 912.363281 934.507812 C 911.546875 934.5625 910.734375 934.65625 909.925781 934.789062 C 909.121094 934.921875 908.320312 935.09375 907.53125 935.304688 C 906.738281 935.519531 905.960938 935.765625 905.195312 936.054688 C 904.429688 936.34375 903.679688 936.667969 902.945312 937.03125 C 902.210938 937.390625 901.496094 937.789062 900.800781 938.21875 C 900.105469 938.652344 899.433594 939.117188 898.785156 939.613281 C 898.132812 940.113281 897.511719 940.640625 896.914062 941.199219 C 896.316406 941.761719 895.746094 942.347656 895.207031 942.960938 C 894.667969 943.578125 894.160156 944.21875 893.683594 944.882812 C 893.203125 945.546875 892.761719 946.234375 892.351562 946.941406 L 766.328125 1165.238281 C 764.0625 1169.15625 762.359375 1173.308594 761.226562 1177.691406 C 760.089844 1182.074219 759.5625 1186.53125 759.640625 1191.054688 L 760.34375 1232.707031 C 760.351562 1233.242188 760.378906 1233.777344 760.421875 1234.3125 C 760.464844 1234.847656 760.523438 1235.378906 760.601562 1235.910156 C 760.679688 1236.441406 760.777344 1236.96875 760.886719 1237.496094 C 761 1238.019531 761.128906 1238.539062 761.273438 1239.058594 C 761.417969 1239.574219 761.582031 1240.085938 761.757812 1240.589844 C 761.9375 1241.097656 762.132812 1241.597656 762.34375 1242.089844 C 762.554688 1242.582031 762.78125 1243.070312 763.023438 1243.546875 C 763.265625 1244.027344 763.519531 1244.5 763.792969 1244.960938 C 764.066406 1245.421875 764.351562 1245.875 764.652344 1246.320312 C 764.953125 1246.765625 765.269531 1247.199219 765.597656 1247.621094 C 765.929688 1248.046875 766.269531 1248.457031 766.628906 1248.859375 C 766.984375 1249.261719 767.351562 1249.652344 767.734375 1250.027344 C 768.113281 1250.40625 768.507812 1250.769531 768.910156 1251.125 C 769.316406 1251.476562 769.730469 1251.816406 770.15625 1252.140625 C 770.582031 1252.46875 771.019531 1252.777344 771.464844 1253.078125 C 771.914062 1253.375 772.367188 1253.65625 772.832031 1253.925781 C 773.296875 1254.195312 773.769531 1254.445312 774.25 1254.683594 C 774.734375 1254.921875 775.21875 1255.144531 775.714844 1255.351562 C 776.210938 1255.558594 776.710938 1255.75 777.21875 1255.921875 C 777.726562 1256.097656 778.242188 1256.253906 778.757812 1256.394531 C 779.277344 1256.535156 779.796875 1256.660156 780.324219 1256.769531 C 780.847656 1256.875 781.378906 1256.964844 781.910156 1257.039062 C 782.441406 1257.113281 782.972656 1257.167969 783.507812 1257.207031 C 784.042969 1257.246094 784.578125 1257.269531 785.117188 1257.273438 C 785.652344 1257.277344 786.1875 1257.265625 786.726562 1257.234375 C 787.261719 1257.207031 787.796875 1257.160156 788.328125 1257.09375 C 788.859375 1257.03125 789.390625 1256.949219 789.917969 1256.851562 C 790.445312 1256.75 790.96875 1256.636719 791.488281 1256.503906 C 792.007812 1256.371094 792.523438 1256.222656 793.035156 1256.058594 C 793.546875 1255.890625 794.050781 1255.710938 794.546875 1255.511719 C 795.046875 1255.316406 795.539062 1255.101562 796.023438 1254.871094 C 796.507812 1254.640625 796.988281 1254.398438 797.457031 1254.136719 L 833.882812 1233.917969 C 837.84375 1231.714844 841.4375 1229.019531 844.667969 1225.839844 C 847.894531 1222.65625 850.640625 1219.101562 852.902344 1215.171875 L 978.914062 996.953125 C 979.738281 995.53125 980.417969 994.042969 980.949219 992.488281 C 981.480469 990.933594 981.855469 989.34375 982.070312 987.714844 C 982.285156 986.085938 982.339844 984.449219 982.230469 982.808594 C 982.121094 981.171875 981.855469 979.558594 981.425781 977.972656 Z M 831.269531 1202.714844 C 830.136719 1204.675781 828.761719 1206.449219 827.144531 1208.035156 C 825.527344 1209.621094 823.730469 1210.964844 821.75 1212.0625 L 785.335938 1232.304688 L 784.632812 1190.65625 C 784.59375 1188.390625 784.859375 1186.160156 785.425781 1183.96875 C 785.992188 1181.777344 786.839844 1179.699219 787.972656 1177.734375 L 913.996094 959.464844 L 957.28125 984.457031 Z M 831.269531 1202.714844 " fill-opacity="1" fill-rule="nonzero"/><g fill="#f5f5fa" fill-opacity="1"><g transform="translate(482.868494, 119.237334)"><g><path d="M 93.171875 0 L 66.703125 0 L 66.703125 -25.4375 L 33.484375 -25.4375 L 33.484375 0 L 7.03125 0 L 7.03125 -63.0625 L 33.484375 -63.0625 L 33.484375 -37.578125 L 66.703125 -37.578125 L 66.703125 -63.0625 L 93.171875 -63.0625 Z M 93.171875 0 "/></g></g><g transform="translate(583.063798, 119.237334)"><g><path d="M 47.6875 1.359375 C 32.09375 1.359375 20.617188 -1.847656 13.265625 -8.265625 C 6.765625 -13.941406 3.515625 -21.691406 3.515625 -31.515625 C 3.515625 -41.296875 6.765625 -49.03125 13.265625 -54.71875 C 20.617188 -61.132812 32.09375 -64.34375 47.6875 -64.34375 C 63.269531 -64.34375 74.738281 -61.132812 82.09375 -54.71875 C 88.59375 -49.03125 91.84375 -41.296875 91.84375 -31.515625 C 91.84375 -21.691406 88.59375 -13.941406 82.09375 -8.265625 C 74.738281 -1.847656 63.269531 1.359375 47.6875 1.359375 Z M 47.6875 -15.5625 C 54.070312 -15.5625 58.757812 -17.390625 61.75 -21.046875 C 64.144531 -24.003906 65.34375 -27.492188 65.34375 -31.515625 C 65.34375 -35.523438 64.144531 -38.992188 61.75 -41.921875 C 58.757812 -45.617188 54.070312 -47.46875 47.6875 -47.46875 C 41.289062 -47.46875 36.585938 -45.617188 33.578125 -41.921875 C 31.171875 -38.992188 29.96875 -35.523438 29.96875 -31.515625 C 29.96875 -27.492188 31.171875 -24.003906 33.578125 -21.046875 C 36.585938 -17.390625 41.289062 -15.5625 47.6875 -15.5625 Z M 47.6875 -15.5625 "/></g></g><g transform="translate(678.425118, 119.237334)"><g><path d="M 60.5625 0 L 35.984375 0 L 0.65625 -63.015625 L 27.46875 -63.015625 L 48.296875 -17.96875 L 69.078125 -63.015625 L 95.890625 -63.015625 Z M 60.5625 0 "/></g></g><g transform="translate(774.972962, 119.237334)"><g><path d="M 82.96875 0 L 7.03125 0 L 7.03125 -63.0625 L 79.5 -63.0625 L 79.5 -47.46875 L 33.484375 -47.46875 L 33.484375 -37.578125 L 72.375 -37.578125 L 72.375 -25.4375 L 33.484375 -25.4375 L 33.484375 -15.59375 L 82.96875 -15.59375 Z M 82.96875 0 "/></g></g><g transform="translate(861.45733, 119.237334)"><g><path d="M 93.125 0 L 68.109375 0 C 66.972656 -1.582031 66.171875 -3.601562 65.703125 -6.0625 C 65.285156 -7.96875 64.664062 -9.835938 63.84375 -11.671875 C 63.03125 -13.503906 61.617188 -15.023438 59.609375 -16.234375 C 57.609375 -17.453125 54.628906 -18.101562 50.671875 -18.1875 L 33.484375 -18.1875 L 33.484375 0 L 7.03125 0 L 7.03125 -63.0625 L 50.046875 -63.0625 C 60.335938 -63.0625 68.640625 -62.289062 74.953125 -60.75 C 81.265625 -59.21875 85.867188 -56.800781 88.765625 -53.5 C 91.671875 -50.207031 93.125 -45.910156 93.125 -40.609375 C 93.125 -36.179688 92.117188 -32.457031 90.109375 -29.4375 C 88.097656 -26.425781 84.925781 -24.039062 80.59375 -22.28125 C 84.78125 -20.550781 87.492188 -18.476562 88.734375 -16.0625 C 89.984375 -13.644531 90.757812 -10.988281 91.0625 -8.09375 C 91.351562 -5.507812 92.039062 -2.8125 93.125 0 Z M 33.484375 -33.75 L 48.609375 -33.796875 C 52.828125 -33.796875 56.148438 -33.984375 58.578125 -34.359375 C 61.015625 -34.742188 62.8125 -35.265625 63.96875 -35.921875 C 65.125 -36.585938 65.863281 -37.320312 66.1875 -38.125 C 66.507812 -38.925781 66.671875 -39.753906 66.671875 -40.609375 C 66.671875 -41.453125 66.507812 -42.285156 66.1875 -43.109375 C 65.863281 -43.929688 65.125 -44.671875 63.96875 -45.328125 C 62.8125 -45.984375 61.015625 -46.503906 58.578125 -46.890625 C 56.148438 -47.273438 52.828125 -47.46875 48.609375 -47.46875 L 33.484375 -47.46875 Z M 33.484375 -33.75 "/></g></g></g><g fill="#f5f5fa" fill-opacity="1"><g transform="translate(535.567708, 245.237324)"><g><path d="M 93.171875 0 L 66.703125 0 L 66.703125 -25.4375 L 33.484375 -25.4375 L 33.484375 0 L 7.03125 0 L 7.03125 -63.0625 L 33.484375 -63.0625 L 33.484375 -37.578125 L 66.703125 -37.578125 L 66.703125 -63.0625 L 93.171875 -63.0625 Z M 93.171875 0 "/></g></g><g transform="translate(635.763012, 245.237324)"><g><path d="M 82.96875 0 L 7.03125 0 L 7.03125 -63.0625 L 79.5 -63.0625 L 79.5 -47.46875 L 33.484375 -47.46875 L 33.484375 -37.578125 L 72.375 -37.578125 L 72.375 -25.4375 L 33.484375 -25.4375 L 33.484375 -15.59375 L 82.96875 -15.59375 Z M 82.96875 0 "/></g></g><g transform="translate(722.24738, 245.237324)"><g><path d="M 93.125 0 L 68.109375 0 C 66.972656 -1.582031 66.171875 -3.601562 65.703125 -6.0625 C 65.285156 -7.96875 64.664062 -9.835938 63.84375 -11.671875 C 63.03125 -13.503906 61.617188 -15.023438 59.609375 -16.234375 C 57.609375 -17.453125 54.628906 -18.101562 50.671875 -18.1875 L 33.484375 -18.1875 L 33.484375 0 L 7.03125 0 L 7.03125 -63.0625 L 50.046875 -63.0625 C 60.335938 -63.0625 68.640625 -62.289062 74.953125 -60.75 C 81.265625 -59.21875 85.867188 -56.800781 88.765625 -53.5 C 91.671875 -50.207031 93.125 -45.910156 93.125 -40.609375 C 93.125 -36.179688 92.117188 -32.457031 90.109375 -29.4375 C 88.097656 -26.425781 84.925781 -24.039062 80.59375 -22.28125 C 84.78125 -20.550781 87.492188 -18.476562 88.734375 -16.0625 C 89.984375 -13.644531 90.757812 -10.988281 91.0625 -8.09375 C 91.351562 -5.507812 92.039062 -2.8125 93.125 0 Z M 33.484375 -33.75 L 48.609375 -33.796875 C 52.828125 -33.796875 56.148438 -33.984375 58.578125 -34.359375 C 61.015625 -34.742188 62.8125 -35.265625 63.96875 -35.921875 C 65.125 -36.585938 65.863281 -37.320312 66.1875 -38.125 C 66.507812 -38.925781 66.671875 -39.753906 66.671875 -40.609375 C 66.671875 -41.453125 66.507812 -42.285156 66.1875 -43.109375 C 65.863281 -43.929688 65.125 -44.671875 63.96875 -45.328125 C 62.8125 -45.984375 61.015625 -46.503906 58.578125 -46.890625 C 56.148438 -47.273438 52.828125 -47.46875 48.609375 -47.46875 L 33.484375 -47.46875 Z M 33.484375 -33.75 "/></g></g><g transform="translate(818.883114, 245.237324)"><g><path d="M 82.96875 0 L 7.03125 0 L 7.03125 -63.0625 L 79.5 -63.0625 L 79.5 -47.46875 L 33.484375 -47.46875 L 33.484375 -37.578125 L 72.375 -37.578125 L 72.375 -25.4375 L 33.484375 -25.4375 L 33.484375 -15.59375 L 82.96875 -15.59375 Z M 82.96875 0 "/></g></g></g><g fill="#f5f5fa" fill-opacity="1"><g transform="translate(958.087222, 1901.080163)"><g><path d="M -93.171875 0 L -66.703125 0 L -66.703125 25.4375 L -33.484375 25.4375 L -33.484375 0 L -7.03125 0 L -7.03125 63.0625 L -33.484375 63.0625 L -33.484375 37.578125 L -66.703125 37.578125 L -66.703125 63.0625 L -93.171875 63.0625 Z M -93.171875 0 "/></g></g><g transform="translate(857.891918, 1901.080163)"><g><path d="M -47.6875 -1.359375 C -32.09375 -1.359375 -20.617188 1.847656 -13.265625 8.265625 C -6.765625 13.941406 -3.515625 21.691406 -3.515625 31.515625 C -3.515625 41.296875 -6.765625 49.03125 -13.265625 54.71875 C -20.617188 61.132812 -32.09375 64.34375 -47.6875 64.34375 C -63.269531 64.34375 -74.738281 61.132812 -82.09375 54.71875 C -88.59375 49.03125 -91.84375 41.296875 -91.84375 31.515625 C -91.84375 21.691406 -88.59375 13.941406 -82.09375 8.265625 C -74.738281 1.847656 -63.269531 -1.359375 -47.6875 -1.359375 Z M -47.6875 15.5625 C -54.070312 15.5625 -58.757812 17.390625 -61.75 21.046875 C -64.144531 24.003906 -65.34375 27.492188 -65.34375 31.515625 C -65.34375 35.523438 -64.144531 38.992188 -61.75 41.921875 C -58.757812 45.617188 -54.070312 47.46875 -47.6875 47.46875 C -41.289062 47.46875 -36.585938 45.617188 -33.578125 41.921875 C -31.171875 38.992188 -29.96875 35.523438 -29.96875 31.515625 C -29.96875 27.492188 -31.171875 24.003906 -33.578125 21.046875 C -36.585938 17.390625 -41.289062 15.5625 -47.6875 15.5625 Z M -47.6875 15.5625 "/></g></g><g transform="translate(762.530598, 1901.080163)"><g><path d="M -60.5625 0 L -35.984375 0 L -0.65625 63.015625 L -27.46875 63.015625 L -48.296875 17.96875 L -69.078125 63.015625 L -95.890625 63.015625 Z M -60.5625 0 "/></g></g><g transform="translate(665.982754, 1901.080163)"><g><path d="M -82.96875 0 L -7.03125 0 L -7.03125 63.0625 L -79.5 63.0625 L -79.5 47.46875 L -33.484375 47.46875 L -33.484375 37.578125 L -72.375 37.578125 L -72.375 25.4375 L -33.484375 25.4375 L -33.484375 15.59375 L -82.96875 15.59375 Z M -82.96875 0 "/></g></g><g transform="translate(579.498386, 1901.080163)"><g><path d="M -93.125 0 L -68.109375 0 C -66.972656 1.582031 -66.171875 3.601562 -65.703125 6.0625 C -65.285156 7.96875 -64.664062 9.835938 -63.84375 11.671875 C -63.03125 13.503906 -61.617188 15.023438 -59.609375 16.234375 C -57.609375 17.453125 -54.628906 18.101562 -50.671875 18.1875 L -33.484375 18.1875 L -33.484375 0 L -7.03125 0 L -7.03125 63.0625 L -50.046875 63.0625 C -60.335938 63.0625 -68.640625 62.289062 -74.953125 60.75 C -81.265625 59.21875 -85.867188 56.800781 -88.765625 53.5 C -91.671875 50.207031 -93.125 45.910156 -93.125 40.609375 C -93.125 36.179688 -92.117188 32.457031 -90.109375 29.4375 C -88.097656 26.425781 -84.925781 24.039062 -80.59375 22.28125 C -84.78125 20.550781 -87.492188 18.476562 -88.734375 16.0625 C -89.984375 13.644531 -90.757812 10.988281 -91.0625 8.09375 C -91.351562 5.507812 -92.039062 2.8125 -93.125 0 Z M -33.484375 33.75 L -48.609375 33.796875 C -52.828125 33.796875 -56.148438 33.984375 -58.578125 34.359375 C -61.015625 34.742188 -62.8125 35.265625 -63.96875 35.921875 C -65.125 36.585938 -65.863281 37.320312 -66.1875 38.125 C -66.507812 38.925781 -66.671875 39.753906 -66.671875 40.609375 C -66.671875 41.453125 -66.507812 42.285156 -66.1875 43.109375 C -65.863281 43.929688 -65.125 44.671875 -63.96875 45.328125 C -62.8125 45.984375 -61.015625 46.503906 -58.578125 46.890625 C -56.148438 47.273438 -52.828125 47.46875 -48.609375 47.46875 L -33.484375 47.46875 Z M -33.484375 33.75 "/></g></g></g><g fill="#f5f5fa" fill-opacity="1"><g transform="translate(905.388008, 1775.080174)"><g><path d="M -93.171875 0 L -66.703125 0 L -66.703125 25.4375 L -33.484375 25.4375 L -33.484375 0 L -7.03125 0 L -7.03125 63.0625 L -33.484375 63.0625 L -33.484375 37.578125 L -66.703125 37.578125 L -66.703125 63.0625 L -93.171875 63.0625 Z M -93.171875 0 "/></g></g><g transform="translate(805.192704, 1775.080174)"><g><path d="M -82.96875 0 L -7.03125 0 L -7.03125 63.0625 L -79.5 63.0625 L -79.5 47.46875 L -33.484375 47.46875 L -33.484375 37.578125 L -72.375 37.578125 L -72.375 25.4375 L -33.484375 25.4375 L -33.484375 15.59375 L -82.96875 15.59375 Z M -82.96875 0 "/></g></g><g transform="translate(718.708336, 1775.080174)"><g><path d="M -93.125 0 L -68.109375 0 C -66.972656 1.582031 -66.171875 3.601562 -65.703125 6.0625 C -65.285156 7.96875 -64.664062 9.835938 -63.84375 11.671875 C -63.03125 13.503906 -61.617188 15.023438 -59.609375 16.234375 C -57.609375 17.453125 -54.628906 18.101562 -50.671875 18.1875 L -33.484375 18.1875 L -33.484375 0 L -7.03125 0 L -7.03125 63.0625 L -50.046875 63.0625 C -60.335938 63.0625 -68.640625 62.289062 -74.953125 60.75 C -81.265625 59.21875 -85.867188 56.800781 -88.765625 53.5 C -91.671875 50.207031 -93.125 45.910156 -93.125 40.609375 C -93.125 36.179688 -92.117188 32.457031 -90.109375 29.4375 C -88.097656 26.425781 -84.925781 24.039062 -80.59375 22.28125 C -84.78125 20.550781 -87.492188 18.476562 -88.734375 16.0625 C -89.984375 13.644531 -90.757812 10.988281 -91.0625 8.09375 C -91.351562 5.507812 -92.039062 2.8125 -93.125 0 Z M -33.484375 33.75 L -48.609375 33.796875 C -52.828125 33.796875 -56.148438 33.984375 -58.578125 34.359375 C -61.015625 34.742188 -62.8125 35.265625 -63.96875 35.921875 C -65.125 36.585938 -65.863281 37.320312 -66.1875 38.125 C -66.507812 38.925781 -66.671875 39.753906 -66.671875 40.609375 C -66.671875 41.453125 -66.507812 42.285156 -66.1875 43.109375 C -65.863281 43.929688 -65.125 44.671875 -63.96875 45.328125 C -62.8125 45.984375 -61.015625 46.503906 -58.578125 46.890625 C -56.148438 47.273438 -52.828125 47.46875 -48.609375 47.46875 L -33.484375 47.46875 Z M -33.484375 33.75 "/></g></g><g transform="translate(622.072602, 1775.080174)"><g><path d="M -82.96875 0 L -7.03125 0 L -7.03125 63.0625 L -79.5 63.0625 L -79.5 47.46875 L -33.484375 47.46875 L -33.484375 37.578125 L -72.375 37.578125 L -72.375 25.4375 L -33.484375 25.4375 L -33.484375 15.59375 L -82.96875 15.59375 Z M -82.96875 0 "/></g></g></g></svg>