<svg xmlns="http://www.w3.org/2000/svg" xmlns:xlink="http://www.w3.org/1999/xlink" width="1920" zoomAndPan="magnify" viewBox="0 0 1440 2015.999918" height="2688" preserveAspectRatio="xMidYMid meet" version="1.0"><defs><g/><linearGradient x1="1" gradientTransform="matrix(0, 2021.999918, -2021.999918, 0, 1731.482659, -6)" y1="0.5" x2="0.00296736" gradientUnits="userSpaceOnUse" y2="0.5" id="0e61614508"><stop stop-opacity="1" stop-color="rgb(7.499695%, 17.999268%, 20.799255%)" offset="0"/><stop stop-opacity="1" stop-color="rgb(7.737732%, 18.202209%, 20.99762%)" offset="0.00390625"/><stop stop-opacity="1" stop-color="rgb(7.975769%, 18.405151%, 21.195984%)" offset="0.0078125"/><stop stop-opacity="1" stop-color="rgb(8.213806%, 18.608093%, 21.394348%)" offset="0.0117187"/><stop stop-opacity="1" stop-color="rgb(8.451843%, 18.812561%, 21.594238%)" offset="0.015625"/><stop stop-opacity="1" stop-color="rgb(8.688354%, 19.015503%, 21.792603%)" offset="0.0195312"/><stop stop-opacity="1" stop-color="rgb(8.926392%, 19.218445%, 21.990967%)" offset="0.0234375"/><stop stop-opacity="1" stop-color="rgb(9.164429%, 19.421387%, 22.189331%)" offset="0.0273438"/><stop stop-opacity="1" stop-color="rgb(9.402466%, 19.625854%, 22.387695%)" offset="0.03125"/><stop stop-opacity="1" stop-color="rgb(9.640503%, 19.828796%, 22.58606%)" offset="0.0351562"/><stop stop-opacity="1" stop-color="rgb(9.87854%, 20.031738%, 22.78595%)" offset="0.0390625"/><stop stop-opacity="1" stop-color="rgb(10.116577%, 20.23468%, 22.984314%)" offset="0.0429687"/><stop stop-opacity="1" stop-color="rgb(10.354614%, 20.439148%, 23.182678%)" offset="0.046875"/><stop stop-opacity="1" stop-color="rgb(10.592651%, 20.64209%, 23.381042%)" offset="0.0507812"/><stop stop-opacity="1" stop-color="rgb(10.830688%, 20.845032%, 23.579407%)" offset="0.0546875"/><stop stop-opacity="1" stop-color="rgb(11.068726%, 21.047974%, 23.777771%)" offset="0.0585938"/><stop stop-opacity="1" stop-color="rgb(11.306763%, 21.252441%, 23.977661%)" offset="0.0625"/><stop stop-opacity="1" stop-color="rgb(11.5448%, 21.455383%, 24.176025%)" offset="0.0664062"/><stop stop-opacity="1" stop-color="rgb(11.782837%, 21.658325%, 24.37439%)" offset="0.0703125"/><stop stop-opacity="1" stop-color="rgb(12.020874%, 21.861267%, 24.572754%)" offset="0.0742187"/><stop stop-opacity="1" stop-color="rgb(12.258911%, 22.065735%, 24.771118%)" offset="0.078125"/><stop stop-opacity="1" stop-color="rgb(12.496948%, 22.268677%, 24.969482%)" offset="0.0820312"/><stop stop-opacity="1" stop-color="rgb(12.734985%, 22.471619%, 25.169373%)" offset="0.0859375"/><stop stop-opacity="1" stop-color="rgb(12.973022%, 22.674561%, 25.367737%)" offset="0.0898437"/><stop stop-opacity="1" stop-color="rgb(13.21106%, 22.879028%, 25.566101%)" offset="0.09375"/><stop stop-opacity="1" stop-color="rgb(13.447571%, 23.08197%, 25.764465%)" offset="0.0976562"/><stop stop-opacity="1" stop-color="rgb(13.685608%, 23.284912%, 25.96283%)" offset="0.101562"/><stop stop-opacity="1" stop-color="rgb(13.923645%, 23.487854%, 26.161194%)" offset="0.105469"/><stop stop-opacity="1" stop-color="rgb(14.161682%, 23.692322%, 26.361084%)" offset="0.109375"/><stop stop-opacity="1" stop-color="rgb(14.399719%, 23.895264%, 26.559448%)" offset="0.113281"/><stop stop-opacity="1" stop-color="rgb(14.637756%, 24.098206%, 26.757812%)" offset="0.117188"/><stop stop-opacity="1" stop-color="rgb(14.875793%, 24.301147%, 26.956177%)" offset="0.121094"/><stop stop-opacity="1" stop-color="rgb(15.113831%, 24.505615%, 27.156067%)" offset="0.125"/><stop stop-opacity="1" stop-color="rgb(15.351868%, 24.708557%, 27.354431%)" offset="0.128906"/><stop stop-opacity="1" stop-color="rgb(15.589905%, 24.911499%, 27.552795%)" offset="0.132812"/><stop stop-opacity="1" stop-color="rgb(15.827942%, 25.114441%, 27.75116%)" offset="0.136719"/><stop stop-opacity="1" stop-color="rgb(16.065979%, 25.317383%, 27.949524%)" offset="0.140625"/><stop stop-opacity="1" stop-color="rgb(16.304016%, 25.520325%, 28.147888%)" offset="0.144531"/><stop stop-opacity="1" stop-color="rgb(16.542053%, 25.724792%, 28.347778%)" offset="0.148437"/><stop stop-opacity="1" stop-color="rgb(16.78009%, 25.927734%, 28.546143%)" offset="0.152344"/><stop stop-opacity="1" stop-color="rgb(17.018127%, 26.130676%, 28.744507%)" offset="0.15625"/><stop stop-opacity="1" stop-color="rgb(17.256165%, 26.333618%, 28.942871%)" offset="0.160156"/><stop stop-opacity="1" stop-color="rgb(17.494202%, 26.538086%, 29.141235%)" offset="0.164062"/><stop stop-opacity="1" stop-color="rgb(17.732239%, 26.741028%, 29.3396%)" offset="0.167969"/><stop stop-opacity="1" stop-color="rgb(17.970276%, 26.94397%, 29.53949%)" offset="0.171875"/><stop stop-opacity="1" stop-color="rgb(18.206787%, 27.146912%, 29.737854%)" offset="0.175781"/><stop stop-opacity="1" stop-color="rgb(18.444824%, 27.351379%, 29.936218%)" offset="0.179687"/><stop stop-opacity="1" stop-color="rgb(18.682861%, 27.554321%, 30.134583%)" offset="0.183594"/><stop stop-opacity="1" stop-color="rgb(18.920898%, 27.757263%, 30.332947%)" offset="0.1875"/><stop stop-opacity="1" stop-color="rgb(19.158936%, 27.960205%, 30.531311%)" offset="0.191406"/><stop stop-opacity="1" stop-color="rgb(19.396973%, 28.164673%, 30.731201%)" offset="0.195312"/><stop stop-opacity="1" stop-color="rgb(19.63501%, 28.367615%, 30.929565%)" offset="0.199219"/><stop stop-opacity="1" stop-color="rgb(19.873047%, 28.570557%, 31.12793%)" offset="0.203125"/><stop stop-opacity="1" stop-color="rgb(20.111084%, 28.773499%, 31.326294%)" offset="0.207031"/><stop stop-opacity="1" stop-color="rgb(20.349121%, 28.977966%, 31.524658%)" offset="0.210938"/><stop stop-opacity="1" stop-color="rgb(20.587158%, 29.180908%, 31.723022%)" offset="0.214844"/><stop stop-opacity="1" stop-color="rgb(20.825195%, 29.38385%, 31.922913%)" offset="0.21875"/><stop stop-opacity="1" stop-color="rgb(21.063232%, 29.586792%, 32.121277%)" offset="0.222656"/><stop stop-opacity="1" stop-color="rgb(21.30127%, 29.79126%, 32.319641%)" offset="0.226562"/><stop stop-opacity="1" stop-color="rgb(21.539307%, 29.994202%, 32.518005%)" offset="0.230469"/><stop stop-opacity="1" stop-color="rgb(21.777344%, 30.197144%, 32.71637%)" offset="0.234375"/><stop stop-opacity="1" stop-color="rgb(22.015381%, 30.400085%, 32.914734%)" offset="0.238281"/><stop stop-opacity="1" stop-color="rgb(22.253418%, 30.604553%, 33.114624%)" offset="0.242188"/><stop stop-opacity="1" stop-color="rgb(22.491455%, 30.807495%, 33.312988%)" offset="0.246094"/><stop stop-opacity="1" stop-color="rgb(22.729492%, 31.010437%, 33.511353%)" offset="0.25"/><stop stop-opacity="1" stop-color="rgb(22.967529%, 31.213379%, 33.709717%)" offset="0.253906"/><stop stop-opacity="1" stop-color="rgb(23.205566%, 31.417847%, 33.908081%)" offset="0.257812"/><stop stop-opacity="1" stop-color="rgb(23.442078%, 31.620789%, 34.106445%)" offset="0.261719"/><stop stop-opacity="1" stop-color="rgb(23.680115%, 31.82373%, 34.306335%)" offset="0.265625"/><stop stop-opacity="1" stop-color="rgb(23.918152%, 32.026672%, 34.5047%)" offset="0.269531"/><stop stop-opacity="1" stop-color="rgb(24.156189%, 32.229614%, 34.703064%)" offset="0.273437"/><stop stop-opacity="1" stop-color="rgb(24.394226%, 32.432556%, 34.901428%)" offset="0.277344"/><stop stop-opacity="1" stop-color="rgb(24.632263%, 32.637024%, 35.099792%)" offset="0.28125"/><stop stop-opacity="1" stop-color="rgb(24.8703%, 32.839966%, 35.298157%)" offset="0.285156"/><stop stop-opacity="1" stop-color="rgb(25.108337%, 33.042908%, 35.498047%)" offset="0.289062"/><stop stop-opacity="1" stop-color="rgb(25.346375%, 33.24585%, 35.696411%)" offset="0.292969"/><stop stop-opacity="1" stop-color="rgb(25.584412%, 33.450317%, 35.894775%)" offset="0.296875"/><stop stop-opacity="1" stop-color="rgb(25.822449%, 33.653259%, 36.09314%)" offset="0.300781"/><stop stop-opacity="1" stop-color="rgb(26.060486%, 33.856201%, 36.291504%)" offset="0.304687"/><stop stop-opacity="1" stop-color="rgb(26.298523%, 34.059143%, 36.489868%)" offset="0.308594"/><stop stop-opacity="1" stop-color="rgb(26.53656%, 34.263611%, 36.689758%)" offset="0.3125"/><stop stop-opacity="1" stop-color="rgb(26.774597%, 34.466553%, 36.888123%)" offset="0.316406"/><stop stop-opacity="1" stop-color="rgb(27.012634%, 34.669495%, 37.086487%)" offset="0.320312"/><stop stop-opacity="1" stop-color="rgb(27.250671%, 34.872437%, 37.284851%)" offset="0.324219"/><stop stop-opacity="1" stop-color="rgb(27.488708%, 35.076904%, 37.483215%)" offset="0.328125"/><stop stop-opacity="1" stop-color="rgb(27.726746%, 35.279846%, 37.68158%)" offset="0.332031"/><stop stop-opacity="1" stop-color="rgb(27.964783%, 35.482788%, 37.88147%)" offset="0.335937"/><stop stop-opacity="1" stop-color="rgb(28.201294%, 35.68573%, 38.079834%)" offset="0.339844"/><stop stop-opacity="1" stop-color="rgb(28.439331%, 35.890198%, 38.278198%)" offset="0.34375"/><stop stop-opacity="1" stop-color="rgb(28.677368%, 36.09314%, 38.476562%)" offset="0.347656"/><stop stop-opacity="1" stop-color="rgb(28.915405%, 36.296082%, 38.676453%)" offset="0.351562"/><stop stop-opacity="1" stop-color="rgb(29.153442%, 36.499023%, 38.874817%)" offset="0.355469"/><stop stop-opacity="1" stop-color="rgb(29.391479%, 36.703491%, 39.073181%)" offset="0.359375"/><stop stop-opacity="1" stop-color="rgb(29.629517%, 36.906433%, 39.271545%)" offset="0.363281"/><stop stop-opacity="1" stop-color="rgb(29.867554%, 37.109375%, 39.46991%)" offset="0.367187"/><stop stop-opacity="1" stop-color="rgb(30.105591%, 37.312317%, 39.668274%)" offset="0.371094"/><stop stop-opacity="1" stop-color="rgb(30.343628%, 37.516785%, 39.868164%)" offset="0.375"/><stop stop-opacity="1" stop-color="rgb(30.581665%, 37.719727%, 40.066528%)" offset="0.378906"/><stop stop-opacity="1" stop-color="rgb(30.819702%, 37.922668%, 40.264893%)" offset="0.382812"/><stop stop-opacity="1" stop-color="rgb(31.057739%, 38.12561%, 40.463257%)" offset="0.386719"/><stop stop-opacity="1" stop-color="rgb(31.295776%, 38.330078%, 40.661621%)" offset="0.390625"/><stop stop-opacity="1" stop-color="rgb(31.533813%, 38.53302%, 40.859985%)" offset="0.394531"/><stop stop-opacity="1" stop-color="rgb(31.771851%, 38.735962%, 41.059875%)" offset="0.398438"/><stop stop-opacity="1" stop-color="rgb(32.009888%, 38.938904%, 41.25824%)" offset="0.402344"/><stop stop-opacity="1" stop-color="rgb(32.247925%, 39.141846%, 41.456604%)" offset="0.40625"/><stop stop-opacity="1" stop-color="rgb(32.485962%, 39.344788%, 41.654968%)" offset="0.410156"/><stop stop-opacity="1" stop-color="rgb(32.723999%, 39.549255%, 41.853333%)" offset="0.414062"/><stop stop-opacity="1" stop-color="rgb(32.962036%, 39.752197%, 42.051697%)" offset="0.417969"/><stop stop-opacity="1" stop-color="rgb(33.200073%, 39.955139%, 42.251587%)" offset="0.421875"/><stop stop-opacity="1" stop-color="rgb(33.436584%, 40.158081%, 42.449951%)" offset="0.425781"/><stop stop-opacity="1" stop-color="rgb(33.674622%, 40.362549%, 42.648315%)" offset="0.429688"/><stop stop-opacity="1" stop-color="rgb(33.912659%, 40.565491%, 42.84668%)" offset="0.433594"/><stop stop-opacity="1" stop-color="rgb(34.150696%, 40.768433%, 43.045044%)" offset="0.4375"/><stop stop-opacity="1" stop-color="rgb(34.388733%, 40.971375%, 43.243408%)" offset="0.441406"/><stop stop-opacity="1" stop-color="rgb(34.62677%, 41.175842%, 43.443298%)" offset="0.445312"/><stop stop-opacity="1" stop-color="rgb(34.864807%, 41.378784%, 43.641663%)" offset="0.449219"/><stop stop-opacity="1" stop-color="rgb(35.102844%, 41.581726%, 43.840027%)" offset="0.453125"/><stop stop-opacity="1" stop-color="rgb(35.340881%, 41.784668%, 44.038391%)" offset="0.457031"/><stop stop-opacity="1" stop-color="rgb(35.578918%, 41.989136%, 44.236755%)" offset="0.460938"/><stop stop-opacity="1" stop-color="rgb(35.816956%, 42.192078%, 44.43512%)" offset="0.464844"/><stop stop-opacity="1" stop-color="rgb(36.054993%, 42.39502%, 44.63501%)" offset="0.46875"/><stop stop-opacity="1" stop-color="rgb(36.29303%, 42.597961%, 44.833374%)" offset="0.472656"/><stop stop-opacity="1" stop-color="rgb(36.531067%, 42.802429%, 45.031738%)" offset="0.476562"/><stop stop-opacity="1" stop-color="rgb(36.769104%, 43.005371%, 45.230103%)" offset="0.480469"/><stop stop-opacity="1" stop-color="rgb(37.007141%, 43.208313%, 45.428467%)" offset="0.484375"/><stop stop-opacity="1" stop-color="rgb(37.245178%, 43.411255%, 45.626831%)" offset="0.488281"/><stop stop-opacity="1" stop-color="rgb(37.483215%, 43.615723%, 45.826721%)" offset="0.492188"/><stop stop-opacity="1" stop-color="rgb(37.721252%, 43.818665%, 46.025085%)" offset="0.496094"/><stop stop-opacity="1" stop-color="rgb(37.95929%, 44.021606%, 46.22345%)" offset="0.5"/><stop stop-opacity="1" stop-color="rgb(38.195801%, 44.224548%, 46.421814%)" offset="0.503906"/><stop stop-opacity="1" stop-color="rgb(38.433838%, 44.429016%, 46.620178%)" offset="0.507812"/><stop stop-opacity="1" stop-color="rgb(38.671875%, 44.631958%, 46.818542%)" offset="0.511719"/><stop stop-opacity="1" stop-color="rgb(38.909912%, 44.8349%, 47.018433%)" offset="0.515625"/><stop stop-opacity="1" stop-color="rgb(39.147949%, 45.037842%, 47.216797%)" offset="0.519531"/><stop stop-opacity="1" stop-color="rgb(39.385986%, 45.24231%, 47.415161%)" offset="0.523437"/><stop stop-opacity="1" stop-color="rgb(39.624023%, 45.445251%, 47.613525%)" offset="0.527344"/><stop stop-opacity="1" stop-color="rgb(39.862061%, 45.648193%, 47.81189%)" offset="0.53125"/><stop stop-opacity="1" stop-color="rgb(40.100098%, 45.851135%, 48.010254%)" offset="0.535156"/><stop stop-opacity="1" stop-color="rgb(40.338135%, 46.054077%, 48.210144%)" offset="0.539062"/><stop stop-opacity="1" stop-color="rgb(40.576172%, 46.257019%, 48.408508%)" offset="0.542969"/><stop stop-opacity="1" stop-color="rgb(40.814209%, 46.461487%, 48.606873%)" offset="0.546875"/><stop stop-opacity="1" stop-color="rgb(41.052246%, 46.664429%, 48.805237%)" offset="0.550781"/><stop stop-opacity="1" stop-color="rgb(41.290283%, 46.867371%, 49.003601%)" offset="0.554687"/><stop stop-opacity="1" stop-color="rgb(41.52832%, 47.070312%, 49.201965%)" offset="0.558594"/><stop stop-opacity="1" stop-color="rgb(41.766357%, 47.27478%, 49.401855%)" offset="0.5625"/><stop stop-opacity="1" stop-color="rgb(42.004395%, 47.477722%, 49.60022%)" offset="0.566406"/><stop stop-opacity="1" stop-color="rgb(42.242432%, 47.680664%, 49.798584%)" offset="0.570312"/><stop stop-opacity="1" stop-color="rgb(42.480469%, 47.883606%, 49.996948%)" offset="0.574219"/><stop stop-opacity="1" stop-color="rgb(42.718506%, 48.088074%, 50.196838%)" offset="0.578125"/><stop stop-opacity="1" stop-color="rgb(42.955017%, 48.291016%, 50.395203%)" offset="0.582031"/><stop stop-opacity="1" stop-color="rgb(43.193054%, 48.493958%, 50.593567%)" offset="0.585937"/><stop stop-opacity="1" stop-color="rgb(43.431091%, 48.696899%, 50.791931%)" offset="0.589844"/><stop stop-opacity="1" stop-color="rgb(43.669128%, 48.901367%, 50.990295%)" offset="0.59375"/><stop stop-opacity="1" stop-color="rgb(43.907166%, 49.104309%, 51.18866%)" offset="0.597656"/><stop stop-opacity="1" stop-color="rgb(44.145203%, 49.307251%, 51.38855%)" offset="0.601562"/><stop stop-opacity="1" stop-color="rgb(44.38324%, 49.510193%, 51.586914%)" offset="0.605469"/><stop stop-opacity="1" stop-color="rgb(44.621277%, 49.714661%, 51.785278%)" offset="0.609375"/><stop stop-opacity="1" stop-color="rgb(44.859314%, 49.917603%, 51.983643%)" offset="0.613281"/><stop stop-opacity="1" stop-color="rgb(45.097351%, 50.120544%, 52.182007%)" offset="0.617187"/><stop stop-opacity="1" stop-color="rgb(45.335388%, 50.323486%, 52.380371%)" offset="0.621094"/><stop stop-opacity="1" stop-color="rgb(45.573425%, 50.527954%, 52.580261%)" offset="0.625"/><stop stop-opacity="1" stop-color="rgb(45.811462%, 50.730896%, 52.778625%)" offset="0.628906"/><stop stop-opacity="1" stop-color="rgb(46.0495%, 50.933838%, 52.97699%)" offset="0.632812"/><stop stop-opacity="1" stop-color="rgb(46.287537%, 51.13678%, 53.175354%)" offset="0.636719"/><stop stop-opacity="1" stop-color="rgb(46.525574%, 51.341248%, 53.373718%)" offset="0.640625"/><stop stop-opacity="1" stop-color="rgb(46.763611%, 51.544189%, 53.572083%)" offset="0.644531"/><stop stop-opacity="1" stop-color="rgb(47.001648%, 51.747131%, 53.771973%)" offset="0.648437"/><stop stop-opacity="1" stop-color="rgb(47.239685%, 51.950073%, 53.970337%)" offset="0.652344"/><stop stop-opacity="1" stop-color="rgb(47.477722%, 52.154541%, 54.168701%)" offset="0.65625"/><stop stop-opacity="1" stop-color="rgb(47.715759%, 52.357483%, 54.367065%)" offset="0.660156"/><stop stop-opacity="1" stop-color="rgb(47.953796%, 52.560425%, 54.56543%)" offset="0.664062"/><stop stop-opacity="1" stop-color="rgb(48.190308%, 52.763367%, 54.763794%)" offset="0.667969"/><stop stop-opacity="1" stop-color="rgb(48.428345%, 52.966309%, 54.963684%)" offset="0.671875"/><stop stop-opacity="1" stop-color="rgb(48.666382%, 53.16925%, 55.162048%)" offset="0.675781"/><stop stop-opacity="1" stop-color="rgb(48.904419%, 53.373718%, 55.360413%)" offset="0.679687"/><stop stop-opacity="1" stop-color="rgb(49.142456%, 53.57666%, 55.558777%)" offset="0.683594"/><stop stop-opacity="1" stop-color="rgb(49.380493%, 53.779602%, 55.757141%)" offset="0.6875"/><stop stop-opacity="1" stop-color="rgb(49.61853%, 53.982544%, 55.955505%)" offset="0.691406"/><stop stop-opacity="1" stop-color="rgb(49.856567%, 54.187012%, 56.155396%)" offset="0.695312"/><stop stop-opacity="1" stop-color="rgb(50.094604%, 54.389954%, 56.35376%)" offset="0.699219"/><stop stop-opacity="1" stop-color="rgb(50.332642%, 54.592896%, 56.552124%)" offset="0.703125"/><stop stop-opacity="1" stop-color="rgb(50.570679%, 54.795837%, 56.750488%)" offset="0.707031"/><stop stop-opacity="1" stop-color="rgb(50.808716%, 55.000305%, 56.948853%)" offset="0.710937"/><stop stop-opacity="1" stop-color="rgb(51.046753%, 55.203247%, 57.147217%)" offset="0.714844"/><stop stop-opacity="1" stop-color="rgb(51.28479%, 55.406189%, 57.347107%)" offset="0.71875"/><stop stop-opacity="1" stop-color="rgb(51.522827%, 55.609131%, 57.545471%)" offset="0.722656"/><stop stop-opacity="1" stop-color="rgb(51.760864%, 55.813599%, 57.743835%)" offset="0.726562"/><stop stop-opacity="1" stop-color="rgb(51.998901%, 56.016541%, 57.9422%)" offset="0.730469"/><stop stop-opacity="1" stop-color="rgb(52.236938%, 56.219482%, 58.140564%)" offset="0.734375"/><stop stop-opacity="1" stop-color="rgb(52.474976%, 56.422424%, 58.338928%)" offset="0.738281"/><stop stop-opacity="1" stop-color="rgb(52.713013%, 56.626892%, 58.538818%)" offset="0.742187"/><stop stop-opacity="1" stop-color="rgb(52.949524%, 56.829834%, 58.737183%)" offset="0.746094"/><stop stop-opacity="1" stop-color="rgb(53.187561%, 57.032776%, 58.935547%)" offset="0.75"/><stop stop-opacity="1" stop-color="rgb(53.425598%, 57.235718%, 59.133911%)" offset="0.753906"/><stop stop-opacity="1" stop-color="rgb(53.663635%, 57.440186%, 59.332275%)" offset="0.757812"/><stop stop-opacity="1" stop-color="rgb(53.901672%, 57.643127%, 59.53064%)" offset="0.761719"/><stop stop-opacity="1" stop-color="rgb(54.139709%, 57.846069%, 59.73053%)" offset="0.765625"/><stop stop-opacity="1" stop-color="rgb(54.377747%, 58.049011%, 59.928894%)" offset="0.769531"/><stop stop-opacity="1" stop-color="rgb(54.615784%, 58.253479%, 60.127258%)" offset="0.773438"/><stop stop-opacity="1" stop-color="rgb(54.853821%, 58.456421%, 60.325623%)" offset="0.777344"/><stop stop-opacity="1" stop-color="rgb(55.091858%, 58.659363%, 60.525513%)" offset="0.78125"/><stop stop-opacity="1" stop-color="rgb(55.329895%, 58.862305%, 60.723877%)" offset="0.785156"/><stop stop-opacity="1" stop-color="rgb(55.567932%, 59.066772%, 60.922241%)" offset="0.789062"/><stop stop-opacity="1" stop-color="rgb(55.805969%, 59.269714%, 61.120605%)" offset="0.792969"/><stop stop-opacity="1" stop-color="rgb(56.044006%, 59.472656%, 61.31897%)" offset="0.796875"/><stop stop-opacity="1" stop-color="rgb(56.282043%, 59.675598%, 61.517334%)" offset="0.800781"/><stop stop-opacity="1" stop-color="rgb(56.520081%, 59.87854%, 61.717224%)" offset="0.804688"/><stop stop-opacity="1" stop-color="rgb(56.758118%, 60.081482%, 61.915588%)" offset="0.808594"/><stop stop-opacity="1" stop-color="rgb(56.996155%, 60.28595%, 62.113953%)" offset="0.8125"/><stop stop-opacity="1" stop-color="rgb(57.234192%, 60.488892%, 62.312317%)" offset="0.816406"/><stop stop-opacity="1" stop-color="rgb(57.472229%, 60.691833%, 62.510681%)" offset="0.820312"/><stop stop-opacity="1" stop-color="rgb(57.70874%, 60.894775%, 62.709045%)" offset="0.824219"/><stop stop-opacity="1" stop-color="rgb(57.946777%, 61.099243%, 62.908936%)" offset="0.828125"/><stop stop-opacity="1" stop-color="rgb(58.184814%, 61.302185%, 63.1073%)" offset="0.832031"/><stop stop-opacity="1" stop-color="rgb(58.422852%, 61.505127%, 63.305664%)" offset="0.835938"/><stop stop-opacity="1" stop-color="rgb(58.660889%, 61.708069%, 63.504028%)" offset="0.839844"/><stop stop-opacity="1" stop-color="rgb(58.898926%, 61.912537%, 63.702393%)" offset="0.84375"/><stop stop-opacity="1" stop-color="rgb(59.136963%, 62.115479%, 63.900757%)" offset="0.847656"/><stop stop-opacity="1" stop-color="rgb(59.375%, 62.31842%, 64.100647%)" offset="0.851562"/><stop stop-opacity="1" stop-color="rgb(59.613037%, 62.521362%, 64.299011%)" offset="0.855469"/><stop stop-opacity="1" stop-color="rgb(59.851074%, 62.72583%, 64.497375%)" offset="0.859375"/><stop stop-opacity="1" stop-color="rgb(60.089111%, 62.928772%, 64.69574%)" offset="0.863281"/><stop stop-opacity="1" stop-color="rgb(60.327148%, 63.131714%, 64.894104%)" offset="0.867188"/><stop stop-opacity="1" stop-color="rgb(60.565186%, 63.334656%, 65.092468%)" offset="0.871094"/><stop stop-opacity="1" stop-color="rgb(60.803223%, 63.539124%, 65.292358%)" offset="0.875"/><stop stop-opacity="1" stop-color="rgb(61.04126%, 63.742065%, 65.490723%)" offset="0.878906"/><stop stop-opacity="1" stop-color="rgb(61.279297%, 63.945007%, 65.689087%)" offset="0.882812"/><stop stop-opacity="1" stop-color="rgb(61.517334%, 64.147949%, 65.887451%)" offset="0.886719"/><stop stop-opacity="1" stop-color="rgb(61.755371%, 64.352417%, 66.085815%)" offset="0.890625"/><stop stop-opacity="1" stop-color="rgb(61.993408%, 64.555359%, 66.28418%)" offset="0.894531"/><stop stop-opacity="1" stop-color="rgb(62.231445%, 64.758301%, 66.48407%)" offset="0.898438"/><stop stop-opacity="1" stop-color="rgb(62.469482%, 64.961243%, 66.682434%)" offset="0.902344"/><stop stop-opacity="1" stop-color="rgb(62.70752%, 65.16571%, 66.880798%)" offset="0.90625"/><stop stop-opacity="1" stop-color="rgb(62.944031%, 65.368652%, 67.079163%)" offset="0.910156"/><stop stop-opacity="1" stop-color="rgb(63.182068%, 65.571594%, 67.277527%)" offset="0.914062"/><stop stop-opacity="1" stop-color="rgb(63.420105%, 65.774536%, 67.475891%)" offset="0.917969"/><stop stop-opacity="1" stop-color="rgb(63.658142%, 65.979004%, 67.675781%)" offset="0.921875"/><stop stop-opacity="1" stop-color="rgb(63.896179%, 66.181946%, 67.874146%)" offset="0.925781"/><stop stop-opacity="1" stop-color="rgb(64.134216%, 66.384888%, 68.07251%)" offset="0.929688"/><stop stop-opacity="1" stop-color="rgb(64.372253%, 66.58783%, 68.270874%)" offset="0.933594"/><stop stop-opacity="1" stop-color="rgb(64.610291%, 66.790771%, 68.469238%)" offset="0.9375"/><stop stop-opacity="1" stop-color="rgb(64.848328%, 66.993713%, 68.667603%)" offset="0.941406"/><stop stop-opacity="1" stop-color="rgb(65.086365%, 67.198181%, 68.867493%)" offset="0.945312"/><stop stop-opacity="1" stop-color="rgb(65.324402%, 67.401123%, 69.065857%)" offset="0.949219"/><stop stop-opacity="1" stop-color="rgb(65.562439%, 67.604065%, 69.264221%)" offset="0.953125"/><stop stop-opacity="1" stop-color="rgb(65.800476%, 67.807007%, 69.462585%)" offset="0.957031"/><stop stop-opacity="1" stop-color="rgb(66.038513%, 68.011475%, 69.66095%)" offset="0.960938"/><stop stop-opacity="1" stop-color="rgb(66.27655%, 68.214417%, 69.859314%)" offset="0.964844"/><stop stop-opacity="1" stop-color="rgb(66.514587%, 68.417358%, 70.059204%)" offset="0.96875"/><stop stop-opacity="1" stop-color="rgb(66.752625%, 68.6203%, 70.257568%)" offset="0.972656"/><stop stop-opacity="1" stop-color="rgb(66.990662%, 68.824768%, 70.455933%)" offset="0.976562"/><stop stop-opacity="1" stop-color="rgb(67.228699%, 69.02771%, 70.654297%)" offset="0.980469"/><stop stop-opacity="1" stop-color="rgb(67.466736%, 69.230652%, 70.852661%)" offset="0.984375"/><stop stop-opacity="1" stop-color="rgb(67.703247%, 69.433594%, 71.051025%)" offset="0.988281"/><stop stop-opacity="1" stop-color="rgb(67.941284%, 69.638062%, 71.250916%)" offset="0.992188"/><stop stop-opacity="1" stop-color="rgb(68.179321%, 69.841003%, 71.44928%)" offset="0.996094"/><stop stop-opacity="1" stop-color="rgb(68.417358%, 70.043945%, 71.647644%)" offset="1"/></linearGradient><clipPath id="cb25a30d13"><path d="M 287.886719 575.886719 L 1152.113281 575.886719 L 1152.113281 1440.109375 L 287.886719 1440.109375 Z M 287.886719 575.886719 " clip-rule="nonzero"/></clipPath><clipPath id="136fcb7c94"><path d="M 355.386719 575.886719 L 1084.613281 575.886719 C 1102.511719 575.886719 1119.683594 583 1132.339844 595.660156 C 1145 608.316406 1152.113281 625.484375 1152.113281 643.386719 L 1152.113281 1372.609375 C 1152.113281 1390.511719 1145 1407.683594 1132.339844 1420.339844 C 1119.683594 1433 1102.511719 1440.109375 1084.613281 1440.109375 L 355.386719 1440.109375 C 337.488281 1440.109375 320.316406 1433 307.660156 1420.339844 C 295 1407.683594 287.886719 1390.511719 287.886719 1372.609375 L 287.886719 643.386719 C 287.886719 625.484375 295 608.316406 307.660156 595.660156 C 320.316406 583 337.488281 575.886719 355.386719 575.886719 Z M 355.386719 575.886719 " clip-rule="nonzero"/></clipPath><clipPath id="3b6f0881e9"><path d="M 287.886719 575.886719 L 1151.886719 575.886719 L 1151.886719 1439.886719 L 287.886719 1439.886719 Z M 287.886719 575.886719 " clip-rule="nonzero"/></clipPath><clipPath id="49c04093eb"><path d="M 355.386719 575.886719 L 1084.609375 575.886719 C 1102.511719 575.886719 1119.683594 583 1132.339844 595.660156 C 1145 608.316406 1152.109375 625.484375 1152.109375 643.386719 L 1152.109375 1372.609375 C 1152.109375 1390.511719 1145 1407.683594 1132.339844 1420.339844 C 1119.683594 1433 1102.511719 1440.109375 1084.609375 1440.109375 L 355.386719 1440.109375 C 337.488281 1440.109375 320.316406 1433 307.660156 1420.339844 C 295 1407.683594 287.886719 1390.511719 287.886719 1372.609375 L 287.886719 643.386719 C 287.886719 625.484375 295 608.316406 307.660156 595.660156 C 320.316406 583 337.488281 575.886719 355.386719 575.886719 Z M 355.386719 575.886719 " clip-rule="nonzero"/></clipPath><clipPath id="b68cdfc168"><path d="M 288.371094 0 L 1152.59375 0 L 1152.59375 298.957031 L 288.371094 298.957031 Z M 288.371094 0 " clip-rule="nonzero"/></clipPath><clipPath id="c233b7a923"><path d="M 355.871094 -223.980469 L 1085.09375 -223.980469 C 1122.375 -223.980469 1152.59375 -193.761719 1152.59375 -156.480469 L 1152.59375 231.457031 C 1152.59375 268.734375 1122.375 298.957031 1085.09375 298.957031 L 355.871094 298.957031 C 318.59375 298.957031 288.371094 268.734375 288.371094 231.457031 L 288.371094 -156.480469 C 288.371094 -193.761719 318.59375 -223.980469 355.871094 -223.980469 Z M 355.871094 -223.980469 " clip-rule="nonzero"/></clipPath><clipPath id="d735c73bdc"><path d="M 288.371094 1716.863281 L 1152.59375 1716.863281 L 1152.59375 2016 L 288.371094 2016 Z M 288.371094 1716.863281 " clip-rule="nonzero"/></clipPath><clipPath id="25368e75e8"><path d="M 355.871094 1716.863281 L 1085.09375 1716.863281 C 1122.375 1716.863281 1152.59375 1747.082031 1152.59375 1784.363281 L 1152.59375 2172.296875 C 1152.59375 2209.578125 1122.375 2239.796875 1085.09375 2239.796875 L 355.871094 2239.796875 C 318.59375 2239.796875 288.371094 2209.578125 288.371094 2172.296875 L 288.371094 1784.363281 C 288.371094 1747.082031 318.59375 1716.863281 355.871094 1716.863281 Z M 355.871094 1716.863281 " clip-rule="nonzero"/></clipPath><clipPath id="2f4a3d0afa"><path d="M 443.585938 731.585938 L 996.335938 731.585938 L 996.335938 1284.335938 L 443.585938 1284.335938 Z M 443.585938 731.585938 " clip-rule="nonzero"/></clipPath></defs><rect x="-144" width="1728" fill="#ffffff" y="-201.599992" height="2419.199902" fill-opacity="1"/><rect x="-144" width="1728" fill="#f5f5fa" y="-201.599992" height="2419.199902" fill-opacity="1"/><rect x="-144" fill="url(#0e61614508)" width="1728" y="-201.599992" height="2419.199902"/><g clip-path="url(#cb25a30d13)"><g clip-path="url(#136fcb7c94)"><path fill="#f5f5fa" d="M 287.886719 575.886719 L 1152.113281 575.886719 L 1152.113281 1440.109375 L 287.886719 1440.109375 Z M 287.886719 575.886719 " fill-opacity="1" fill-rule="nonzero"/></g></g><g clip-path="url(#3b6f0881e9)"><g clip-path="url(#49c04093eb)"><path stroke-linecap="butt" transform="matrix(0.75, 0, 0, 0.75, 287.888619, 575.888401)" fill="none" stroke-linejoin="miter" d="M 89.997474 -0.00224244 L 1062.294429 -0.00224244 C 1086.164222 -0.00224244 1109.060057 9.482133 1125.935059 26.362343 C 1142.815269 43.237344 1152.294436 66.127971 1152.294436 89.997765 L 1152.294436 1062.29472 C 1152.294436 1086.164514 1142.815269 1109.060349 1125.935059 1125.93535 C 1109.060057 1142.81556 1086.164222 1152.294727 1062.294429 1152.294727 L 89.997474 1152.294727 C 66.132888 1152.294727 43.237053 1142.81556 26.362052 1125.93535 C 9.481842 1109.060349 -0.00253391 1086.164514 -0.00253391 1062.29472 L -0.00253391 89.997765 C -0.00253391 66.127971 9.481842 43.237344 26.362052 26.362343 C 43.237053 9.482133 66.132888 -0.00224244 89.997474 -0.00224244 Z M 89.997474 -0.00224244 " stroke="#0d1f23" stroke-width="100" stroke-opacity="1" stroke-miterlimit="4"/></g></g><path stroke-linecap="butt" transform="matrix(0.75, 0, 0, 0.75, -0.965174, -0.0126562)" fill="none" stroke-linejoin="miter" d="M 0.000439761 50.001254 L 1921.287056 50.001254 " stroke="#0d1f23" stroke-width="100" stroke-opacity="1" stroke-miterlimit="4"/><path stroke-linecap="butt" transform="matrix(0.75, 0, 0, 0.75, 0.0000292857, 1940.99984)" fill="none" stroke-linejoin="miter" d="M -0.0000390476 50.000217 L 1921.286577 50.000217 " stroke="#0d1f23" stroke-width="100" stroke-opacity="1" stroke-miterlimit="4"/><g clip-path="url(#b68cdfc168)"><g clip-path="url(#c233b7a923)"><path fill="#0d1f23" d="M 288.371094 -223.980469 L 1152.59375 -223.980469 L 1152.59375 298.957031 L 288.371094 298.957031 Z M 288.371094 -223.980469 " fill-opacity="1" fill-rule="nonzero"/></g></g><g clip-path="url(#d735c73bdc)"><g clip-path="url(#25368e75e8)"><path fill="#0d1f23" d="M 288.371094 1716.863281 L 1152.59375 1716.863281 L 1152.59375 2239.796875 L 288.371094 2239.796875 Z M 288.371094 1716.863281 " fill-opacity="1" fill-rule="nonzero"/></g></g><g clip-path="url(#2f4a3d0afa)"><path fill="#0d1f23" d="M 541.109375 749.417969 C 497.09375 749.417969 461.417969 785.09375 461.417969 829.109375 C 461.417969 847.703125 467.785156 864.804688 478.453125 878.359375 C 488.84375 854.03125 512.988281 836.96875 541.109375 836.96875 C 569.242188 836.96875 593.382812 854.027344 603.769531 878.359375 C 614.4375 864.804688 620.800781 847.703125 620.800781 829.109375 C 620.800781 785.09375 585.128906 749.417969 541.109375 749.417969 Z M 541.109375 1122.273438 C 560.128906 1122.273438 575.542969 1137.6875 575.542969 1156.707031 C 575.542969 1175.722656 560.128906 1191.140625 541.109375 1191.140625 C 522.09375 1191.140625 506.679688 1175.722656 506.679688 1156.707031 C 506.679688 1137.6875 522.09375 1122.273438 541.109375 1122.273438 Z M 541.109375 1194.742188 C 569.238281 1194.742188 593.378906 1211.796875 603.769531 1236.132812 C 614.4375 1222.578125 620.800781 1205.472656 620.800781 1186.882812 C 620.800781 1142.867188 585.128906 1107.191406 541.109375 1107.191406 C 497.09375 1107.191406 461.417969 1142.863281 461.417969 1186.882812 C 461.417969 1205.472656 467.785156 1222.578125 478.453125 1236.132812 C 488.84375 1211.804688 512.988281 1194.742188 541.109375 1194.742188 Z M 541.109375 764.5 C 560.128906 764.5 575.542969 779.917969 575.542969 798.933594 C 575.542969 817.949219 560.128906 833.367188 541.109375 833.367188 C 522.09375 833.367188 506.679688 817.949219 506.679688 798.933594 C 506.679688 779.917969 522.09375 764.5 541.109375 764.5 Z M 898.882812 1122.273438 C 917.902344 1122.273438 933.316406 1137.6875 933.316406 1156.707031 C 933.316406 1175.722656 917.902344 1191.140625 898.882812 1191.140625 C 879.867188 1191.140625 864.449219 1175.722656 864.449219 1156.707031 C 864.449219 1137.6875 879.867188 1122.273438 898.882812 1122.273438 Z M 898.882812 1194.742188 C 927.011719 1194.742188 951.152344 1211.796875 961.539062 1236.132812 C 972.210938 1222.578125 978.574219 1205.472656 978.574219 1186.882812 C 978.574219 1142.867188 942.898438 1107.191406 898.882812 1107.191406 C 854.867188 1107.191406 819.191406 1142.863281 819.191406 1186.882812 C 819.191406 1205.472656 825.558594 1222.578125 836.226562 1236.132812 C 846.617188 1211.804688 870.757812 1194.742188 898.882812 1194.742188 Z M 898.882812 764.5 C 917.902344 764.5 933.316406 779.917969 933.316406 798.933594 C 933.316406 817.949219 917.902344 833.367188 898.882812 833.367188 C 879.867188 833.367188 864.449219 817.949219 864.449219 798.933594 C 864.449219 779.917969 879.867188 764.5 898.882812 764.5 Z M 898.882812 836.96875 C 927.011719 836.96875 951.152344 854.027344 961.539062 878.359375 C 972.210938 864.804688 978.574219 847.703125 978.574219 829.109375 C 978.574219 785.09375 942.898438 749.417969 898.882812 749.417969 C 854.867188 749.417969 819.191406 785.09375 819.191406 829.109375 C 819.191406 847.703125 825.558594 864.804688 836.226562 878.359375 C 846.617188 854.03125 870.757812 836.96875 898.882812 836.96875 Z M 569.59375 940.917969 C 610.410156 930.550781 642.550781 898.410156 652.917969 857.59375 L 711.078125 857.59375 L 711.078125 895.578125 C 707.796875 894.667969 704.359375 894.179688 700.835938 894.179688 C 690.175781 894.179688 680.519531 898.503906 673.535156 905.492188 C 666.546875 912.476562 662.222656 922.132812 662.222656 932.792969 C 662.222656 943.457031 666.546875 953.109375 673.535156 960.097656 C 680.523438 967.085938 690.175781 971.40625 700.835938 971.40625 C 704.359375 971.40625 707.796875 970.921875 711.078125 970.011719 L 711.078125 999.078125 L 667.484375 999.078125 L 667.484375 999.101562 C 665.449219 999.097656 663.40625 999.789062 661.734375 1001.207031 C 657.984375 1004.378906 657.519531 1009.992188 660.691406 1013.742188 C 662.257812 1015.597656 663.5 1017.707031 664.335938 1019.988281 C 665.136719 1022.183594 665.578125 1024.597656 665.578125 1027.15625 C 665.578125 1032.894531 663.25 1038.089844 659.492188 1041.851562 C 655.730469 1045.613281 650.535156 1047.9375 644.796875 1047.9375 C 639.058594 1047.9375 633.859375 1045.613281 630.101562 1041.851562 C 626.339844 1038.089844 624.015625 1032.894531 624.015625 1027.15625 C 624.015625 1024.59375 624.453125 1022.183594 625.257812 1019.988281 C 626.035156 1017.859375 627.171875 1015.878906 628.589844 1014.117188 C 630.097656 1012.519531 631.023438 1010.367188 631.023438 1007.996094 C 631.023438 1003.070312 627.03125 999.078125 622.109375 999.078125 L 569.59375 999.078125 Z M 569.59375 1016.914062 L 569.59375 1075.074219 C 610.410156 1085.441406 642.550781 1117.582031 652.917969 1158.398438 L 711.078125 1158.398438 L 711.078125 1105.886719 C 711.078125 1100.960938 715.074219 1096.96875 719.996094 1096.96875 C 722.367188 1096.96875 724.519531 1097.894531 726.117188 1099.402344 C 727.878906 1100.824219 729.855469 1101.957031 731.988281 1102.738281 C 734.183594 1103.539062 736.59375 1103.980469 739.15625 1103.980469 C 744.894531 1103.980469 750.089844 1101.652344 753.851562 1097.894531 C 757.613281 1094.132812 759.9375 1088.9375 759.9375 1083.199219 C 759.9375 1077.457031 757.613281 1072.261719 753.851562 1068.503906 C 750.089844 1064.742188 744.898438 1062.417969 739.15625 1062.417969 C 736.59375 1062.417969 734.183594 1062.855469 731.988281 1063.660156 C 729.707031 1064.492188 727.597656 1065.734375 725.746094 1067.300781 C 721.992188 1070.476562 716.378906 1070.007812 713.207031 1066.257812 C 711.667969 1064.441406 710.988281 1062.191406 711.117188 1059.992188 L 711.117188 1016.914062 L 682.011719 1016.914062 C 682.921875 1020.199219 683.410156 1023.632812 683.410156 1027.15625 C 683.410156 1037.820312 679.085938 1047.472656 672.097656 1054.460938 C 665.109375 1061.449219 655.457031 1065.769531 644.796875 1065.769531 C 634.132812 1065.769531 624.480469 1061.449219 617.492188 1054.460938 C 610.503906 1047.472656 606.183594 1037.820312 606.183594 1027.15625 C 606.183594 1023.632812 606.667969 1020.199219 607.578125 1016.914062 Z M 728.914062 1158.398438 L 787.074219 1158.398438 C 797.445312 1117.578125 829.582031 1085.445312 870.398438 1075.074219 L 870.398438 1016.914062 L 817.886719 1016.914062 C 812.960938 1016.914062 808.96875 1012.921875 808.96875 1007.996094 C 808.96875 1005.625 809.894531 1003.472656 811.40625 1001.875 C 812.824219 1000.113281 813.960938 998.136719 814.738281 996.003906 C 815.539062 993.808594 815.980469 991.398438 815.980469 988.835938 C 815.980469 983.097656 813.652344 977.902344 809.894531 974.140625 C 806.132812 970.382812 800.9375 968.054688 795.199219 968.054688 C 789.457031 968.054688 784.261719 970.382812 780.503906 974.140625 C 776.742188 977.902344 774.417969 983.097656 774.417969 988.835938 C 774.417969 991.398438 774.855469 993.808594 775.660156 996.003906 C 776.492188 998.289062 777.734375 1000.398438 779.300781 1002.25 C 782.476562 1006 782.007812 1011.613281 778.257812 1014.789062 C 776.441406 1016.324219 774.191406 1017.007812 771.992188 1016.878906 L 728.878906 1016.878906 L 728.878906 1045.992188 C 732.175781 1045.074219 735.621094 1044.585938 739.15625 1044.585938 C 749.820312 1044.585938 759.472656 1048.90625 766.460938 1055.894531 C 773.449219 1062.882812 777.773438 1072.535156 777.773438 1083.199219 C 777.773438 1093.859375 773.449219 1103.515625 766.460938 1110.503906 C 759.472656 1117.492188 749.820312 1121.8125 739.15625 1121.8125 C 735.636719 1121.8125 732.199219 1121.324219 728.914062 1120.414062 Z M 870.398438 999.078125 L 832.414062 999.078125 C 833.324219 995.796875 833.8125 992.359375 833.8125 988.835938 C 833.8125 978.175781 829.492188 968.519531 822.503906 961.535156 C 815.515625 954.546875 805.859375 950.222656 795.199219 950.222656 C 784.535156 950.222656 774.882812 954.546875 767.894531 961.535156 C 760.90625 968.523438 756.585938 978.175781 756.585938 988.835938 C 756.585938 992.371094 757.074219 995.820312 757.992188 999.117188 L 728.914062 999.117188 L 728.914062 955.484375 C 728.914062 950.558594 724.921875 946.566406 719.996094 946.566406 C 717.625 946.566406 715.472656 947.492188 713.875 949 C 712.117188 950.421875 710.136719 951.554688 708.003906 952.335938 C 705.808594 953.136719 703.398438 953.578125 700.835938 953.578125 C 695.097656 953.578125 689.902344 951.25 686.140625 947.492188 C 682.382812 943.730469 680.054688 938.535156 680.054688 932.796875 C 680.054688 927.054688 682.382812 921.859375 686.144531 918.101562 C 689.902344 914.339844 695.097656 912.015625 700.839844 912.015625 C 703.398438 912.015625 705.8125 912.453125 708.007812 913.257812 C 710.289062 914.089844 712.398438 915.335938 714.25 916.898438 C 718 920.074219 723.617188 919.605469 726.789062 915.855469 C 728.203125 914.183594 728.894531 912.140625 728.894531 910.109375 L 728.914062 910.109375 L 728.914062 857.59375 L 787.074219 857.59375 C 797.445312 898.414062 829.578125 930.550781 870.398438 940.921875 Z M 541.109375 731.585938 C 594.972656 731.585938 638.632812 775.25 638.632812 829.109375 C 638.632812 882.972656 594.972656 926.632812 541.109375 926.632812 C 487.25 926.632812 443.585938 882.972656 443.585938 829.109375 C 443.585938 775.25 487.25 731.585938 541.109375 731.585938 Z M 898.882812 731.585938 C 845.023438 731.585938 801.359375 775.25 801.359375 829.109375 C 801.359375 882.972656 845.023438 926.632812 898.882812 926.632812 C 952.742188 926.632812 996.40625 882.972656 996.40625 829.109375 C 996.40625 775.25 952.742188 731.585938 898.882812 731.585938 Z M 898.882812 1089.359375 C 845.023438 1089.359375 801.359375 1133.023438 801.359375 1186.882812 C 801.359375 1240.742188 845.023438 1284.40625 898.882812 1284.40625 C 952.742188 1284.40625 996.40625 1240.742188 996.40625 1186.882812 C 996.40625 1133.023438 952.742188 1089.359375 898.882812 1089.359375 Z M 541.109375 1089.359375 C 487.25 1089.359375 443.585938 1133.023438 443.585938 1186.882812 C 443.585938 1240.742188 487.25 1284.40625 541.109375 1284.40625 C 594.972656 1284.40625 638.632812 1240.742188 638.632812 1186.882812 C 638.632812 1133.023438 594.972656 1089.359375 541.109375 1089.359375 Z M 541.109375 1089.359375 " fill-opacity="1" fill-rule="evenodd"/></g><g fill="#f5f5fa" fill-opacity="1"><g transform="translate(482.868494, 119.237334)"><g><path d="M 93.171875 0 L 66.703125 0 L 66.703125 -25.4375 L 33.484375 -25.4375 L 33.484375 0 L 7.03125 0 L 7.03125 -63.0625 L 33.484375 -63.0625 L 33.484375 -37.578125 L 66.703125 -37.578125 L 66.703125 -63.0625 L 93.171875 -63.0625 Z M 93.171875 0 "/></g></g><g transform="translate(583.063798, 119.237334)"><g><path d="M 47.6875 1.359375 C 32.09375 1.359375 20.617188 -1.847656 13.265625 -8.265625 C 6.765625 -13.941406 3.515625 -21.691406 3.515625 -31.515625 C 3.515625 -41.296875 6.765625 -49.03125 13.265625 -54.71875 C 20.617188 -61.132812 32.09375 -64.34375 47.6875 -64.34375 C 63.269531 -64.34375 74.738281 -61.132812 82.09375 -54.71875 C 88.59375 -49.03125 91.84375 -41.296875 91.84375 -31.515625 C 91.84375 -21.691406 88.59375 -13.941406 82.09375 -8.265625 C 74.738281 -1.847656 63.269531 1.359375 47.6875 1.359375 Z M 47.6875 -15.5625 C 54.070312 -15.5625 58.757812 -17.390625 61.75 -21.046875 C 64.144531 -24.003906 65.34375 -27.492188 65.34375 -31.515625 C 65.34375 -35.523438 64.144531 -38.992188 61.75 -41.921875 C 58.757812 -45.617188 54.070312 -47.46875 47.6875 -47.46875 C 41.289062 -47.46875 36.585938 -45.617188 33.578125 -41.921875 C 31.171875 -38.992188 29.96875 -35.523438 29.96875 -31.515625 C 29.96875 -27.492188 31.171875 -24.003906 33.578125 -21.046875 C 36.585938 -17.390625 41.289062 -15.5625 47.6875 -15.5625 Z M 47.6875 -15.5625 "/></g></g><g transform="translate(678.425118, 119.237334)"><g><path d="M 60.5625 0 L 35.984375 0 L 0.65625 -63.015625 L 27.46875 -63.015625 L 48.296875 -17.96875 L 69.078125 -63.015625 L 95.890625 -63.015625 Z M 60.5625 0 "/></g></g><g transform="translate(774.972962, 119.237334)"><g><path d="M 82.96875 0 L 7.03125 0 L 7.03125 -63.0625 L 79.5 -63.0625 L 79.5 -47.46875 L 33.484375 -47.46875 L 33.484375 -37.578125 L 72.375 -37.578125 L 72.375 -25.4375 L 33.484375 -25.4375 L 33.484375 -15.59375 L 82.96875 -15.59375 Z M 82.96875 0 "/></g></g><g transform="translate(861.45733, 119.237334)"><g><path d="M 93.125 0 L 68.109375 0 C 66.972656 -1.582031 66.171875 -3.601562 65.703125 -6.0625 C 65.285156 -7.96875 64.664062 -9.835938 63.84375 -11.671875 C 63.03125 -13.503906 61.617188 -15.023438 59.609375 -16.234375 C 57.609375 -17.453125 54.628906 -18.101562 50.671875 -18.1875 L 33.484375 -18.1875 L 33.484375 0 L 7.03125 0 L 7.03125 -63.0625 L 50.046875 -63.0625 C 60.335938 -63.0625 68.640625 -62.289062 74.953125 -60.75 C 81.265625 -59.21875 85.867188 -56.800781 88.765625 -53.5 C 91.671875 -50.207031 93.125 -45.910156 93.125 -40.609375 C 93.125 -36.179688 92.117188 -32.457031 90.109375 -29.4375 C 88.097656 -26.425781 84.925781 -24.039062 80.59375 -22.28125 C 84.78125 -20.550781 87.492188 -18.476562 88.734375 -16.0625 C 89.984375 -13.644531 90.757812 -10.988281 91.0625 -8.09375 C 91.351562 -5.507812 92.039062 -2.8125 93.125 0 Z M 33.484375 -33.75 L 48.609375 -33.796875 C 52.828125 -33.796875 56.148438 -33.984375 58.578125 -34.359375 C 61.015625 -34.742188 62.8125 -35.265625 63.96875 -35.921875 C 65.125 -36.585938 65.863281 -37.320312 66.1875 -38.125 C 66.507812 -38.925781 66.671875 -39.753906 66.671875 -40.609375 C 66.671875 -41.453125 66.507812 -42.285156 66.1875 -43.109375 C 65.863281 -43.929688 65.125 -44.671875 63.96875 -45.328125 C 62.8125 -45.984375 61.015625 -46.503906 58.578125 -46.890625 C 56.148438 -47.273438 52.828125 -47.46875 48.609375 -47.46875 L 33.484375 -47.46875 Z M 33.484375 -33.75 "/></g></g></g><g fill="#f5f5fa" fill-opacity="1"><g transform="translate(535.567708, 245.237324)"><g><path d="M 93.171875 0 L 66.703125 0 L 66.703125 -25.4375 L 33.484375 -25.4375 L 33.484375 0 L 7.03125 0 L 7.03125 -63.0625 L 33.484375 -63.0625 L 33.484375 -37.578125 L 66.703125 -37.578125 L 66.703125 -63.0625 L 93.171875 -63.0625 Z M 93.171875 0 "/></g></g><g transform="translate(635.763012, 245.237324)"><g><path d="M 82.96875 0 L 7.03125 0 L 7.03125 -63.0625 L 79.5 -63.0625 L 79.5 -47.46875 L 33.484375 -47.46875 L 33.484375 -37.578125 L 72.375 -37.578125 L 72.375 -25.4375 L 33.484375 -25.4375 L 33.484375 -15.59375 L 82.96875 -15.59375 Z M 82.96875 0 "/></g></g><g transform="translate(722.24738, 245.237324)"><g><path d="M 93.125 0 L 68.109375 0 C 66.972656 -1.582031 66.171875 -3.601562 65.703125 -6.0625 C 65.285156 -7.96875 64.664062 -9.835938 63.84375 -11.671875 C 63.03125 -13.503906 61.617188 -15.023438 59.609375 -16.234375 C 57.609375 -17.453125 54.628906 -18.101562 50.671875 -18.1875 L 33.484375 -18.1875 L 33.484375 0 L 7.03125 0 L 7.03125 -63.0625 L 50.046875 -63.0625 C 60.335938 -63.0625 68.640625 -62.289062 74.953125 -60.75 C 81.265625 -59.21875 85.867188 -56.800781 88.765625 -53.5 C 91.671875 -50.207031 93.125 -45.910156 93.125 -40.609375 C 93.125 -36.179688 92.117188 -32.457031 90.109375 -29.4375 C 88.097656 -26.425781 84.925781 -24.039062 80.59375 -22.28125 C 84.78125 -20.550781 87.492188 -18.476562 88.734375 -16.0625 C 89.984375 -13.644531 90.757812 -10.988281 91.0625 -8.09375 C 91.351562 -5.507812 92.039062 -2.8125 93.125 0 Z M 33.484375 -33.75 L 48.609375 -33.796875 C 52.828125 -33.796875 56.148438 -33.984375 58.578125 -34.359375 C 61.015625 -34.742188 62.8125 -35.265625 63.96875 -35.921875 C 65.125 -36.585938 65.863281 -37.320312 66.1875 -38.125 C 66.507812 -38.925781 66.671875 -39.753906 66.671875 -40.609375 C 66.671875 -41.453125 66.507812 -42.285156 66.1875 -43.109375 C 65.863281 -43.929688 65.125 -44.671875 63.96875 -45.328125 C 62.8125 -45.984375 61.015625 -46.503906 58.578125 -46.890625 C 56.148438 -47.273438 52.828125 -47.46875 48.609375 -47.46875 L 33.484375 -47.46875 Z M 33.484375 -33.75 "/></g></g><g transform="translate(818.883114, 245.237324)"><g><path d="M 82.96875 0 L 7.03125 0 L 7.03125 -63.0625 L 79.5 -63.0625 L 79.5 -47.46875 L 33.484375 -47.46875 L 33.484375 -37.578125 L 72.375 -37.578125 L 72.375 -25.4375 L 33.484375 -25.4375 L 33.484375 -15.59375 L 82.96875 -15.59375 Z M 82.96875 0 "/></g></g></g><g fill="#f5f5fa" fill-opacity="1"><g transform="translate(958.087222, 1901.080163)"><g><path d="M -93.171875 0 L -66.703125 0 L -66.703125 25.4375 L -33.484375 25.4375 L -33.484375 0 L -7.03125 0 L -7.03125 63.0625 L -33.484375 63.0625 L -33.484375 37.578125 L -66.703125 37.578125 L -66.703125 63.0625 L -93.171875 63.0625 Z M -93.171875 0 "/></g></g><g transform="translate(857.891918, 1901.080163)"><g><path d="M -47.6875 -1.359375 C -32.09375 -1.359375 -20.617188 1.847656 -13.265625 8.265625 C -6.765625 13.941406 -3.515625 21.691406 -3.515625 31.515625 C -3.515625 41.296875 -6.765625 49.03125 -13.265625 54.71875 C -20.617188 61.132812 -32.09375 64.34375 -47.6875 64.34375 C -63.269531 64.34375 -74.738281 61.132812 -82.09375 54.71875 C -88.59375 49.03125 -91.84375 41.296875 -91.84375 31.515625 C -91.84375 21.691406 -88.59375 13.941406 -82.09375 8.265625 C -74.738281 1.847656 -63.269531 -1.359375 -47.6875 -1.359375 Z M -47.6875 15.5625 C -54.070312 15.5625 -58.757812 17.390625 -61.75 21.046875 C -64.144531 24.003906 -65.34375 27.492188 -65.34375 31.515625 C -65.34375 35.523438 -64.144531 38.992188 -61.75 41.921875 C -58.757812 45.617188 -54.070312 47.46875 -47.6875 47.46875 C -41.289062 47.46875 -36.585938 45.617188 -33.578125 41.921875 C -31.171875 38.992188 -29.96875 35.523438 -29.96875 31.515625 C -29.96875 27.492188 -31.171875 24.003906 -33.578125 21.046875 C -36.585938 17.390625 -41.289062 15.5625 -47.6875 15.5625 Z M -47.6875 15.5625 "/></g></g><g transform="translate(762.530598, 1901.080163)"><g><path d="M -60.5625 0 L -35.984375 0 L -0.65625 63.015625 L -27.46875 63.015625 L -48.296875 17.96875 L -69.078125 63.015625 L -95.890625 63.015625 Z M -60.5625 0 "/></g></g><g transform="translate(665.982754, 1901.080163)"><g><path d="M -82.96875 0 L -7.03125 0 L -7.03125 63.0625 L -79.5 63.0625 L -79.5 47.46875 L -33.484375 47.46875 L -33.484375 37.578125 L -72.375 37.578125 L -72.375 25.4375 L -33.484375 25.4375 L -33.484375 15.59375 L -82.96875 15.59375 Z M -82.96875 0 "/></g></g><g transform="translate(579.498386, 1901.080163)"><g><path d="M -93.125 0 L -68.109375 0 C -66.972656 1.582031 -66.171875 3.601562 -65.703125 6.0625 C -65.285156 7.96875 -64.664062 9.835938 -63.84375 11.671875 C -63.03125 13.503906 -61.617188 15.023438 -59.609375 16.234375 C -57.609375 17.453125 -54.628906 18.101562 -50.671875 18.1875 L -33.484375 18.1875 L -33.484375 0 L -7.03125 0 L -7.03125 63.0625 L -50.046875 63.0625 C -60.335938 63.0625 -68.640625 62.289062 -74.953125 60.75 C -81.265625 59.21875 -85.867188 56.800781 -88.765625 53.5 C -91.671875 50.207031 -93.125 45.910156 -93.125 40.609375 C -93.125 36.179688 -92.117188 32.457031 -90.109375 29.4375 C -88.097656 26.425781 -84.925781 24.039062 -80.59375 22.28125 C -84.78125 20.550781 -87.492188 18.476562 -88.734375 16.0625 C -89.984375 13.644531 -90.757812 10.988281 -91.0625 8.09375 C -91.351562 5.507812 -92.039062 2.8125 -93.125 0 Z M -33.484375 33.75 L -48.609375 33.796875 C -52.828125 33.796875 -56.148438 33.984375 -58.578125 34.359375 C -61.015625 34.742188 -62.8125 35.265625 -63.96875 35.921875 C -65.125 36.585938 -65.863281 37.320312 -66.1875 38.125 C -66.507812 38.925781 -66.671875 39.753906 -66.671875 40.609375 C -66.671875 41.453125 -66.507812 42.285156 -66.1875 43.109375 C -65.863281 43.929688 -65.125 44.671875 -63.96875 45.328125 C -62.8125 45.984375 -61.015625 46.503906 -58.578125 46.890625 C -56.148438 47.273438 -52.828125 47.46875 -48.609375 47.46875 L -33.484375 47.46875 Z M -33.484375 33.75 "/></g></g></g><g fill="#f5f5fa" fill-opacity="1"><g transform="translate(905.388008, 1775.080174)"><g><path d="M -93.171875 0 L -66.703125 0 L -66.703125 25.4375 L -33.484375 25.4375 L -33.484375 0 L -7.03125 0 L -7.03125 63.0625 L -33.484375 63.0625 L -33.484375 37.578125 L -66.703125 37.578125 L -66.703125 63.0625 L -93.171875 63.0625 Z M -93.171875 0 "/></g></g><g transform="translate(805.192704, 1775.080174)"><g><path d="M -82.96875 0 L -7.03125 0 L -7.03125 63.0625 L -79.5 63.0625 L -79.5 47.46875 L -33.484375 47.46875 L -33.484375 37.578125 L -72.375 37.578125 L -72.375 25.4375 L -33.484375 25.4375 L -33.484375 15.59375 L -82.96875 15.59375 Z M -82.96875 0 "/></g></g><g transform="translate(718.708336, 1775.080174)"><g><path d="M -93.125 0 L -68.109375 0 C -66.972656 1.582031 -66.171875 3.601562 -65.703125 6.0625 C -65.285156 7.96875 -64.664062 9.835938 -63.84375 11.671875 C -63.03125 13.503906 -61.617188 15.023438 -59.609375 16.234375 C -57.609375 17.453125 -54.628906 18.101562 -50.671875 18.1875 L -33.484375 18.1875 L -33.484375 0 L -7.03125 0 L -7.03125 63.0625 L -50.046875 63.0625 C -60.335938 63.0625 -68.640625 62.289062 -74.953125 60.75 C -81.265625 59.21875 -85.867188 56.800781 -88.765625 53.5 C -91.671875 50.207031 -93.125 45.910156 -93.125 40.609375 C -93.125 36.179688 -92.117188 32.457031 -90.109375 29.4375 C -88.097656 26.425781 -84.925781 24.039062 -80.59375 22.28125 C -84.78125 20.550781 -87.492188 18.476562 -88.734375 16.0625 C -89.984375 13.644531 -90.757812 10.988281 -91.0625 8.09375 C -91.351562 5.507812 -92.039062 2.8125 -93.125 0 Z M -33.484375 33.75 L -48.609375 33.796875 C -52.828125 33.796875 -56.148438 33.984375 -58.578125 34.359375 C -61.015625 34.742188 -62.8125 35.265625 -63.96875 35.921875 C -65.125 36.585938 -65.863281 37.320312 -66.1875 38.125 C -66.507812 38.925781 -66.671875 39.753906 -66.671875 40.609375 C -66.671875 41.453125 -66.507812 42.285156 -66.1875 43.109375 C -65.863281 43.929688 -65.125 44.671875 -63.96875 45.328125 C -62.8125 45.984375 -61.015625 46.503906 -58.578125 46.890625 C -56.148438 47.273438 -52.828125 47.46875 -48.609375 47.46875 L -33.484375 47.46875 Z M -33.484375 33.75 "/></g></g><g transform="translate(622.072602, 1775.080174)"><g><path d="M -82.96875 0 L -7.03125 0 L -7.03125 63.0625 L -79.5 63.0625 L -79.5 47.46875 L -33.484375 47.46875 L -33.484375 37.578125 L -72.375 37.578125 L -72.375 25.4375 L -33.484375 25.4375 L -33.484375 15.59375 L -82.96875 15.59375 Z M -82.96875 0 "/></g></g></g></svg>