<svg xmlns="http://www.w3.org/2000/svg" xmlns:xlink="http://www.w3.org/1999/xlink" width="1920" zoomAndPan="magnify" viewBox="0 0 1440 809.999993" height="1080" preserveAspectRatio="xMidYMid meet" version="1.0"><defs><g/></defs><rect x="-144" width="1728" fill="#0d1f23" y="-80.999999" height="971.999992" fill-opacity="1"/><g fill="#f5f5fa" fill-opacity="1"><g transform="translate(920.601704, 462.159057)"><g><path d="M 17.96875 0.6875 C 14.8125 0.6875 12.039062 0.00390625 9.65625 -1.359375 C 7.28125 -2.722656 5.453125 -4.570312 4.171875 -6.90625 C 2.898438 -9.25 2.265625 -11.859375 2.265625 -14.734375 C 2.265625 -17.566406 2.941406 -20.132812 4.296875 -22.4375 C 5.648438 -24.738281 7.523438 -26.550781 9.921875 -27.875 C 12.316406 -29.195312 15 -29.859375 17.96875 -29.859375 C 20.625 -29.859375 23.03125 -29.335938 25.1875 -28.296875 C 27.351562 -27.253906 29.144531 -25.734375 30.5625 -23.734375 L 28.25 -22 C 27 -23.644531 25.5 -24.894531 23.75 -25.75 C 22.007812 -26.601562 20.097656 -27.03125 18.015625 -27.03125 C 15.710938 -27.03125 13.59375 -26.492188 11.65625 -25.421875 C 9.726562 -24.347656 8.1875 -22.859375 7.03125 -20.953125 C 5.882812 -19.046875 5.3125 -16.890625 5.3125 -14.484375 C 5.3125 -12.109375 5.875 -9.972656 7 -8.078125 C 8.125 -6.179688 9.664062 -4.691406 11.625 -3.609375 C 13.582031 -2.523438 15.765625 -1.984375 18.171875 -1.984375 C 20.203125 -1.984375 22.078125 -2.390625 23.796875 -3.203125 C 25.515625 -4.015625 27.050781 -5.21875 28.40625 -6.8125 L 30.71875 -5.078125 C 29.226562 -3.179688 27.394531 -1.742188 25.21875 -0.765625 C 23.039062 0.203125 20.625 0.6875 17.96875 0.6875 Z M 17.96875 0.6875 "/></g></g></g><g fill="#f5f5fa" fill-opacity="1"><g transform="translate(953.62918, 462.159057)"><g><path d="M 13.3125 0.5625 C 11.195312 0.5625 9.28125 0.0546875 7.5625 -0.953125 C 5.84375 -1.960938 4.492188 -3.332031 3.515625 -5.0625 C 2.546875 -6.800781 2.0625 -8.6875 2.0625 -10.71875 C 2.0625 -12.738281 2.546875 -14.628906 3.515625 -16.390625 C 4.492188 -18.148438 5.84375 -19.539062 7.5625 -20.5625 C 9.28125 -21.59375 11.195312 -22.109375 13.3125 -22.109375 C 15.414062 -22.109375 17.328125 -21.59375 19.046875 -20.5625 C 20.765625 -19.539062 22.109375 -18.148438 23.078125 -16.390625 C 24.054688 -14.628906 24.546875 -12.738281 24.546875 -10.71875 C 24.546875 -8.6875 24.054688 -6.800781 23.078125 -5.0625 C 22.109375 -3.332031 20.765625 -1.960938 19.046875 -0.953125 C 17.328125 0.0546875 15.414062 0.5625 13.3125 0.5625 Z M 13.3125 -2.109375 C 14.875 -2.109375 16.296875 -2.492188 17.578125 -3.265625 C 18.867188 -4.035156 19.878906 -5.078125 20.609375 -6.390625 C 21.335938 -7.703125 21.703125 -9.128906 21.703125 -10.671875 C 21.703125 -12.242188 21.320312 -13.695312 20.5625 -15.03125 C 19.8125 -16.375 18.789062 -17.441406 17.5 -18.234375 C 16.21875 -19.035156 14.820312 -19.4375 13.3125 -19.4375 C 11.789062 -19.4375 10.390625 -19.035156 9.109375 -18.234375 C 7.828125 -17.441406 6.804688 -16.375 6.046875 -15.03125 C 5.285156 -13.695312 4.90625 -12.242188 4.90625 -10.671875 C 4.90625 -9.097656 5.269531 -7.660156 6 -6.359375 C 6.726562 -5.066406 7.726562 -4.035156 9 -3.265625 C 10.28125 -2.492188 11.71875 -2.109375 13.3125 -2.109375 Z M 13.3125 -2.109375 "/></g></g></g><g fill="#f5f5fa" fill-opacity="1"><g transform="translate(980.205341, 462.159057)"><g><path d="M 6 -21.546875 L 6 -18.421875 C 6.84375 -19.640625 7.71875 -20.554688 8.625 -21.171875 C 9.53125 -21.796875 10.507812 -22.109375 11.5625 -22.109375 C 12.070312 -22.109375 12.523438 -22.046875 12.921875 -21.921875 C 13.316406 -21.804688 13.691406 -21.628906 14.046875 -21.390625 L 12.578125 -19.03125 C 12.035156 -19.300781 11.550781 -19.4375 11.125 -19.4375 C 10.144531 -19.4375 9.269531 -19.078125 8.5 -18.359375 C 7.726562 -17.640625 7.117188 -16.628906 6.671875 -15.328125 C 6.222656 -14.035156 6 -12.550781 6 -10.875 L 6 0 L 3.25 0 L 3.25 -21.546875 Z M 6 -21.546875 "/></g></g></g><g fill="#f5f5fa" fill-opacity="1"><g transform="translate(993.513707, 462.159057)"><g><path d="M 13.109375 0.53125 C 11.046875 0.53125 9.175781 0.015625 7.5 -1.015625 C 5.820312 -2.046875 4.492188 -3.429688 3.515625 -5.171875 C 2.546875 -6.921875 2.0625 -8.804688 2.0625 -10.828125 C 2.0625 -12.859375 2.554688 -14.734375 3.546875 -16.453125 C 4.535156 -18.171875 5.878906 -19.539062 7.578125 -20.5625 C 9.285156 -21.59375 11.15625 -22.109375 13.1875 -22.109375 C 14.945312 -22.109375 16.554688 -21.726562 18.015625 -20.96875 C 19.472656 -20.21875 20.734375 -19.097656 21.796875 -17.609375 L 21.796875 -29.859375 L 24.546875 -29.859375 L 24.546875 0 L 21.796875 0 L 21.796875 -3.6875 C 20.628906 -2.28125 19.3125 -1.222656 17.84375 -0.515625 C 16.382812 0.179688 14.804688 0.53125 13.109375 0.53125 Z M 13.390625 -1.984375 C 14.878906 -1.984375 16.28125 -2.34375 17.59375 -3.0625 C 18.90625 -3.78125 19.957031 -4.796875 20.75 -6.109375 C 21.550781 -7.421875 21.953125 -8.941406 21.953125 -10.671875 C 21.953125 -12.316406 21.578125 -13.800781 20.828125 -15.125 C 20.085938 -16.457031 19.066406 -17.507812 17.765625 -18.28125 C 16.472656 -19.050781 15.03125 -19.4375 13.4375 -19.4375 C 11.832031 -19.4375 10.375 -19.035156 9.0625 -18.234375 C 7.75 -17.441406 6.726562 -16.378906 6 -15.046875 C 5.269531 -13.722656 4.90625 -12.289062 4.90625 -10.75 C 4.90625 -9.207031 5.273438 -7.765625 6.015625 -6.421875 C 6.765625 -5.085938 7.785156 -4.015625 9.078125 -3.203125 C 10.378906 -2.390625 11.816406 -1.984375 13.390625 -1.984375 Z M 13.390625 -1.984375 "/></g></g></g><g fill="#f5f5fa" fill-opacity="1"><g transform="translate(1021.307096, 462.159057)"><g><path d="M 13.3125 0.53125 C 10.976562 0.53125 8.96875 0.0234375 7.28125 -0.984375 C 5.59375 -2.003906 4.300781 -3.375 3.40625 -5.09375 C 2.507812 -6.8125 2.0625 -8.6875 2.0625 -10.71875 C 2.0625 -12.6875 2.519531 -14.539062 3.4375 -16.28125 C 4.363281 -18.03125 5.671875 -19.4375 7.359375 -20.5 C 9.054688 -21.570312 10.984375 -22.109375 13.140625 -22.109375 C 15.222656 -22.109375 17.117188 -21.617188 18.828125 -20.640625 C 20.535156 -19.671875 21.875 -18.320312 22.84375 -16.59375 C 23.820312 -14.863281 24.3125 -12.914062 24.3125 -10.75 L 24.3125 -10.546875 L 4.90625 -10.546875 C 4.957031 -8.898438 5.34375 -7.441406 6.0625 -6.171875 C 6.78125 -4.898438 7.757812 -3.910156 9 -3.203125 C 10.25 -2.503906 11.6875 -2.15625 13.3125 -2.15625 C 15.226562 -2.15625 16.796875 -2.597656 18.015625 -3.484375 C 19.234375 -4.378906 20.316406 -5.597656 21.265625 -7.140625 L 23.578125 -5.921875 C 22.523438 -3.890625 21.125 -2.304688 19.375 -1.171875 C 17.632812 -0.0351562 15.613281 0.53125 13.3125 0.53125 Z M 21.265625 -12.984375 C 20.722656 -15.117188 19.726562 -16.726562 18.28125 -17.8125 C 16.832031 -18.894531 15.132812 -19.4375 13.1875 -19.4375 C 11.207031 -19.4375 9.535156 -18.898438 8.171875 -17.828125 C 6.804688 -16.765625 5.8125 -15.148438 5.1875 -12.984375 Z M 21.265625 -12.984375 "/></g></g></g><g fill="#f5f5fa" fill-opacity="1"><g transform="translate(1047.680386, 462.159057)"><g><path d="M 6 -21.546875 L 6 -18.421875 C 6.84375 -19.640625 7.71875 -20.554688 8.625 -21.171875 C 9.53125 -21.796875 10.507812 -22.109375 11.5625 -22.109375 C 12.070312 -22.109375 12.523438 -22.046875 12.921875 -21.921875 C 13.316406 -21.804688 13.691406 -21.628906 14.046875 -21.390625 L 12.578125 -19.03125 C 12.035156 -19.300781 11.550781 -19.4375 11.125 -19.4375 C 10.144531 -19.4375 9.269531 -19.078125 8.5 -18.359375 C 7.726562 -17.640625 7.117188 -16.628906 6.671875 -15.328125 C 6.222656 -14.035156 6 -12.550781 6 -10.875 L 6 0 L 3.25 0 L 3.25 -21.546875 Z M 6 -21.546875 "/></g></g></g><g fill="#f5f5fa" fill-opacity="1"><g transform="translate(1060.988747, 462.159057)"><g><path d="M 13.3125 0.5625 C 11.195312 0.5625 9.28125 0.0546875 7.5625 -0.953125 C 5.84375 -1.960938 4.492188 -3.332031 3.515625 -5.0625 C 2.546875 -6.800781 2.0625 -8.6875 2.0625 -10.71875 C 2.0625 -12.738281 2.546875 -14.628906 3.515625 -16.390625 C 4.492188 -18.148438 5.84375 -19.539062 7.5625 -20.5625 C 9.28125 -21.59375 11.195312 -22.109375 13.3125 -22.109375 C 15.414062 -22.109375 17.328125 -21.59375 19.046875 -20.5625 C 20.765625 -19.539062 22.109375 -18.148438 23.078125 -16.390625 C 24.054688 -14.628906 24.546875 -12.738281 24.546875 -10.71875 C 24.546875 -8.6875 24.054688 -6.800781 23.078125 -5.0625 C 22.109375 -3.332031 20.765625 -1.960938 19.046875 -0.953125 C 17.328125 0.0546875 15.414062 0.5625 13.3125 0.5625 Z M 13.3125 -2.109375 C 14.875 -2.109375 16.296875 -2.492188 17.578125 -3.265625 C 18.867188 -4.035156 19.878906 -5.078125 20.609375 -6.390625 C 21.335938 -7.703125 21.703125 -9.128906 21.703125 -10.671875 C 21.703125 -12.242188 21.320312 -13.695312 20.5625 -15.03125 C 19.8125 -16.375 18.789062 -17.441406 17.5 -18.234375 C 16.21875 -19.035156 14.820312 -19.4375 13.3125 -19.4375 C 11.789062 -19.4375 10.390625 -19.035156 9.109375 -18.234375 C 7.828125 -17.441406 6.804688 -16.375 6.046875 -15.03125 C 5.285156 -13.695312 4.90625 -12.242188 4.90625 -10.671875 C 4.90625 -9.097656 5.269531 -7.660156 6 -6.359375 C 6.726562 -5.066406 7.726562 -4.035156 9 -3.265625 C 10.28125 -2.492188 11.71875 -2.109375 13.3125 -2.109375 Z M 13.3125 -2.109375 "/></g></g></g><g fill="#f5f5fa" fill-opacity="1"><g transform="translate(14.218994, 543.395316)"><g><path d="M 76.15625 -202.1875 L 76.15625 -178.96875 C 84.789062 -188.363281 94.5 -195.472656 105.28125 -200.296875 C 116.070312 -205.117188 127.429688 -207.53125 139.359375 -207.53125 C 152.304688 -207.53125 163.859375 -204.484375 174.015625 -198.390625 C 184.171875 -192.296875 192.296875 -183.28125 198.390625 -171.34375 C 208.285156 -183.789062 218.375 -192.929688 228.65625 -198.765625 C 238.9375 -204.609375 251.441406 -207.53125 266.171875 -207.53125 C 288.503906 -207.53125 305.570312 -200.738281 317.375 -187.15625 C 329.1875 -173.570312 335.09375 -154.847656 335.09375 -130.984375 L 335.09375 0 L 284.4375 0 L 284.4375 -111.5625 C 284.4375 -144.570312 272.890625 -161.078125 249.796875 -161.078125 C 236.585938 -161.078125 225.984375 -155.867188 217.984375 -145.453125 C 209.992188 -135.046875 206 -119.816406 206 -99.765625 L 206 0 L 155.359375 0 L 155.359375 -97.859375 C 155.359375 -118.929688 152.753906 -134.734375 147.546875 -145.265625 C 142.347656 -155.804688 133.019531 -161.078125 119.5625 -161.078125 C 110.9375 -161.078125 103.382812 -158.726562 96.90625 -154.03125 C 90.4375 -149.332031 85.359375 -142.347656 81.671875 -133.078125 C 77.992188 -123.816406 76.15625 -112.457031 76.15625 -99 L 76.15625 0 L 25.515625 0 L 25.515625 -202.1875 Z M 76.15625 -202.1875 "/></g></g></g><g fill="#f5f5fa" fill-opacity="1"><g transform="translate(372.530366, 543.395316)"><g><path d="M 111.5625 5.328125 C 94.5625 5.328125 78.632812 0.757812 63.78125 -8.375 C 48.925781 -17.507812 37.117188 -30.203125 28.359375 -46.453125 C 19.609375 -62.703125 15.234375 -80.851562 15.234375 -100.90625 C 15.234375 -121.46875 19.484375 -139.867188 27.984375 -156.109375 C 36.492188 -172.359375 47.984375 -184.988281 62.453125 -194 C 76.921875 -203.019531 92.910156 -207.53125 110.421875 -207.53125 C 134.535156 -207.53125 155.734375 -198.390625 174.015625 -180.109375 L 174.015625 -202.1875 L 224.65625 -202.1875 L 224.65625 0 L 174.015625 0 L 174.015625 -21.328125 C 164.878906 -12.441406 155.296875 -5.773438 145.265625 -1.328125 C 135.242188 3.109375 124.007812 5.328125 111.5625 5.328125 Z M 120.703125 -41.125 C 131.109375 -41.125 140.5625 -43.597656 149.0625 -48.546875 C 157.570312 -53.492188 164.238281 -60.597656 169.0625 -69.859375 C 173.882812 -79.128906 176.296875 -89.734375 176.296875 -101.671875 C 176.296875 -113.347656 173.882812 -123.691406 169.0625 -132.703125 C 164.238281 -141.710938 157.640625 -148.691406 149.265625 -153.640625 C 140.890625 -158.597656 131.367188 -161.078125 120.703125 -161.078125 C 109.785156 -161.078125 100.203125 -158.410156 91.953125 -153.078125 C 83.703125 -147.742188 77.351562 -140.570312 72.90625 -131.5625 C 68.46875 -122.550781 66.25 -112.457031 66.25 -101.28125 C 66.25 -89.863281 68.597656 -79.582031 73.296875 -70.4375 C 77.992188 -61.300781 84.46875 -54.128906 92.71875 -48.921875 C 100.96875 -43.722656 110.296875 -41.125 120.703125 -41.125 Z M 120.703125 -41.125 "/></g></g></g><g fill="#f5f5fa" fill-opacity="1"><g transform="translate(622.701018, 543.395316)"><g><path d="M 31.609375 -158.40625 L 5.71875 -158.40625 L 5.71875 -202.1875 L 31.609375 -202.1875 L 31.609375 -276.828125 L 82.25 -276.828125 L 82.25 -202.1875 L 112.328125 -202.1875 L 112.328125 -158.40625 L 82.25 -158.40625 L 82.25 0 L 31.609375 0 Z M 31.609375 -158.40625 "/></g></g></g><g fill="#f5f5fa" fill-opacity="1"><g transform="translate(736.934198, 543.395316)"><g><path d="M 123.75 5.328125 C 102.175781 5.328125 83.203125 0.757812 66.828125 -8.375 C 50.453125 -17.507812 37.757812 -30.070312 28.75 -46.0625 C 19.738281 -62.0625 15.234375 -79.960938 15.234375 -99.765625 C 15.234375 -119.566406 19.925781 -137.65625 29.3125 -154.03125 C 38.707031 -170.40625 51.78125 -183.414062 68.53125 -193.0625 C 85.289062 -202.707031 104.207031 -207.53125 125.28125 -207.53125 C 144.820312 -207.53125 162.332031 -204.035156 177.8125 -197.046875 C 193.300781 -190.066406 205.363281 -180.613281 214 -168.6875 L 176.6875 -138.21875 C 169.832031 -145.070312 162.28125 -150.335938 154.03125 -154.015625 C 145.78125 -157.703125 136.195312 -159.546875 125.28125 -159.546875 C 113.601562 -159.546875 103.253906 -156.878906 94.234375 -151.546875 C 85.222656 -146.210938 78.304688 -139.039062 73.484375 -130.03125 C 68.660156 -121.019531 66.25 -110.929688 66.25 -99.765625 C 66.25 -89.097656 68.597656 -79.382812 73.296875 -70.625 C 77.992188 -61.875 84.722656 -55.019531 93.484375 -50.0625 C 102.242188 -45.113281 112.332031 -42.640625 123.75 -42.640625 C 134.664062 -42.640625 144.4375 -44.476562 153.0625 -48.15625 C 161.695312 -51.84375 169.570312 -57.242188 176.6875 -64.359375 L 212.859375 -32.359375 C 203.210938 -20.679688 190.835938 -11.476562 175.734375 -4.75 C 160.628906 1.96875 143.300781 5.328125 123.75 5.328125 Z M 123.75 5.328125 "/></g></g></g><g fill="#f5f5fa" fill-opacity="1"><g transform="translate(968.446761, 543.395316)"><g><path d="M 76.53125 -280.25 L 76.53125 -181.625 C 86.6875 -190.257812 96.523438 -196.734375 106.046875 -201.046875 C 115.566406 -205.367188 125.65625 -207.53125 136.3125 -207.53125 C 149.257812 -207.53125 161 -204.734375 171.53125 -199.140625 C 182.070312 -193.554688 190.390625 -185.179688 196.484375 -174.015625 C 202.578125 -162.847656 205.625 -149.394531 205.625 -133.65625 L 205.625 0 L 154.984375 0 L 154.984375 -95.578125 C 154.984375 -110.554688 154.09375 -122.675781 152.3125 -131.9375 C 150.53125 -141.207031 147.164062 -148.378906 142.21875 -153.453125 C 137.269531 -158.535156 129.972656 -161.078125 120.328125 -161.078125 C 111.191406 -161.078125 103.320312 -158.472656 96.71875 -153.265625 C 90.113281 -148.054688 85.097656 -141.132812 81.671875 -132.5 C 78.242188 -123.875 76.53125 -114.484375 76.53125 -104.328125 L 76.53125 0 L 25.890625 0 L 25.890625 -280.25 Z M 76.53125 -280.25 "/></g></g></g><g fill="#f5f5fa" fill-opacity="1"><g transform="translate(1197.293875, 543.395316)"><g><path d="M 114.609375 4.953125 C 86.691406 4.953125 64.925781 -3.171875 49.3125 -19.421875 C 33.695312 -35.671875 25.890625 -60.296875 25.890625 -93.296875 L 25.890625 -202.1875 L 76.53125 -202.1875 L 76.53125 -96.71875 C 76.53125 -78.4375 79.578125 -64.660156 85.671875 -55.390625 C 91.765625 -46.128906 101.410156 -41.5 114.609375 -41.5 C 127.816406 -41.5 137.460938 -45.941406 143.546875 -54.828125 C 149.640625 -63.710938 152.6875 -76.914062 152.6875 -94.4375 L 152.6875 -202.1875 L 203.34375 -202.1875 L 203.34375 -94.4375 C 203.34375 -73.113281 199.847656 -55.023438 192.859375 -40.171875 C 185.878906 -25.316406 175.722656 -14.082031 162.390625 -6.46875 C 149.066406 1.144531 133.140625 4.953125 114.609375 4.953125 Z M 114.609375 4.953125 "/></g></g></g><g fill="#f5f5fa" fill-opacity="1"><g transform="translate(361.795126, 336.029192)"><g><path d="M 19.453125 0 L 16.421875 0 L 5.421875 -12.15625 L 5.421875 0 L 2.96875 0 L 2.96875 -24.515625 L 5.421875 -24.515625 L 5.421875 -14.34375 L 15.328125 -24.515625 L 18.328125 -24.515625 L 7.484375 -13.21875 Z M 19.453125 0 "/></g></g></g><g fill="#f5f5fa" fill-opacity="1"><g transform="translate(381.255578, 336.029192)"><g><path d="M 15.46875 -18.125 L 17.890625 -18.125 L 7.0625 6.625 L 4.609375 6.625 L 8.125 -1.234375 L 0.65625 -18.125 L 3.03125 -18.125 L 9.328125 -3.890625 Z M 15.46875 -18.125 "/></g></g></g><g fill="#ffffff" fill-opacity="1"><g transform="translate(829.915044, 311.983009)"><g><path d="M 2 -18.453125 L 3.703125 -18.453125 L 3.703125 -7.9375 L 9.84375 -13.3125 L 12.375 -13.3125 L 5.09375 -6.96875 L 12.8125 0 L 10.375 0 L 3.703125 -5.984375 L 3.703125 0 L 2 0 Z M 2 -18.453125 "/></g></g></g><g fill="#ffffff" fill-opacity="1"><g transform="translate(842.574098, 311.983009)"><g><path d="M 11.359375 -13.3125 L 13.125 -13.3125 L 5.1875 4.859375 L 3.390625 4.859375 L 5.96875 -0.90625 L 0.46875 -13.3125 L 2.234375 -13.3125 L 6.84375 -2.859375 Z M 11.359375 -13.3125 "/></g></g></g><g fill="#ffffff" fill-opacity="1"><g transform="translate(856.010243, 311.983009)"><g><path d="M 8.21875 0.328125 C 6.78125 0.328125 5.539062 0.015625 4.5 -0.609375 C 3.457031 -1.234375 2.660156 -2.078125 2.109375 -3.140625 C 1.554688 -4.203125 1.28125 -5.359375 1.28125 -6.609375 C 1.28125 -7.835938 1.5625 -8.988281 2.125 -10.0625 C 2.695312 -11.132812 3.503906 -12 4.546875 -12.65625 C 5.585938 -13.320312 6.78125 -13.65625 8.125 -13.65625 C 9.40625 -13.65625 10.570312 -13.351562 11.625 -12.75 C 12.675781 -12.15625 13.503906 -11.320312 14.109375 -10.25 C 14.710938 -9.175781 15.015625 -7.972656 15.015625 -6.640625 L 15.015625 -6.515625 L 3.03125 -6.515625 C 3.0625 -5.492188 3.296875 -4.585938 3.734375 -3.796875 C 4.179688 -3.015625 4.789062 -2.40625 5.5625 -1.96875 C 6.332031 -1.539062 7.21875 -1.328125 8.21875 -1.328125 C 9.40625 -1.328125 10.375 -1.601562 11.125 -2.15625 C 11.875 -2.707031 12.539062 -3.457031 13.125 -4.40625 L 14.5625 -3.65625 C 13.90625 -2.40625 13.035156 -1.425781 11.953125 -0.71875 C 10.878906 -0.0195312 9.632812 0.328125 8.21875 0.328125 Z M 13.125 -8.015625 C 12.789062 -9.335938 12.175781 -10.332031 11.28125 -11 C 10.394531 -11.664062 9.347656 -12 8.140625 -12 C 6.921875 -12 5.890625 -11.671875 5.046875 -11.015625 C 4.203125 -10.359375 3.585938 -9.359375 3.203125 -8.015625 Z M 13.125 -8.015625 "/></g></g></g><g fill="#ffffff" fill-opacity="1"><g transform="translate(872.304074, 311.983009)"><g><path d="M 3.359375 -18.453125 L 3.359375 0 L 1.65625 0 L 1.65625 -18.453125 Z M 3.359375 -18.453125 "/></g></g></g><g fill="#f5f5fa" fill-opacity="1"><g transform="translate(507.402629, 285.020958)"><g><path d="M 3.046875 -10.9375 L 3.046875 -9.34375 C 3.472656 -9.96875 3.914062 -10.4375 4.375 -10.75 C 4.832031 -11.0625 5.332031 -11.21875 5.875 -11.21875 C 6.132812 -11.21875 6.363281 -11.1875 6.5625 -11.125 C 6.757812 -11.0625 6.945312 -10.972656 7.125 -10.859375 L 6.390625 -9.65625 C 6.109375 -9.789062 5.859375 -9.859375 5.640625 -9.859375 C 5.148438 -9.859375 4.707031 -9.675781 4.3125 -9.3125 C 3.925781 -8.945312 3.617188 -8.4375 3.390625 -7.78125 C 3.160156 -7.125 3.046875 -6.367188 3.046875 -5.515625 L 3.046875 0 L 1.640625 0 L 1.640625 -10.9375 Z M 3.046875 -10.9375 "/></g></g></g><g fill="#f5f5fa" fill-opacity="1"><g transform="translate(514.159101, 285.020958)"><g><path d="M 6.75 0.265625 C 5.570312 0.265625 4.550781 0.0078125 3.6875 -0.5 C 2.832031 -1.019531 2.175781 -1.710938 1.71875 -2.578125 C 1.269531 -3.453125 1.046875 -4.40625 1.046875 -5.4375 C 1.046875 -6.4375 1.28125 -7.378906 1.75 -8.265625 C 2.21875 -9.148438 2.878906 -9.863281 3.734375 -10.40625 C 4.597656 -10.945312 5.578125 -11.21875 6.671875 -11.21875 C 7.734375 -11.21875 8.695312 -10.96875 9.5625 -10.46875 C 10.425781 -9.976562 11.101562 -9.296875 11.59375 -8.421875 C 12.082031 -7.546875 12.328125 -6.554688 12.328125 -5.453125 L 12.328125 -5.359375 L 2.484375 -5.359375 C 2.515625 -4.515625 2.710938 -3.769531 3.078125 -3.125 C 3.441406 -2.476562 3.9375 -1.976562 4.5625 -1.625 C 5.195312 -1.269531 5.925781 -1.09375 6.75 -1.09375 C 7.726562 -1.09375 8.523438 -1.316406 9.140625 -1.765625 C 9.753906 -2.222656 10.304688 -2.84375 10.796875 -3.625 L 11.96875 -3 C 11.425781 -1.976562 10.710938 -1.175781 9.828125 -0.59375 C 8.941406 -0.0195312 7.914062 0.265625 6.75 0.265625 Z M 10.796875 -6.59375 C 10.515625 -7.675781 10.003906 -8.488281 9.265625 -9.03125 C 8.535156 -9.582031 7.675781 -9.859375 6.6875 -9.859375 C 5.6875 -9.859375 4.835938 -9.585938 4.140625 -9.046875 C 3.453125 -8.503906 2.953125 -7.6875 2.640625 -6.59375 Z M 10.796875 -6.59375 "/></g></g></g><g fill="#f5f5fa" fill-opacity="1"><g transform="translate(527.548452, 285.020958)"><g><path d="M 3.046875 -10.9375 L 3.046875 -8.9375 C 3.578125 -9.6875 4.210938 -10.253906 4.953125 -10.640625 C 5.703125 -11.023438 6.515625 -11.21875 7.390625 -11.21875 C 8.429688 -11.21875 9.382812 -10.957031 10.25 -10.4375 C 11.113281 -9.914062 11.796875 -9.21875 12.296875 -8.34375 C 12.804688 -7.476562 13.0625 -6.53125 13.0625 -5.5 C 13.0625 -4.46875 12.8125 -3.507812 12.3125 -2.625 C 11.820312 -1.738281 11.144531 -1.035156 10.28125 -0.515625 C 9.425781 0.00390625 8.476562 0.265625 7.4375 0.265625 C 5.6875 0.265625 4.222656 -0.445312 3.046875 -1.875 L 3.046875 4 L 1.640625 4 L 1.640625 -10.9375 Z M 7.296875 -1.015625 C 8.085938 -1.015625 8.8125 -1.210938 9.46875 -1.609375 C 10.132812 -2.015625 10.65625 -2.5625 11.03125 -3.25 C 11.414062 -3.9375 11.609375 -4.671875 11.609375 -5.453125 C 11.609375 -6.234375 11.421875 -6.960938 11.046875 -7.640625 C 10.679688 -8.316406 10.164062 -8.851562 9.5 -9.25 C 8.832031 -9.65625 8.097656 -9.859375 7.296875 -9.859375 C 6.484375 -9.859375 5.742188 -9.660156 5.078125 -9.265625 C 4.421875 -8.878906 3.898438 -8.347656 3.515625 -7.671875 C 3.128906 -7.003906 2.9375 -6.253906 2.9375 -5.421875 C 2.9375 -4.535156 3.140625 -3.757812 3.546875 -3.09375 C 3.953125 -2.425781 4.488281 -1.910156 5.15625 -1.546875 C 5.820312 -1.191406 6.535156 -1.015625 7.296875 -1.015625 Z M 7.296875 -1.015625 "/></g></g></g><g fill="#132a35" fill-opacity="1"><g transform="translate(993.501292, 461.751525)"><g><path d="M 13.109375 0.53125 C 11.046875 0.53125 9.175781 0.015625 7.5 -1.015625 C 5.820312 -2.046875 4.492188 -3.429688 3.515625 -5.171875 C 2.546875 -6.921875 2.0625 -8.804688 2.0625 -10.828125 C 2.0625 -12.859375 2.554688 -14.734375 3.546875 -16.453125 C 4.535156 -18.171875 5.878906 -19.539062 7.578125 -20.5625 C 9.285156 -21.59375 11.15625 -22.109375 13.1875 -22.109375 C 14.945312 -22.109375 16.554688 -21.726562 18.015625 -20.96875 C 19.472656 -20.21875 20.734375 -19.097656 21.796875 -17.609375 L 21.796875 -29.859375 L 24.546875 -29.859375 L 24.546875 0 L 21.796875 0 L 21.796875 -3.6875 C 20.628906 -2.28125 19.3125 -1.222656 17.84375 -0.515625 C 16.382812 0.179688 14.804688 0.53125 13.109375 0.53125 Z M 13.390625 -1.984375 C 14.878906 -1.984375 16.28125 -2.34375 17.59375 -3.0625 C 18.90625 -3.78125 19.957031 -4.796875 20.75 -6.109375 C 21.550781 -7.421875 21.953125 -8.941406 21.953125 -10.671875 C 21.953125 -12.316406 21.578125 -13.800781 20.828125 -15.125 C 20.085938 -16.457031 19.066406 -17.507812 17.765625 -18.28125 C 16.472656 -19.050781 15.03125 -19.4375 13.4375 -19.4375 C 11.832031 -19.4375 10.375 -19.035156 9.0625 -18.234375 C 7.75 -17.441406 6.726562 -16.378906 6 -15.046875 C 5.269531 -13.722656 4.90625 -12.289062 4.90625 -10.75 C 4.90625 -9.207031 5.273438 -7.765625 6.015625 -6.421875 C 6.765625 -5.085938 7.785156 -4.015625 9.078125 -3.203125 C 10.378906 -2.390625 11.816406 -1.984375 13.390625 -1.984375 Z M 13.390625 -1.984375 "/></g></g></g><g fill="#132a35" fill-opacity="1"><g transform="translate(1021.291998, 461.751525)"><g><path d="M 13.3125 0.53125 C 10.976562 0.53125 8.96875 0.0234375 7.28125 -0.984375 C 5.59375 -2.003906 4.300781 -3.375 3.40625 -5.09375 C 2.507812 -6.8125 2.0625 -8.6875 2.0625 -10.71875 C 2.0625 -12.6875 2.519531 -14.539062 3.4375 -16.28125 C 4.363281 -18.03125 5.671875 -19.4375 7.359375 -20.5 C 9.054688 -21.570312 10.984375 -22.109375 13.140625 -22.109375 C 15.222656 -22.109375 17.117188 -21.617188 18.828125 -20.640625 C 20.535156 -19.671875 21.875 -18.320312 22.84375 -16.59375 C 23.820312 -14.863281 24.3125 -12.914062 24.3125 -10.75 L 24.3125 -10.546875 L 4.90625 -10.546875 C 4.957031 -8.898438 5.34375 -7.441406 6.0625 -6.171875 C 6.78125 -4.898438 7.757812 -3.910156 9 -3.203125 C 10.25 -2.503906 11.6875 -2.15625 13.3125 -2.15625 C 15.226562 -2.15625 16.796875 -2.597656 18.015625 -3.484375 C 19.234375 -4.378906 20.316406 -5.597656 21.265625 -7.140625 L 23.578125 -5.921875 C 22.523438 -3.890625 21.125 -2.304688 19.375 -1.171875 C 17.632812 -0.0351562 15.613281 0.53125 13.3125 0.53125 Z M 21.265625 -12.984375 C 20.722656 -15.117188 19.726562 -16.726562 18.28125 -17.8125 C 16.832031 -18.894531 15.132812 -19.4375 13.1875 -19.4375 C 11.207031 -19.4375 9.535156 -18.898438 8.171875 -17.828125 C 6.804688 -16.765625 5.8125 -15.148438 5.1875 -12.984375 Z M 21.265625 -12.984375 "/></g></g></g></svg>