<svg xmlns="http://www.w3.org/2000/svg" xmlns:xlink="http://www.w3.org/1999/xlink" width="1920" zoomAndPan="magnify" viewBox="0 0 1440 809.999993" height="1080" preserveAspectRatio="xMidYMid meet" version="1.0"><defs><g/></defs><rect x="-144" width="1728" fill="#0d1f23" y="-80.999999" height="971.999992" fill-opacity="1"/><g fill="#f5f5fa" fill-opacity="1"><g transform="translate(392.528615, 460.409793)"><g><path d="M 120.796875 0 L 89.640625 0 L 44.015625 -64.71875 L 44.015625 0 L 16.484375 0 L 16.484375 -144.3125 L 44.015625 -144.3125 L 44.015625 -88.03125 L 85.625 -144.3125 L 116.578125 -144.3125 L 66.328125 -76.78125 Z M 120.796875 0 "/></g></g></g><g fill="#f5f5fa" fill-opacity="1"><g transform="translate(513.329387, 460.409793)"><g><path d="M 44.625 -62.515625 L 2.015625 -144.3125 L 31.5625 -144.3125 L 58.484375 -89.84375 L 85.015625 -144.3125 L 114.375 -144.3125 L 72.15625 -62.515625 L 72.15625 0 L 44.625 0 Z M 44.625 -62.515625 "/></g></g></g><g fill="#f5f5fa" fill-opacity="1"><g transform="translate(629.708184, 460.409793)"><g><path d="M 44.015625 -144.3125 L 44.015625 -26.125 L 84.015625 -26.125 L 84.015625 0 L 16.484375 0 L 16.484375 -144.3125 Z M 44.015625 -144.3125 "/></g></g></g><g fill="#f5f5fa" fill-opacity="1"><g transform="translate(718.14803, 460.409793)"><g><path d="M 16.484375 -144.3125 L 95.28125 -144.3125 L 95.28125 -117.578125 L 44.015625 -117.578125 L 44.015625 -91.25 L 95.28125 -91.25 L 95.28125 -65.125 L 44.015625 -65.125 L 44.015625 -26.9375 L 95.28125 -26.9375 L 95.28125 0 L 16.484375 0 Z M 16.484375 -144.3125 "/></g></g></g><g fill="#f5f5fa" fill-opacity="1"><g transform="translate(101.954284, 460.509429)"><g><path d="M 4.34375 -35.90625 L 7.953125 -35.90625 L 7.953125 -20.84375 L 26.25 -20.84375 L 26.25 -35.90625 L 29.84375 -35.90625 L 29.84375 0 L 26.25 0 L 26.25 -17.34375 L 7.953125 -17.34375 L 7.953125 0 L 4.34375 0 Z M 4.34375 -35.90625 "/></g></g></g><g fill="#f5f5fa" fill-opacity="1"><g transform="translate(136.099001, 460.509429)"><g><path d="M 5.5 -31.84375 C 4.726562 -31.84375 4.066406 -32.125 3.515625 -32.6875 C 2.972656 -33.257812 2.703125 -33.929688 2.703125 -34.703125 C 2.703125 -35.503906 2.972656 -36.171875 3.515625 -36.703125 C 4.066406 -37.234375 4.726562 -37.5 5.5 -37.5 C 6.269531 -37.5 6.9375 -37.222656 7.5 -36.671875 C 8.0625 -36.117188 8.34375 -35.460938 8.34375 -34.703125 C 8.34375 -33.929688 8.0625 -33.257812 7.5 -32.6875 C 6.9375 -32.125 6.269531 -31.84375 5.5 -31.84375 Z M 3.84375 -26.546875 L 7.25 -26.546875 L 7.25 0 L 3.84375 0 Z M 3.84375 -26.546875 "/></g></g></g><g fill="#f5f5fa" fill-opacity="1"><g transform="translate(147.147287, 460.509429)"><g/></g></g><g fill="#f5f5fa" fill-opacity="1"><g transform="translate(160.995141, 460.509429)"><g><path d="M 6.84375 -23.546875 L 2.15625 -23.546875 L 2.15625 -26.546875 L 6.84375 -26.546875 L 6.84375 -36.453125 L 10.25 -36.453125 L 10.25 -26.546875 L 15.703125 -26.546875 L 15.703125 -23.546875 L 10.25 -23.546875 L 10.25 0 L 6.84375 0 Z M 6.84375 -23.546875 "/></g></g></g><g fill="#f5f5fa" fill-opacity="1"><g transform="translate(177.942513, 460.509429)"><g><path d="M 7.40625 -36.796875 L 7.40625 -21.796875 C 8.800781 -23.597656 10.316406 -24.957031 11.953125 -25.875 C 13.585938 -26.789062 15.382812 -27.25 17.34375 -27.25 C 19.28125 -27.25 20.988281 -26.796875 22.46875 -25.890625 C 23.957031 -24.992188 25.109375 -23.644531 25.921875 -21.84375 C 26.742188 -20.050781 27.15625 -17.851562 27.15625 -15.25 L 27.15625 0 L 23.75 0 L 23.75 -14.453125 C 23.75 -17.679688 23.195312 -20.101562 22.09375 -21.71875 C 21 -23.34375 19.203125 -24.15625 16.703125 -24.15625 C 14.898438 -24.15625 13.289062 -23.671875 11.875 -22.703125 C 10.457031 -21.734375 9.359375 -20.378906 8.578125 -18.640625 C 7.796875 -16.910156 7.40625 -14.929688 7.40625 -12.703125 L 7.40625 0 L 4 0 L 4 -36.796875 Z M 7.40625 -36.796875 "/></g></g></g><g fill="#f5f5fa" fill-opacity="1"><g transform="translate(208.587763, 460.509429)"><g><path d="M 16.40625 0.65625 C 13.53125 0.65625 11.050781 0.03125 8.96875 -1.21875 C 6.882812 -2.46875 5.289062 -4.148438 4.1875 -6.265625 C 3.09375 -8.390625 2.546875 -10.703125 2.546875 -13.203125 C 2.546875 -15.628906 3.113281 -17.914062 4.25 -20.0625 C 5.382812 -22.21875 6.992188 -23.953125 9.078125 -25.265625 C 11.160156 -26.585938 13.535156 -27.25 16.203125 -27.25 C 18.765625 -27.25 21.09375 -26.648438 23.1875 -25.453125 C 25.289062 -24.253906 26.941406 -22.585938 28.140625 -20.453125 C 29.347656 -18.316406 29.953125 -15.914062 29.953125 -13.25 L 29.953125 -13 L 6.046875 -13 C 6.117188 -10.96875 6.59375 -9.164062 7.46875 -7.59375 C 8.351562 -6.03125 9.5625 -4.816406 11.09375 -3.953125 C 12.632812 -3.085938 14.40625 -2.65625 16.40625 -2.65625 C 18.769531 -2.65625 20.703125 -3.203125 22.203125 -4.296875 C 23.703125 -5.398438 25.035156 -6.898438 26.203125 -8.796875 L 29.046875 -7.296875 C 27.742188 -4.796875 26.019531 -2.84375 23.875 -1.4375 C 21.726562 -0.0390625 19.238281 0.65625 16.40625 0.65625 Z M 26.203125 -16 C 25.535156 -18.632812 24.304688 -20.617188 22.515625 -21.953125 C 20.734375 -23.285156 18.644531 -23.953125 16.25 -23.953125 C 13.8125 -23.953125 11.75 -23.289062 10.0625 -21.96875 C 8.382812 -20.65625 7.164062 -18.664062 6.40625 -16 Z M 26.203125 -16 "/></g></g></g><g fill="#f5f5fa" fill-opacity="1"><g transform="translate(241.082734, 460.509429)"><g><path d="M 7.40625 -26.546875 L 7.40625 -22.703125 C 8.4375 -24.203125 9.507812 -25.332031 10.625 -26.09375 C 11.738281 -26.863281 12.945312 -27.25 14.25 -27.25 C 14.882812 -27.25 15.441406 -27.171875 15.921875 -27.015625 C 16.410156 -26.867188 16.867188 -26.644531 17.296875 -26.34375 L 15.5 -23.453125 C 14.832031 -23.785156 14.234375 -23.953125 13.703125 -23.953125 C 12.503906 -23.953125 11.425781 -23.507812 10.46875 -22.625 C 9.519531 -21.738281 8.769531 -20.492188 8.21875 -18.890625 C 7.675781 -17.296875 7.40625 -15.46875 7.40625 -13.40625 L 7.40625 0 L 4 0 L 4 -26.546875 Z M 7.40625 -26.546875 "/></g></g></g><g fill="#f5f5fa" fill-opacity="1"><g transform="translate(257.480194, 460.509429)"><g><path d="M 16.40625 0.65625 C 13.53125 0.65625 11.050781 0.03125 8.96875 -1.21875 C 6.882812 -2.46875 5.289062 -4.148438 4.1875 -6.265625 C 3.09375 -8.390625 2.546875 -10.703125 2.546875 -13.203125 C 2.546875 -15.628906 3.113281 -17.914062 4.25 -20.0625 C 5.382812 -22.21875 6.992188 -23.953125 9.078125 -25.265625 C 11.160156 -26.585938 13.535156 -27.25 16.203125 -27.25 C 18.765625 -27.25 21.09375 -26.648438 23.1875 -25.453125 C 25.289062 -24.253906 26.941406 -22.585938 28.140625 -20.453125 C 29.347656 -18.316406 29.953125 -15.914062 29.953125 -13.25 L 29.953125 -13 L 6.046875 -13 C 6.117188 -10.96875 6.59375 -9.164062 7.46875 -7.59375 C 8.351562 -6.03125 9.5625 -4.816406 11.09375 -3.953125 C 12.632812 -3.085938 14.40625 -2.65625 16.40625 -2.65625 C 18.769531 -2.65625 20.703125 -3.203125 22.203125 -4.296875 C 23.703125 -5.398438 25.035156 -6.898438 26.203125 -8.796875 L 29.046875 -7.296875 C 27.742188 -4.796875 26.019531 -2.84375 23.875 -1.4375 C 21.726562 -0.0390625 19.238281 0.65625 16.40625 0.65625 Z M 26.203125 -16 C 25.535156 -18.632812 24.304688 -20.617188 22.515625 -21.953125 C 20.734375 -23.285156 18.644531 -23.953125 16.25 -23.953125 C 13.8125 -23.953125 11.75 -23.289062 10.0625 -21.96875 C 8.382812 -20.65625 7.164062 -18.664062 6.40625 -16 Z M 26.203125 -16 "/></g></g></g><g fill="#f5f5fa" fill-opacity="1"><g transform="translate(289.975165, 460.509429)"><g><path d="M 5.59375 -36.796875 L 9.046875 -36.796875 L 9.046875 -9 L 5.59375 -9 Z M 7.34375 0.703125 C 6.507812 0.703125 5.800781 0.40625 5.21875 -0.1875 C 4.632812 -0.789062 4.34375 -1.507812 4.34375 -2.34375 C 4.34375 -2.882812 4.476562 -3.382812 4.75 -3.84375 C 5.019531 -4.3125 5.382812 -4.6875 5.84375 -4.96875 C 6.3125 -5.257812 6.8125 -5.40625 7.34375 -5.40625 C 7.882812 -5.40625 8.378906 -5.269531 8.828125 -5 C 9.273438 -4.726562 9.640625 -4.359375 9.921875 -3.890625 C 10.203125 -3.429688 10.34375 -2.914062 10.34375 -2.34375 C 10.34375 -1.507812 10.050781 -0.789062 9.46875 -0.1875 C 8.882812 0.40625 8.175781 0.703125 7.34375 0.703125 Z M 7.34375 0.703125 "/></g></g></g><g fill="#f5f5fa" fill-opacity="1"><g transform="translate(304.72289, 460.509429)"><g/></g></g><g fill="#f5f5fa" fill-opacity="1"><g transform="translate(318.570744, 460.509429)"><g><path d="M 4.34375 -35.90625 L 7.953125 -35.90625 L 7.953125 0 L 4.34375 0 Z M 4.34375 -35.90625 "/></g></g></g><g fill="#f5f5fa" fill-opacity="1"><g transform="translate(330.818851, 460.509429)"><g><path d="M 4.953125 -24.5 C 5.453125 -25.5 5.828125 -26.359375 6.078125 -27.078125 C 6.328125 -27.796875 6.519531 -28.800781 6.65625 -30.09375 L 4.5 -30.09375 L 4.5 -36.796875 L 8.90625 -36.796875 L 8.90625 -32.09375 C 8.90625 -30.257812 8.753906 -28.726562 8.453125 -27.5 C 8.148438 -26.269531 7.613281 -24.90625 6.84375 -23.40625 Z M 4.953125 -24.5 "/></g></g></g><g fill="#f5f5fa" fill-opacity="1"><g transform="translate(344.716693, 460.509429)"><g><path d="M 7.40625 -26.546875 L 7.40625 -22 C 8.601562 -23.726562 9.953125 -25.035156 11.453125 -25.921875 C 12.953125 -26.804688 14.632812 -27.25 16.5 -27.25 C 18.53125 -27.25 20.253906 -26.710938 21.671875 -25.640625 C 23.085938 -24.578125 24.164062 -22.976562 24.90625 -20.84375 C 26.070312 -22.945312 27.492188 -24.539062 29.171875 -25.625 C 30.859375 -26.707031 32.6875 -27.25 34.65625 -27.25 C 36.488281 -27.25 38.085938 -26.816406 39.453125 -25.953125 C 40.816406 -25.085938 41.863281 -23.785156 42.59375 -22.046875 C 43.332031 -20.316406 43.703125 -18.21875 43.703125 -15.75 L 43.703125 0 L 40.296875 0 L 40.296875 -16.453125 C 40.296875 -18.785156 39.769531 -20.617188 38.71875 -21.953125 C 37.675781 -23.285156 36.101562 -23.953125 34 -23.953125 C 32.332031 -23.953125 30.847656 -23.492188 29.546875 -22.578125 C 28.242188 -21.660156 27.242188 -20.375 26.546875 -18.71875 C 25.847656 -17.070312 25.5 -15.179688 25.5 -13.046875 L 25.5 0 L 22.09375 0 L 22.09375 -14.75 C 22.09375 -17.8125 21.617188 -20.109375 20.671875 -21.640625 C 19.722656 -23.179688 18.113281 -23.953125 15.84375 -23.953125 C 14.113281 -23.953125 12.613281 -23.484375 11.34375 -22.546875 C 10.082031 -21.617188 9.109375 -20.296875 8.421875 -18.578125 C 7.742188 -16.859375 7.40625 -14.847656 7.40625 -12.546875 L 7.40625 0 L 4 0 L 4 -26.546875 Z M 7.40625 -26.546875 "/></g></g></g><g fill="#f5f5fa" fill-opacity="1"><g transform="translate(819.862411, 459.759429)"><g><path d="M 6.296875 0.703125 C 5.460938 0.703125 4.753906 0.40625 4.171875 -0.1875 C 3.585938 -0.789062 3.296875 -1.507812 3.296875 -2.34375 C 3.296875 -2.882812 3.425781 -3.382812 3.6875 -3.84375 C 3.957031 -4.3125 4.328125 -4.6875 4.796875 -4.96875 C 5.265625 -5.257812 5.765625 -5.40625 6.296875 -5.40625 C 6.828125 -5.40625 7.316406 -5.269531 7.765625 -5 C 8.222656 -4.726562 8.59375 -4.359375 8.875 -3.890625 C 9.15625 -3.429688 9.296875 -2.914062 9.296875 -2.34375 C 9.296875 -1.507812 9.003906 -0.789062 8.421875 -0.1875 C 7.835938 0.40625 7.128906 0.703125 6.296875 0.703125 Z M 6.296875 0.703125 "/></g></g></g><g fill="#f5f5fa" fill-opacity="1"><g transform="translate(832.460456, 459.759429)"><g/></g></g><g fill="#f5f5fa" fill-opacity="1"><g transform="translate(846.30831, 459.759429)"><g><path d="M 11.953125 -35.90625 C 14.378906 -35.90625 16.414062 -35.53125 18.0625 -34.78125 C 19.71875 -34.03125 20.945312 -33.003906 21.75 -31.703125 C 22.550781 -30.398438 22.953125 -28.882812 22.953125 -27.15625 C 22.953125 -25.550781 22.566406 -24.097656 21.796875 -22.796875 C 21.035156 -21.492188 19.882812 -20.425781 18.34375 -19.59375 C 23.382812 -17.894531 25.90625 -14.796875 25.90625 -10.296875 C 25.90625 -8.460938 25.445312 -6.757812 24.53125 -5.1875 C 23.613281 -3.625 22.269531 -2.367188 20.5 -1.421875 C 18.726562 -0.472656 16.628906 0 14.203125 0 L 4.34375 0 L 4.34375 -35.90625 Z M 10.34375 -20.84375 C 13.144531 -20.84375 15.320312 -21.351562 16.875 -22.375 C 18.425781 -23.394531 19.203125 -24.988281 19.203125 -27.15625 C 19.203125 -28.75 18.625 -30.019531 17.46875 -30.96875 C 16.320312 -31.925781 14.71875 -32.40625 12.65625 -32.40625 L 7.953125 -32.40625 L 7.953125 -20.84375 Z M 13.5 -3.5 C 15.4375 -3.5 17.050781 -3.804688 18.34375 -4.421875 C 19.644531 -5.035156 20.601562 -5.859375 21.21875 -6.890625 C 21.84375 -7.929688 22.15625 -9.050781 22.15625 -10.25 C 22.15625 -11.75 21.742188 -13.03125 20.921875 -14.09375 C 20.109375 -15.164062 18.914062 -15.972656 17.34375 -16.515625 C 15.78125 -17.066406 13.898438 -17.34375 11.703125 -17.34375 L 7.953125 -17.34375 L 7.953125 -3.5 Z M 13.5 -3.5 "/></g></g></g><g fill="#f5f5fa" fill-opacity="1"><g transform="translate(874.903878, 459.759429)"><g><path d="M 15.046875 0.65625 C 11.210938 0.65625 8.300781 -0.476562 6.3125 -2.75 C 4.332031 -5.019531 3.34375 -8.367188 3.34375 -12.796875 L 3.34375 -26.546875 L 6.953125 -26.546875 L 6.953125 -11.40625 C 6.953125 -8.5 7.664062 -6.3125 9.09375 -4.84375 C 10.53125 -3.382812 12.515625 -2.65625 15.046875 -2.65625 C 16.816406 -2.65625 18.300781 -3.007812 19.5 -3.71875 C 20.695312 -4.4375 21.59375 -5.4375 22.1875 -6.71875 C 22.789062 -8.007812 23.09375 -9.488281 23.09375 -11.15625 L 23.09375 -26.546875 L 26.703125 -26.546875 L 26.703125 -12.796875 C 26.703125 -8.328125 25.71875 -4.96875 23.75 -2.71875 C 21.78125 -0.46875 18.878906 0.65625 15.046875 0.65625 Z M 15.046875 0.65625 "/></g></g></g><g fill="#f5f5fa" fill-opacity="1"><g transform="translate(905.299178, 459.759429)"><g><path d="M 6.84375 -23.546875 L 2.15625 -23.546875 L 2.15625 -26.546875 L 6.84375 -26.546875 L 6.84375 -36.453125 L 10.25 -36.453125 L 10.25 -26.546875 L 15.703125 -26.546875 L 15.703125 -23.546875 L 10.25 -23.546875 L 10.25 0 L 6.84375 0 Z M 6.84375 -23.546875 "/></g></g></g><g fill="#f5f5fa" fill-opacity="1"><g transform="translate(922.24655, 459.759429)"><g/></g></g><g fill="#f5f5fa" fill-opacity="1"><g transform="translate(936.094404, 459.759429)"><g><path d="M 22.65625 -26.546875 L 26.203125 -26.546875 L 10.34375 9.703125 L 6.75 9.703125 L 11.90625 -1.796875 L 0.953125 -26.546875 L 4.453125 -26.546875 L 13.65625 -5.703125 Z M 22.65625 -26.546875 "/></g></g></g><g fill="#f5f5fa" fill-opacity="1"><g transform="translate(962.890251, 459.759429)"><g><path d="M 16.40625 0.703125 C 13.800781 0.703125 11.441406 0.078125 9.328125 -1.171875 C 7.210938 -2.421875 5.550781 -4.113281 4.34375 -6.25 C 3.144531 -8.382812 2.546875 -10.703125 2.546875 -13.203125 C 2.546875 -15.703125 3.144531 -18.035156 4.34375 -20.203125 C 5.550781 -22.367188 7.210938 -24.082031 9.328125 -25.34375 C 11.441406 -26.613281 13.800781 -27.25 16.40625 -27.25 C 19 -27.25 21.351562 -26.613281 23.46875 -25.34375 C 25.59375 -24.082031 27.253906 -22.367188 28.453125 -20.203125 C 29.648438 -18.035156 30.25 -15.703125 30.25 -13.203125 C 30.25 -10.703125 29.648438 -8.382812 28.453125 -6.25 C 27.253906 -4.113281 25.59375 -2.421875 23.46875 -1.171875 C 21.351562 0.078125 19 0.703125 16.40625 0.703125 Z M 16.40625 -2.59375 C 18.332031 -2.59375 20.085938 -3.066406 21.671875 -4.015625 C 23.253906 -4.972656 24.492188 -6.257812 25.390625 -7.875 C 26.296875 -9.488281 26.75 -11.25 26.75 -13.15625 C 26.75 -15.082031 26.28125 -16.867188 25.34375 -18.515625 C 24.414062 -20.171875 23.160156 -21.488281 21.578125 -22.46875 C 19.992188 -23.457031 18.269531 -23.953125 16.40625 -23.953125 C 14.53125 -23.953125 12.800781 -23.457031 11.21875 -22.46875 C 9.632812 -21.488281 8.375 -20.171875 7.4375 -18.515625 C 6.507812 -16.867188 6.046875 -15.082031 6.046875 -13.15625 C 6.046875 -11.21875 6.492188 -9.445312 7.390625 -7.84375 C 8.296875 -6.25 9.53125 -4.972656 11.09375 -4.015625 C 12.664062 -3.066406 14.4375 -2.59375 16.40625 -2.59375 Z M 16.40625 -2.59375 "/></g></g></g><g fill="#f5f5fa" fill-opacity="1"><g transform="translate(995.635183, 459.759429)"><g><path d="M 15.046875 0.65625 C 11.210938 0.65625 8.300781 -0.476562 6.3125 -2.75 C 4.332031 -5.019531 3.34375 -8.367188 3.34375 -12.796875 L 3.34375 -26.546875 L 6.953125 -26.546875 L 6.953125 -11.40625 C 6.953125 -8.5 7.664062 -6.3125 9.09375 -4.84375 C 10.53125 -3.382812 12.515625 -2.65625 15.046875 -2.65625 C 16.816406 -2.65625 18.300781 -3.007812 19.5 -3.71875 C 20.695312 -4.4375 21.59375 -5.4375 22.1875 -6.71875 C 22.789062 -8.007812 23.09375 -9.488281 23.09375 -11.15625 L 23.09375 -26.546875 L 26.703125 -26.546875 L 26.703125 -12.796875 C 26.703125 -8.328125 25.71875 -4.96875 23.75 -2.71875 C 21.78125 -0.46875 18.878906 0.65625 15.046875 0.65625 Z M 15.046875 0.65625 "/></g></g></g><g fill="#f5f5fa" fill-opacity="1"><g transform="translate(1026.030483, 459.759429)"><g/></g></g><g fill="#f5f5fa" fill-opacity="1"><g transform="translate(1039.878337, 459.759429)"><g><path d="M 16.59375 0.703125 C 13.894531 0.703125 11.476562 0.0859375 9.34375 -1.140625 C 7.21875 -2.378906 5.550781 -4.066406 4.34375 -6.203125 C 3.144531 -8.335938 2.546875 -10.703125 2.546875 -13.296875 C 2.546875 -15.929688 3.15625 -18.304688 4.375 -20.421875 C 5.59375 -22.535156 7.285156 -24.203125 9.453125 -25.421875 C 11.617188 -26.640625 14.035156 -27.25 16.703125 -27.25 C 19.234375 -27.25 21.539062 -26.738281 23.625 -25.71875 C 25.707031 -24.707031 27.382812 -23.300781 28.65625 -21.5 L 26.15625 -19.34375 C 24.882812 -20.882812 23.472656 -22.035156 21.921875 -22.796875 C 20.367188 -23.566406 18.578125 -23.953125 16.546875 -23.953125 C 14.546875 -23.953125 12.753906 -23.484375 11.171875 -22.546875 C 9.585938 -21.617188 8.335938 -20.34375 7.421875 -18.71875 C 6.503906 -17.101562 6.046875 -15.296875 6.046875 -13.296875 C 6.046875 -11.234375 6.492188 -9.382812 7.390625 -7.75 C 8.296875 -6.113281 9.554688 -4.84375 11.171875 -3.9375 C 12.785156 -3.039062 14.59375 -2.59375 16.59375 -2.59375 C 20.46875 -2.59375 23.65625 -4.09375 26.15625 -7.09375 L 28.703125 -5.09375 C 27.265625 -3.257812 25.519531 -1.832031 23.46875 -0.8125 C 21.425781 0.195312 19.132812 0.703125 16.59375 0.703125 Z M 16.59375 0.703125 "/></g></g></g><g fill="#f5f5fa" fill-opacity="1"><g transform="translate(1070.773561, 459.759429)"><g><path d="M 16.15625 0.65625 C 13.613281 0.65625 11.3125 0.0195312 9.25 -1.25 C 7.1875 -2.519531 5.550781 -4.226562 4.34375 -6.375 C 3.144531 -8.519531 2.546875 -10.84375 2.546875 -13.34375 C 2.546875 -15.84375 3.15625 -18.148438 4.375 -20.265625 C 5.59375 -22.390625 7.25 -24.082031 9.34375 -25.34375 C 11.445312 -26.613281 13.75 -27.25 16.25 -27.25 C 18.414062 -27.25 20.398438 -26.78125 22.203125 -25.84375 C 24.003906 -24.914062 25.550781 -23.535156 26.84375 -21.703125 L 26.84375 -26.546875 L 30.203125 -26.546875 L 30.203125 0 L 26.84375 0 L 26.84375 -4.546875 C 25.414062 -2.816406 23.800781 -1.515625 22 -0.640625 C 20.195312 0.222656 18.25 0.65625 16.15625 0.65625 Z M 16.5 -2.453125 C 18.332031 -2.453125 20.066406 -2.890625 21.703125 -3.765625 C 23.335938 -4.648438 24.644531 -5.898438 25.625 -7.515625 C 26.601562 -9.140625 27.09375 -11.019531 27.09375 -13.15625 C 27.09375 -15.1875 26.625 -17.015625 25.6875 -18.640625 C 24.757812 -20.273438 23.492188 -21.566406 21.890625 -22.515625 C 20.296875 -23.472656 18.515625 -23.953125 16.546875 -23.953125 C 14.578125 -23.953125 12.785156 -23.457031 11.171875 -22.46875 C 9.554688 -21.488281 8.296875 -20.179688 7.390625 -18.546875 C 6.492188 -16.910156 6.046875 -15.144531 6.046875 -13.25 C 6.046875 -11.351562 6.503906 -9.578125 7.421875 -7.921875 C 8.335938 -6.273438 9.59375 -4.953125 11.1875 -3.953125 C 12.789062 -2.953125 14.5625 -2.453125 16.5 -2.453125 Z M 16.5 -2.453125 "/></g></g></g><g fill="#f5f5fa" fill-opacity="1"><g transform="translate(1104.968277, 459.759429)"><g><path d="M 7.40625 -26.546875 L 7.40625 -21.796875 C 10.164062 -25.429688 13.476562 -27.25 17.34375 -27.25 C 19.3125 -27.25 21.035156 -26.789062 22.515625 -25.875 C 24.003906 -24.957031 25.15625 -23.570312 25.96875 -21.71875 C 26.789062 -19.875 27.203125 -17.601562 27.203125 -14.90625 L 27.203125 0 L 23.796875 0 L 23.796875 -14.453125 C 23.796875 -17.679688 23.238281 -20.101562 22.125 -21.71875 C 21.007812 -23.34375 19.203125 -24.15625 16.703125 -24.15625 C 15.066406 -24.15625 13.539062 -23.703125 12.125 -22.796875 C 10.707031 -21.898438 9.566406 -20.59375 8.703125 -18.875 C 7.835938 -17.15625 7.40625 -15.113281 7.40625 -12.75 L 7.40625 0 L 4 0 L 4 -26.546875 Z M 7.40625 -26.546875 "/></g></g></g><g fill="#f5f5fa" fill-opacity="1"><g transform="translate(1135.663527, 459.759429)"><g/></g></g><g fill="#f5f5fa" fill-opacity="1"><g transform="translate(1149.511381, 459.759429)"><g><path d="M 16.59375 0.703125 C 13.894531 0.703125 11.476562 0.0859375 9.34375 -1.140625 C 7.21875 -2.378906 5.550781 -4.066406 4.34375 -6.203125 C 3.144531 -8.335938 2.546875 -10.703125 2.546875 -13.296875 C 2.546875 -15.929688 3.15625 -18.304688 4.375 -20.421875 C 5.59375 -22.535156 7.285156 -24.203125 9.453125 -25.421875 C 11.617188 -26.640625 14.035156 -27.25 16.703125 -27.25 C 19.234375 -27.25 21.539062 -26.738281 23.625 -25.71875 C 25.707031 -24.707031 27.382812 -23.300781 28.65625 -21.5 L 26.15625 -19.34375 C 24.882812 -20.882812 23.472656 -22.035156 21.921875 -22.796875 C 20.367188 -23.566406 18.578125 -23.953125 16.546875 -23.953125 C 14.546875 -23.953125 12.753906 -23.484375 11.171875 -22.546875 C 9.585938 -21.617188 8.335938 -20.34375 7.421875 -18.71875 C 6.503906 -17.101562 6.046875 -15.296875 6.046875 -13.296875 C 6.046875 -11.234375 6.492188 -9.382812 7.390625 -7.75 C 8.296875 -6.113281 9.554688 -4.84375 11.171875 -3.9375 C 12.785156 -3.039062 14.59375 -2.59375 16.59375 -2.59375 C 20.46875 -2.59375 23.65625 -4.09375 26.15625 -7.09375 L 28.703125 -5.09375 C 27.265625 -3.257812 25.519531 -1.832031 23.46875 -0.8125 C 21.425781 0.195312 19.132812 0.703125 16.59375 0.703125 Z M 16.59375 0.703125 "/></g></g></g><g fill="#f5f5fa" fill-opacity="1"><g transform="translate(1180.406582, 459.759429)"><g><path d="M 16.15625 0.65625 C 13.613281 0.65625 11.3125 0.0195312 9.25 -1.25 C 7.1875 -2.519531 5.550781 -4.226562 4.34375 -6.375 C 3.144531 -8.519531 2.546875 -10.84375 2.546875 -13.34375 C 2.546875 -15.84375 3.15625 -18.148438 4.375 -20.265625 C 5.59375 -22.390625 7.25 -24.082031 9.34375 -25.34375 C 11.445312 -26.613281 13.75 -27.25 16.25 -27.25 C 18.414062 -27.25 20.398438 -26.78125 22.203125 -25.84375 C 24.003906 -24.914062 25.550781 -23.535156 26.84375 -21.703125 L 26.84375 -26.546875 L 30.203125 -26.546875 L 30.203125 0 L 26.84375 0 L 26.84375 -4.546875 C 25.414062 -2.816406 23.800781 -1.515625 22 -0.640625 C 20.195312 0.222656 18.25 0.65625 16.15625 0.65625 Z M 16.5 -2.453125 C 18.332031 -2.453125 20.066406 -2.890625 21.703125 -3.765625 C 23.335938 -4.648438 24.644531 -5.898438 25.625 -7.515625 C 26.601562 -9.140625 27.09375 -11.019531 27.09375 -13.15625 C 27.09375 -15.1875 26.625 -17.015625 25.6875 -18.640625 C 24.757812 -20.273438 23.492188 -21.566406 21.890625 -22.515625 C 20.296875 -23.472656 18.515625 -23.953125 16.546875 -23.953125 C 14.578125 -23.953125 12.785156 -23.457031 11.171875 -22.46875 C 9.554688 -21.488281 8.296875 -20.179688 7.390625 -18.546875 C 6.492188 -16.910156 6.046875 -15.144531 6.046875 -13.25 C 6.046875 -11.351562 6.503906 -9.578125 7.421875 -7.921875 C 8.335938 -6.273438 9.59375 -4.953125 11.1875 -3.953125 C 12.789062 -2.953125 14.5625 -2.453125 16.5 -2.453125 Z M 16.5 -2.453125 "/></g></g></g><g fill="#f5f5fa" fill-opacity="1"><g transform="translate(1214.601298, 459.759429)"><g><path d="M 6.703125 -36.796875 L 6.703125 0 L 3.296875 0 L 3.296875 -36.796875 Z M 6.703125 -36.796875 "/></g></g></g><g fill="#f5f5fa" fill-opacity="1"><g transform="translate(1224.599726, 459.759429)"><g><path d="M 6.703125 -36.796875 L 6.703125 0 L 3.296875 0 L 3.296875 -36.796875 Z M 6.703125 -36.796875 "/></g></g></g><g fill="#f5f5fa" fill-opacity="1"><g transform="translate(1234.5982, 459.759429)"><g/></g></g><g fill="#f5f5fa" fill-opacity="1"><g transform="translate(1248.446054, 459.759429)"><g><path d="M 7.40625 -26.546875 L 7.40625 -22 C 8.601562 -23.726562 9.953125 -25.035156 11.453125 -25.921875 C 12.953125 -26.804688 14.632812 -27.25 16.5 -27.25 C 18.53125 -27.25 20.253906 -26.710938 21.671875 -25.640625 C 23.085938 -24.578125 24.164062 -22.976562 24.90625 -20.84375 C 26.070312 -22.945312 27.492188 -24.539062 29.171875 -25.625 C 30.859375 -26.707031 32.6875 -27.25 34.65625 -27.25 C 36.488281 -27.25 38.085938 -26.816406 39.453125 -25.953125 C 40.816406 -25.085938 41.863281 -23.785156 42.59375 -22.046875 C 43.332031 -20.316406 43.703125 -18.21875 43.703125 -15.75 L 43.703125 0 L 40.296875 0 L 40.296875 -16.453125 C 40.296875 -18.785156 39.769531 -20.617188 38.71875 -21.953125 C 37.675781 -23.285156 36.101562 -23.953125 34 -23.953125 C 32.332031 -23.953125 30.847656 -23.492188 29.546875 -22.578125 C 28.242188 -21.660156 27.242188 -20.375 26.546875 -18.71875 C 25.847656 -17.070312 25.5 -15.179688 25.5 -13.046875 L 25.5 0 L 22.09375 0 L 22.09375 -14.75 C 22.09375 -17.8125 21.617188 -20.109375 20.671875 -21.640625 C 19.722656 -23.179688 18.113281 -23.953125 15.84375 -23.953125 C 14.113281 -23.953125 12.613281 -23.484375 11.34375 -22.546875 C 10.082031 -21.617188 9.109375 -20.296875 8.421875 -18.578125 C 7.742188 -16.859375 7.40625 -14.847656 7.40625 -12.546875 L 7.40625 0 L 4 0 L 4 -26.546875 Z M 7.40625 -26.546875 "/></g></g></g><g fill="#f5f5fa" fill-opacity="1"><g transform="translate(1295.638739, 459.759429)"><g><path d="M 16.40625 0.65625 C 13.53125 0.65625 11.050781 0.03125 8.96875 -1.21875 C 6.882812 -2.46875 5.289062 -4.148438 4.1875 -6.265625 C 3.09375 -8.390625 2.546875 -10.703125 2.546875 -13.203125 C 2.546875 -15.628906 3.113281 -17.914062 4.25 -20.0625 C 5.382812 -22.21875 6.992188 -23.953125 9.078125 -25.265625 C 11.160156 -26.585938 13.535156 -27.25 16.203125 -27.25 C 18.765625 -27.25 21.09375 -26.648438 23.1875 -25.453125 C 25.289062 -24.253906 26.941406 -22.585938 28.140625 -20.453125 C 29.347656 -18.316406 29.953125 -15.914062 29.953125 -13.25 L 29.953125 -13 L 6.046875 -13 C 6.117188 -10.96875 6.59375 -9.164062 7.46875 -7.59375 C 8.351562 -6.03125 9.5625 -4.816406 11.09375 -3.953125 C 12.632812 -3.085938 14.40625 -2.65625 16.40625 -2.65625 C 18.769531 -2.65625 20.703125 -3.203125 22.203125 -4.296875 C 23.703125 -5.398438 25.035156 -6.898438 26.203125 -8.796875 L 29.046875 -7.296875 C 27.742188 -4.796875 26.019531 -2.84375 23.875 -1.4375 C 21.726562 -0.0390625 19.238281 0.65625 16.40625 0.65625 Z M 26.203125 -16 C 25.535156 -18.632812 24.304688 -20.617188 22.515625 -21.953125 C 20.734375 -23.285156 18.644531 -23.953125 16.25 -23.953125 C 13.8125 -23.953125 11.75 -23.289062 10.0625 -21.96875 C 8.382812 -20.65625 7.164062 -18.664062 6.40625 -16 Z M 26.203125 -16 "/></g></g></g><g fill="#f5f5fa" fill-opacity="1"><g transform="translate(1328.133687, 459.759429)"><g><path d="M 7.546875 -21.15625 C 6.710938 -21.15625 6.003906 -21.453125 5.421875 -22.046875 C 4.835938 -22.648438 4.546875 -23.367188 4.546875 -24.203125 C 4.546875 -24.734375 4.675781 -25.234375 4.9375 -25.703125 C 5.207031 -26.171875 5.578125 -26.546875 6.046875 -26.828125 C 6.515625 -27.109375 7.015625 -27.25 7.546875 -27.25 C 8.078125 -27.25 8.566406 -27.113281 9.015625 -26.84375 C 9.472656 -26.582031 9.84375 -26.21875 10.125 -25.75 C 10.40625 -25.28125 10.546875 -24.765625 10.546875 -24.203125 C 10.546875 -23.367188 10.253906 -22.648438 9.671875 -22.046875 C 9.085938 -21.453125 8.378906 -21.15625 7.546875 -21.15625 Z M 7.546875 0.703125 C 6.710938 0.703125 6.003906 0.40625 5.421875 -0.1875 C 4.835938 -0.789062 4.546875 -1.507812 4.546875 -2.34375 C 4.546875 -2.882812 4.675781 -3.382812 4.9375 -3.84375 C 5.207031 -4.3125 5.578125 -4.6875 6.046875 -4.96875 C 6.515625 -5.257812 7.015625 -5.40625 7.546875 -5.40625 C 8.078125 -5.40625 8.566406 -5.269531 9.015625 -5 C 9.472656 -4.726562 9.84375 -4.359375 10.125 -3.890625 C 10.40625 -3.429688 10.546875 -2.914062 10.546875 -2.34375 C 10.546875 -1.507812 10.253906 -0.789062 9.671875 -0.1875 C 9.085938 0.40625 8.378906 0.703125 7.546875 0.703125 Z M 7.546875 0.703125 "/></g></g></g></svg>